<?xml version="1.0" encoding="UTF-8" standalone="no"?>
<svg width="1645px" height="1471px" viewBox="0 0 1645 1471" version="1.1" xmlns="http://www.w3.org/2000/svg" xmlns:xlink="http://www.w3.org/1999/xlink">
    <!-- Generator: Sketch 47.1 (45422) - http://www.bohemiancoding.com/sketch -->
    <title>Group</title>
    <desc>Created with Sketch.</desc>
    <defs></defs>
    <g id="首页－banner" stroke="none" stroke-width="1" fill="none" fill-rule="evenodd" opacity="0.477786847">
        <g id="banner-copy-9" transform="translate(-138.030893, 0.337801)" stroke="#FFFFFF" stroke-width="0.3">
            <g id="Group-15" transform="translate(139.000000, 0.000000)">
                <g id="Group">
                    <path d="M392.250059,8.89044465 C363.46792,8.79606626 336.374704,22.4494738 319.342021,45.6288072 L17.4907633,456.39881 C-7.05774499,489.806244 -5.60038968,535.642684 21.0208857,567.425551 L749.623029,1437.30239 C752.912776,1441.23105 756.532253,1444.87154 760.443704,1448.18359 C798.387799,1480.33517 855.234724,1475.66407 887.412324,1437.75164 L1621.69413,572.664181 C1648.52306,541.056228 1650.27994,495.229856 1625.95041,461.662607 L1326.79488,48.9257591 C1309.91322,25.6331716 1282.91062,11.8035911 1254.12848,11.710471 L392.250059,8.89170303 L392.250059,8.89044465 Z" id="Shape"></path>
                    <path d="M365.978649,44.7391336 C337.794304,46.0314884 311.923101,60.7004075 296.360358,84.2144696 L20.5388761,500.950445 C-1.89030034,534.836063 1.74176133,579.641891 29.3358654,609.479305 L784.658707,1426.19594 C788.069271,1429.88299 791.78817,1433.27432 795.77639,1436.32967 C834.473075,1465.98084 889.906692,1458.6747 919.588665,1420.01101 L1597.00718,537.614563 C1621.75453,505.378679 1621.27127,460.428138 1595.83677,428.734615 L1283.03395,38.9820516 C1265.38586,16.9918859 1238.28131,4.75037913 1210.09571,6.04273393 L365.974874,44.7378752 L365.978649,44.7391336 Z" id="Shape" opacity="0.992"></path>
                    <path d="M341.985144,81.0873988 C314.452707,83.707343 289.828688,99.3137541 275.722042,123.083267 L25.6811505,544.421133 C5.35116982,578.677973 11.0622911,622.371394 39.5121823,650.257063 L818.435874,1413.6562 C821.952152,1417.10416 825.75663,1420.24256 829.807776,1423.04371 C869.123648,1450.2121 923.044536,1440.39297 950.247243,1401.11017 L1571.13724,504.480197 C1593.8156,471.728377 1591.18028,427.744271 1564.75155,397.937058 L1239.69965,31.3336266 C1221.36315,10.6521747 1194.23596,-0.0289427073 1166.70226,2.59225987 L341.985144,81.0873988 Z" id="Shape" opacity="0.984"></path>
                    <path d="M320.270802,117.815694 C293.439355,121.704084 270.077622,138.169968 257.408196,162.123204 L32.8194228,586.739146 C14.5622091,621.25647 22.2554846,663.764499 51.4554482,689.695906 L850.967115,1399.77377 C854.575265,1402.9776 858.451478,1405.86936 862.552964,1408.41631 C902.355879,1433.12709 954.680976,1420.91831 979.425812,1381.14977 L1544.32089,473.263599 C1564.95166,440.107841 1560.25364,397.16693 1532.94396,369.254835 L1196.98832,25.903723 C1178.03893,6.53727671 1150.96459,-2.61616906 1124.13314,1.27347912 L320.27206,117.815694 L320.270802,117.815694 Z" id="Shape" opacity="0.977"></path>
                    <path d="M300.753819,154.849776 C274.669927,159.948726 252.590617,177.192288 241.339532,201.249969 L41.845461,627.840307 C25.6295516,662.512412 35.2068175,703.758287 65.042329,727.742982 L882.090083,1384.58892 C885.777519,1387.55366 889.711623,1390.19877 893.849606,1392.49405 C934.00868,1414.77238 984.651148,1400.30355 1006.96454,1360.17889 L1516.43481,444.007556 C1535.03938,410.552303 1528.37556,368.738899 1500.29316,342.724439 L1154.80682,22.675982 C1135.3213,4.62454127 1108.37407,-3.03269237 1082.29144,2.06374087 L300.75256,154.851034 L300.753819,154.849776 Z" id="Shape" opacity="0.969"></path>
                    <path d="M283.414059,192.015987 C258.12303,198.265095 237.33621,216.209574 227.478296,240.306265 L52.6585844,667.635271 C38.4499994,702.364003 49.8105748,742.286063 80.1759193,764.335373 L911.843791,1368.25642 C915.59667,1370.98081 919.57608,1373.38054 923.736716,1375.42918 C964.126098,1395.31156 1013.01294,1378.70977 1032.92887,1338.34854 L1487.72315,416.690674 C1504.32794,383.04163 1495.79021,342.42117 1467.04582,318.300569 L1113.34141,21.509465 C1093.39653,4.77302995 1066.64312,-1.43077644 1041.35083,4.81833157 L283.414059,192.015987 Z" id="Shape" opacity="0.961"></path>
                    <path d="M268.226353,229.26651 C243.763423,236.60034 224.276645,255.167716 215.784215,279.234206 L65.1505609,706.092579 C52.911545,740.777268 65.9560077,779.317628 96.7454702,799.445394 L940.193001,1350.81152 C943.996221,1353.29933 948.008352,1355.45745 952.181574,1357.26322 C992.680446,1374.78866 1039.74497,1356.18354 1057.30497,1315.70905 L1458.30421,391.326795 C1472.9432,357.582115 1462.63348,318.22255 1433.32906,295.992034 L1072.69529,22.3777462 C1052.3628,6.95002488 1025.87115,2.16566953 1001.40822,9.4982415 L268.226353,229.263993 L268.226353,229.26651 Z" id="Shape" opacity="0.953"></path>
                    <path d="M255.142877,266.486831 C231.545802,274.842465 213.356548,293.961011 206.199398,317.931864 L79.2282608,743.160637 C68.9147662,777.706904 83.5386597,814.812713 114.652818,833.036551 L967.102476,1332.35488 C970.948484,1334.60738 974.980752,1336.52766 979.151456,1338.09309 C1019.64655,1353.30311 1064.83086,1332.823 1080.07646,1292.35354 L1428.28999,367.899561 C1441.00095,334.157398 1429.01111,296.11913 1399.25111,275.761082 L1032.94523,25.1965143 C1012.29559,11.0724731 986.128639,7.66100878 962.531565,16.0166425 L255.141618,266.486831 L255.142877,266.486831 Z" id="Shape" opacity="0.945"></path>
                    <path d="M244.148528,303.564956 C221.444996,312.880733 204.5583,332.469912 198.703709,356.283468 L94.8337926,778.766458 C86.3967373,813.084959 102.498122,848.70714 133.837554,865.053478 L992.564663,1312.97962 C996.438358,1315.00058 1000.47692,1316.68681 1004.63756,1318.02069 C1045.01561,1330.96185 1088.2681,1308.73889 1101.24587,1268.38395 L1397.73838,346.426589 C1408.55906,312.780063 1394.99231,276.115944 1364.87867,257.617779 L994.137801,29.8864912 C973.241491,17.0510297 947.459642,14.9684132 924.758627,24.2841898 L244.148528,303.566215 L244.148528,303.564956 Z" id="Shape" opacity="0.938"></path>
                    <path d="M235.091027,340.376305 C213.318793,350.586788 197.729622,370.577391 193.144867,394.171989 L111.79474,812.838317 C105.18756,846.842223 122.663238,880.944282 154.128521,895.442062 L1016.45119,1292.76629 C1020.33999,1294.55822 1024.37478,1296.01291 1028.51276,1297.12028 C1068.65925,1307.85047 1109.93211,1284.01552 1120.69237,1243.88583 L1366.5827,326.901587 C1375.55588,293.441301 1360.50912,258.19915 1330.13874,241.535701 L956.197481,36.3633658 C935.122462,24.8013834 909.783609,24.0010546 888.011375,34.2115384 L235.091027,340.375046 L235.091027,340.376305 Z" id="Shape" opacity="0.93"></path>
                    <path d="M228.072313,376.876834 C207.246479,387.920364 192.947281,408.240661 189.594609,431.559675 L130.079641,845.420255 C125.24696,879.026513 143.996252,911.573217 175.49929,924.252639 L1038.97602,1271.82561 C1042.86985,1273.39229 1046.88953,1274.62425 1050.99479,1275.50763 C1090.81407,1284.08222 1130.07331,1258.76364 1138.67775,1218.95609 L1335.33262,309.244019 C1342.50613,276.054284 1326.08256,242.275628 1295.54732,227.421727 L919.523223,44.511367 C898.336196,34.2052465 873.49068,34.6406455 852.664846,45.6841759 L228.073571,376.876834 L228.072313,376.876834 Z" id="Shape" opacity="0.922"></path>
                    <path d="M222.93759,412.959581 C203.078292,424.773239 190.057741,445.356538 187.89562,468.347114 L149.521113,876.460679 C146.403783,909.593787 166.327264,940.556192 197.777445,951.455009 L1060.02461,1250.24442 C1063.91089,1251.5934 1067.90666,1252.6064 1071.96787,1253.27334 C1111.36681,1259.75147 1148.586,1233.07636 1155.09502,1193.68911 L1303.91138,293.442559 C1309.33934,260.606428 1291.63461,228.326501 1261.02512,215.254464 L884.021897,54.2386335 C862.783271,45.1682407 838.478914,46.7890323 818.620875,58.6052071 L222.936331,412.958323 L222.93759,412.959581 Z" id="Shape" opacity="0.914"></path>
                    <path d="M219.65036,448.526393 C200.776476,461.04726 189.018211,481.82309 188.007627,504.436153 L170.066299,905.906738 C168.608944,938.496226 189.603419,967.849165 220.918938,977.005128 L1079.60452,1228.10828 C1083.47444,1229.24082 1087.43497,1230.03989 1091.44207,1230.4992 C1130.32627,1234.94505 1165.48025,1207.03925 1169.96055,1168.16668 L1272.37059,279.489657 C1276.10459,247.081375 1257.21812,216.32912 1226.62373,205.002454 L849.71238,65.4709206 C828.483822,57.6123464 804.76719,60.3694539 785.893306,72.8903207 L219.651618,448.526393 L219.65036,448.526393 Z" id="Shape" opacity="0.906"></path>
                    <path d="M218.141406,483.494217 C200.266779,496.660632 189.753181,517.566075 189.852604,539.753807 L191.605709,933.739555 C191.749179,965.714955 213.715224,993.442069 244.815538,1000.903 L1097.71448,1205.50277 C1101.55923,1206.42138 1105.47446,1207.01534 1109.41863,1207.27079 C1147.70253,1209.75609 1180.77619,1180.74417 1183.29069,1142.4731 L1240.79707,267.350079 C1242.89375,235.441374 1222.92371,206.243215 1192.42496,196.622911 L816.645013,78.1151086 C795.483157,71.4406686 772.395779,75.2799817 754.522411,88.4463967 L218.145181,483.494217 L218.141406,483.494217 Z" id="Shape" opacity="0.898"></path>
                    <path d="M218.311304,517.810201 C201.444745,531.559245 192.159454,552.533899 193.322317,574.252255 L213.994613,959.979266 C215.673466,991.278916 238.514176,1017.3714 269.321257,1023.18007 L1114.37339,1182.5059 C1118.17913,1183.22318 1122.04149,1183.61579 1125.91645,1183.67619 C1163.51823,1184.26763 1194.50528,1154.27292 1195.12572,1116.68012 L1209.33431,256.947063 C1209.8503,225.60337 1188.8961,197.975668 1158.57102,190.026491 L784.88398,92.050393 C763.8442,86.5336613 741.427608,91.4035864 724.557273,105.152631 L218.311304,517.810201 Z" id="Shape" opacity="0.891"></path>
                    <path d="M220.15754,551.430301 C204.304081,565.70409 196.220667,586.686294 198.404183,607.893748 L237.195256,984.606993 C240.341533,1015.17301 263.958744,1039.61701 294.399599,1043.82126 L1129.55229,1159.16424 C1133.31523,1159.68269 1137.11594,1159.88151 1140.91034,1159.75316 C1177.75198,1158.52372 1206.64613,1127.66702 1205.44677,1090.83176 L1178.02634,248.284385 C1177.02582,217.573656 1155.17934,191.534028 1125.10974,185.209417 L754.474588,107.25664 C733.608482,102.868674 711.895398,108.713842 696.041939,122.986372 L220.15754,551.43156 L220.15754,551.430301 Z" id="Shape" opacity="0.883"></path>
                    <path d="M223.564328,584.24504 C208.729005,598.980653 201.823557,619.912522 204.98116,640.570065 L261.089339,1007.60134 C265.641372,1037.37206 289.939437,1060.17011 319.944847,1062.82151 L1143.31284,1135.59355 C1147.02293,1135.92072 1150.75316,1135.93079 1154.46325,1135.62375 C1190.47553,1132.64768 1217.2818,1101.04728 1214.33563,1065.04129 L1146.94742,241.299126 C1144.49081,211.280505 1121.8502,186.836501 1092.1053,182.092414 L725.41306,123.58536 C704.773486,120.292183 683.794114,127.058485 668.961308,141.796615 L223.564328,584.242523 L223.564328,584.24504 Z" id="Shape" opacity="0.875"></path>
                    <path d="M228.555581,616.238057 C214.74091,631.378868 208.985741,652.202516 213.070866,672.27743 L285.656725,1028.98245 C291.544038,1057.91258 316.42731,1079.06089 345.931833,1080.21356 L1155.69281,1111.83662 C1159.33997,1111.97881 1162.99217,1111.80893 1166.61039,1111.33075 C1201.72284,1106.68356 1226.44754,1074.45522 1221.83384,1039.34646 L1116.24479,235.959825 C1112.39879,206.68994 1089.05719,183.846593 1059.70872,180.632695 L697.822732,140.996286 C677.46003,138.765181 657.245832,146.401022 643.429902,161.543092 L228.555581,616.238057 Z" id="Shape" opacity="0.867"></path>
                    <path d="M234.916094,647.282256 C222.119558,662.77038 217.488239,683.435473 222.453063,702.890005 L310.707379,1048.68992 C317.863271,1076.72911 343.243655,1096.24027 372.185624,1095.94959 L1166.64311,1087.99663 C1170.2198,1087.95888 1173.78768,1087.61912 1177.30647,1086.97483 C1211.45993,1080.73831 1234.11564,1047.99781 1227.90741,1013.84794 L1085.83037,232.237542 C1080.65537,203.765468 1056.70466,182.524038 1027.81555,180.787475 L671.538737,159.369872 C651.495697,158.164345 632.074361,166.61184 619.276566,182.099964 L234.914835,647.282256 L234.916094,647.282256 Z" id="Shape" opacity="0.859"></path>
                    <path d="M242.648383,677.392739 C230.864948,693.172806 227.324758,713.625233 233.121458,732.434218 L336.178376,1066.79799 C344.534887,1093.90346 370.321769,1111.78502 398.638258,1110.11138 L1176.19898,1064.11261 C1179.69764,1063.90498 1183.17491,1063.40037 1186.59051,1062.60256 C1219.72709,1054.85346 1240.33143,1021.71029 1232.61172,988.575919 L1055.88159,230.05048 C1049.44431,202.424036 1024.97257,182.780747 996.608257,182.468669 L646.708323,178.630614 C627.025216,178.41669 608.419395,187.619212 596.63596,203.395505 L242.648383,677.393997 L242.648383,677.392739 Z" id="Shape" opacity="0.852"></path>
                    <path d="M251.676938,706.524203 C240.900312,722.538328 238.41727,742.732788 244.996764,760.867282 L361.987912,1083.32679 C371.47079,1109.4608 397.574817,1125.7266 425.219262,1122.72411 L1184.3944,1040.26256 C1187.81126,1039.89008 1191.19036,1039.22691 1194.49521,1038.28187 C1226.56206,1029.10074 1245.14145,995.663107 1235.99082,963.594587 L1026.46139,229.335721 C1018.83356,202.598951 993.931405,184.544994 966.148525,185.607065 L623.341556,198.685394 C604.061173,199.422803 586.287227,209.327501 575.509342,225.341627 L251.676938,706.524203 Z" id="Shape" opacity="0.844"></path>
                    <path d="M261.941351,734.603662 C252.162723,750.798995 250.702851,770.688926 258.014798,788.12502 L388.079354,1098.23732 C398.618122,1123.36714 424.956233,1138.03354 451.873258,1133.76512 L1191.26084,1016.49934 C1194.5896,1015.97082 1197.8655,1015.16168 1201.05457,1014.0757 C1232.00638,1003.54559 1248.586,969.916681 1238.08498,938.963085 L997.606256,230.084456 C988.849539,204.275111 963.605075,187.800419 936.455225,190.173721 L601.422076,219.473808 C582.584689,221.122284 565.660238,231.67253 555.879094,247.86912 L261.941351,734.603662 Z" id="Shape" opacity="0.836"></path>
                    <path d="M273.293117,761.592108 C264.496128,777.918311 264.025445,797.460931 272.022021,814.179748 L414.314267,1111.59753 C425.842224,1135.6917 452.333873,1148.78513 478.481948,1143.31244 L1196.8826,992.929909 C1200.11446,992.252901 1203.28339,991.301567 1206.3529,990.085973 C1236.1494,978.289932 1250.76196,944.57042 1238.99237,914.769498 L969.386673,232.174623 C959.572807,207.331713 934.064055,192.413635 907.597576,196.044057 L580.925972,240.846109 C562.564302,243.362867 546.500672,254.508326 537.704942,270.833271 L273.291858,761.593366 L273.293117,761.592108 Z" id="Shape" opacity="0.828"></path>
                    <path d="M285.76244,787.493314 C277.934504,803.902571 278.412738,823.057609 287.049897,839.042792 L440.693908,1123.44893 C453.140578,1146.48481 479.705221,1158.02918 505.041557,1151.41388 L1201.3113,969.580694 C1204.445,968.762748 1207.50066,967.680542 1210.44809,966.342886 C1239.05404,953.360194 1251.73982,919.64194 1238.7822,891.032703 L941.929746,235.559661 C931.126691,211.705837 905.435455,198.328014 879.698913,203.156413 L561.9577,262.744413 C544.099434,266.091701 528.909211,277.777004 521.083792,294.183744 L285.76244,787.493314 Z" id="Shape" opacity="0.82"></path>
                    <path d="M299.168095,812.248137 C292.29411,828.688853 293.684765,847.419819 302.905872,862.652491 L467.049638,1133.76386 C480.342027,1155.71879 506.906669,1165.7443 531.393511,1158.04805 L1204.46136,946.502031 C1207.48807,945.551955 1210.4267,944.343912 1213.24954,942.893001 C1240.62969,928.806711 1251.42771,895.187869 1237.36637,867.800518 L915.136055,240.211887 C903.414287,217.379866 877.617336,205.518389 852.651002,211.483104 L544.375048,285.115868 C527.052908,289.253417 512.743642,301.421937 505.870915,317.861395 L299.170612,812.248137 L299.168095,812.248137 Z" id="Shape" opacity="0.813"></path>
                    <path d="M313.536511,835.865386 C307.596341,852.29226 309.859143,870.563917 319.62141,885.035271 L493.396558,1142.63795 C507.466707,1163.49432 533.958355,1172.03116 557.560464,1163.31814 L1206.49888,923.760613 C1209.41485,922.683441 1212.23518,921.35711 1214.92713,919.801754 C1241.05885,904.693661 1250.01441,871.257284 1234.9299,845.119502 L889.198151,246.025596 C876.623113,224.234254 850.795957,213.861439 826.641363,220.902067 L528.295058,307.849735 C511.53673,312.732244 498.112197,325.336164 492.173285,341.763038 L313.536511,835.865386 Z" id="Shape" opacity="0.805"></path>
                    <path d="M328.690238,858.262008 C323.666263,874.627222 326.759682,892.406853 337.014027,906.105562 L519.586164,1149.98814 C534.366113,1169.72958 560.710516,1176.81425 583.401462,1167.14991 L1207.34586,901.386642 C1210.14982,900.191183 1212.84555,898.760406 1215.40788,897.105638 C1240.26347,881.061311 1247.42062,847.896744 1231.396,823.034958 L863.993958,253.034764 C850.63361,232.306752 824.849244,223.393657 801.540368,231.446022 L513.567966,330.924623 C497.396105,336.511824 484.858822,349.494516 479.836106,365.859729 L328.688979,858.26075 L328.690238,858.262008 Z" id="Shape" opacity="0.797"></path>
                    <path d="M344.648153,879.499664 C340.517721,895.764207 344.400226,913.022869 355.097566,925.938867 L545.592028,1155.9755 C561.008783,1174.5907 587.137981,1180.25969 608.886303,1169.70441 L1207.04885,879.426678 C1209.73703,878.121739 1212.30943,876.590292 1214.73835,874.848696 C1238.29767,857.94238 1243.70927,825.130159 1226.82635,801.560728 L839.675757,261.07077 C825.599316,241.41993 799.931992,233.935094 777.49904,242.940051 L500.312074,354.213436 C484.748073,360.461285 473.100557,373.774931 468.968867,390.039474 L344.648153,879.498405 L344.648153,879.499664 Z" id="Shape" opacity="0.789"></path>
                    <path d="M361.179948,899.451256 C357.920406,915.571086 362.551725,932.274803 373.642979,944.403055 L571.248025,1160.45785 C587.234886,1177.93673 613.087211,1182.23031 633.868997,1170.85583 L1205.59779,857.926021 C1208.16767,856.521671 1210.61044,854.899621 1212.90345,853.077489 C1235.15391,835.39727 1238.87281,803.022964 1221.20962,780.766022 L816.103853,270.224216 C801.379279,251.666907 775.889405,245.572579 754.363839,255.463435 L488.307141,377.722464 C473.371137,384.586919 462.608354,398.17615 459.348811,414.294721 L361.182465,899.449998 L361.179948,899.451256 Z" id="Shape" opacity="0.781"></path>
                    <path d="M378.419027,918.251432 C376.002686,934.18628 381.338771,950.317435 392.782409,961.657943 L596.673716,1163.71957 C613.165239,1180.06339 638.6828,1183.02309 658.479173,1170.88729 L1203.27206,836.955142 C1205.71861,835.455155 1208.03301,833.748794 1210.1901,831.854934 C1231.12165,813.477573 1233.20574,781.604102 1214.84659,760.663424 L793.591615,280.215742 C778.283092,262.754481 753.037369,258.015427 732.440584,268.734296 L477.793543,401.250368 C463.501896,408.687386 453.621329,422.510674 451.20373,438.448039 L378.419027,918.248915 L378.419027,918.251432 Z" id="Shape" opacity="0.773"></path>
                    <path d="M396.18668,935.825947 C394.585854,951.543096 400.587691,967.077779 412.335888,977.629283 L621.721853,1165.68767 C638.653855,1180.89643 663.776244,1182.5663 682.574617,1169.73462 L1200.00119,816.532916 C1202.3244,814.947359 1204.50666,813.166754 1206.52909,811.209975 C1226.13668,792.212234 1226.64261,760.90755 1207.66175,741.289428 L772.027036,291.078066 C756.200006,274.722919 731.256325,271.296354 711.60594,282.781576 L468.619001,424.790856 C454.984296,432.760168 445.975877,446.76718 444.375052,462.484328 L396.18668,935.82343 L396.18668,935.825947 Z" id="Shape" opacity="0.766"></path>
                    <path d="M414.466547,952.184869 C413.656066,967.647825 420.278349,982.568419 432.287057,992.333437 L646.35594,1166.41627 C663.664236,1180.48998 688.337337,1180.91657 706.122609,1167.45066 L1195.78141,796.694578 C1197.98003,795.029743 1200.0314,793.179927 1201.91539,791.166521 C1220.19651,771.623902 1219.18845,740.953441 1199.66265,722.660391 L751.441577,302.757077 C735.161484,287.505529 710.577737,285.351185 691.895147,297.538581 L460.801133,448.291076 C447.838473,456.74738 439.693392,470.891556 438.882911,486.357028 L414.467805,952.18361 L414.466547,952.184869 Z" id="Shape" opacity="0.758"></path>
                    <path d="M433.130259,967.32568 C433.079919,982.501725 440.281117,996.791872 452.506289,1005.77418 L670.5055,1165.94438 C688.124649,1178.88932 712.300638,1178.12171 729.064,1164.08198 L1190.7159,777.466553 C1192.78741,775.729991 1194.7079,773.822289 1196.45471,771.759807 C1213.41314,751.751587 1210.94898,721.771976 1190.95502,704.801482 L731.842791,315.173499 C715.171301,301.02429 691.001604,300.098123 673.296877,312.928551 L454.253102,471.667975 C441.970038,480.571004 434.67571,494.809557 434.62537,509.989378 L433.127742,967.32568 L433.130259,967.32568 Z" id="Shape" opacity="0.75"></path>
                    <path d="M452.16775,981.258447 C452.847345,996.119898 460.58341,1009.76072 472.983515,1017.96535 L694.144105,1164.33114 C712.014956,1176.1599 735.643493,1174.24339 751.377393,1159.69401 L1184.8009,758.887852 C1186.74656,757.088371 1188.53365,755.1253 1190.14454,753.023808 C1205.78153,732.619199 1201.92923,703.388323 1181.53884,687.736611 L713.254589,328.265669 C696.254628,315.216283 672.55058,315.471734 655.837559,328.882275 L448.99882,494.869959 C437.401644,504.175669 430.946743,518.467075 431.627598,533.329784 L452.166491,981.257189 L452.16775,981.258447 Z" id="Shape" opacity="0.742"></path>
                    <path d="M471.444357,993.959262 C472.826202,1008.47592 481.055603,1021.45735 493.58911,1028.89437 L717.197503,1161.57151 C735.260906,1172.28787 758.30046,1169.27657 773.00364,1154.27669 L1178.1459,740.972316 C1179.96319,739.119983 1181.61939,737.114128 1183.09436,734.978659 C1197.42125,714.253164 1192.24373,685.822617 1171.52865,671.480876 L695.679488,342.029814 C678.412722,330.075218 655.218372,331.463209 639.499574,345.395977 L444.941382,517.870603 C434.036387,527.537467 428.404552,541.83894 429.786397,556.354337 L471.445615,993.959262 L471.444357,993.959262 Z" id="Shape" opacity="0.734"></path>
                    <path d="M490.960081,1005.47594 C493.011454,1019.62012 501.690143,1031.93209 514.318039,1038.60905 L739.649333,1157.77121 C757.847396,1167.39403 780.25392,1163.33828 793.926379,1147.94831 L1170.73956,723.756439 C1172.42974,721.853771 1173.9538,719.811422 1175.29537,717.649528 C1188.32347,696.66984 1181.88745,669.088698 1160.92318,656.046863 L679.133849,356.335062 C661.653136,345.458896 639.016306,347.935385 624.300541,362.329977 L442.099665,540.574269 C431.888109,550.563279 427.06298,564.835808 429.111835,578.977467 L490.960081,1005.47594 L490.960081,1005.47594 Z" id="Shape" opacity="0.727"></path>
                    <path d="M510.587813,1015.82862 C513.275992,1029.57515 522.367473,1041.21012 535.048226,1047.14086 L761.439186,1152.98937 C779.717794,1161.53376 801.459824,1156.48766 814.10408,1140.76422 L1162.69768,707.250287 C1164.25823,705.307351 1165.65518,703.233543 1166.86335,701.052773 C1178.60903,679.886845 1170.9812,653.196635 1149.82815,641.437088 L663.612637,371.12101 C645.977128,361.318241 623.935573,364.829117 610.221583,379.627649 L440.370471,562.94069 C430.856131,573.209059 426.818829,587.412378 429.507007,601.157648 L510.587813,1015.83114 L510.587813,1015.82862 Z" id="Shape" opacity="0.719"></path>
                    <path d="M530.32126,1024.99717 C533.614782,1038.3234 543.072489,1049.27884 555.77212,1054.47343 L782.546926,1147.22222 C800.849446,1154.70958 821.890485,1148.72221 833.512831,1132.72193 L1154.00137,691.475253 C1155.43859,689.499599 1156.70339,687.401882 1157.7832,685.208528 C1168.26281,663.926829 1159.51365,638.166562 1138.24104,627.671684 L649.137248,386.385142 C631.404833,377.634378 609.993792,382.131823 597.281576,397.278926 L439.778971,584.940923 C430.959328,595.448384 427.689718,609.545999 430.981982,622.873487 L530.32126,1024.99969 L530.32126,1024.99717 Z" id="Shape" opacity="0.711"></path>
                    <path d="M550.107564,1033.03443 C553.971191,1045.92275 563.756112,1056.1886 576.438123,1060.66465 L802.948642,1140.58176 C821.225992,1147.02969 841.534578,1140.15894 852.140047,1123.93719 L1144.71608,676.453988 C1146.02745,674.449391 1147.16388,672.336573 1148.11658,670.136928 C1157.35027,648.799861 1147.54521,624.004769 1126.21849,614.75317 L635.696355,401.999104 C617.916117,394.28776 597.175861,399.721438 585.460386,415.157968 L440.272307,606.490656 C432.142328,617.203233 429.621532,631.15991 433.486418,644.048223 L550.107564,1033.03443 Z" id="Shape" opacity="0.703"></path>
                    <path d="M569.829684,1039.97943 C574.231954,1052.41221 584.305073,1061.99224 596.935486,1065.7636 L822.599027,1133.12838 C840.803383,1138.56458 860.354346,1130.85827 869.956782,1114.46663 L1134.94249,662.1802 C1136.12926,660.15421 1137.14111,658.031326 1137.96669,655.834197 C1145.98088,634.500905 1135.18916,610.696157 1113.86621,602.667702 L623.267304,417.915076 C605.488324,411.220502 585.445284,417.535046 574.718998,433.213184 L441.747282,627.56598 C434.303191,638.444663 432.506038,652.230201 436.908308,664.660464 L569.829684,1039.97943 Z" id="Shape" opacity="0.695"></path>
                    <path d="M589.483844,1045.81327 C594.392036,1057.77164 604.711823,1066.66712 617.259174,1069.75015 L841.477945,1124.85832 C859.558967,1129.3004 878.327136,1120.81892 886.940383,1104.31277 L1124.67052,648.676539 C1125.73522,646.637966 1126.62373,644.50879 1127.32598,642.317953 C1134.14711,621.048838 1122.43667,598.265894 1101.17413,591.429123 L611.877783,434.12425 C594.150402,428.423795 574.833522,435.571386 565.086357,451.434506 L444.218996,648.144245 C437.457019,659.152541 436.359598,672.732963 441.267789,684.691334 L589.483844,1045.81327 Z" id="Shape" opacity="0.688"></path>
                    <path d="M609.009637,1050.56491 C614.388511,1062.03377 624.920987,1070.24595 637.351296,1072.65826 L859.557708,1115.82694 C877.471349,1119.30635 895.437846,1110.10131 903.074489,1093.52847 L1113.95556,635.949299 C1114.89945,633.900658 1115.66714,631.775257 1116.24857,629.594487 C1121.9018,608.449951 1109.34564,586.711462 1088.20392,581.043724 L601.515206,450.566225 C583.888506,445.841013 565.32044,453.765023 556.543587,469.761532 L447.647179,668.188958 C441.555988,679.287857 441.135645,692.635478 446.51452,704.103082 L609.009637,1050.56491 Z" id="Shape" opacity="0.68"></path>
                    <path d="M628.37434,1054.29222 C634.192434,1065.26025 644.896067,1072.79039 657.179131,1074.55715 L876.84461,1106.14245 C894.548079,1108.68941 911.69277,1098.81492 918.370427,1082.22445 L1102.84292,624.007286 C1103.66976,621.956129 1104.31915,619.839536 1104.7848,617.677642 C1109.30033,596.705504 1095.96264,576.029086 1074.99585,571.497665 L592.145594,467.13152 C574.664882,463.353868 556.869541,472.003962 549.046639,488.083524 L451.966388,687.62839 C446.535915,698.786433 446.766222,711.871053 452.583058,722.837823 L628.37434,1054.29474 L628.37434,1054.29222 Z" id="Shape" opacity="0.672"></path>
                    <path d="M647.513769,1056.99774 C653.735846,1067.45486 664.576657,1074.31303 676.686046,1075.4506 L893.298378,1095.81368 C910.748887,1097.45335 927.055409,1086.96225 932.795476,1070.40199 L1091.38543,612.849243 C1092.09523,610.803119 1092.62884,608.69911 1092.97997,606.561125 C1096.39053,585.814238 1082.34178,566.217508 1061.599,562.788426 L583.780274,483.820137 C566.484563,480.961101 549.483343,490.284428 542.599289,506.401741 L457.138867,706.462542 C452.360302,717.645753 453.21483,730.443463 459.436907,740.89933 L647.513769,1056.99774 Z" id="Shape" opacity="0.664"></path>
                    <path d="M666.382619,1058.71668 C672.977215,1068.65284 683.916189,1074.84406 695.822959,1075.3751 L908.901393,1084.89096 C926.062444,1085.65857 941.519472,1074.60371 946.342084,1058.11769 L1079.62339,602.476428 C1080.22119,600.437855 1080.64279,598.35398 1080.8819,596.244938 C1083.22651,575.771118 1068.53088,557.265403 1048.06246,554.907201 L576.400368,500.577965 C559.334964,498.612377 543.141707,508.556085 537.177626,524.663331 L463.116792,724.662472 C458.978809,735.83939 460.429872,748.323764 467.021951,758.26118 L666.382619,1058.71668 L666.382619,1058.71668 Z" id="Shape" opacity="0.656"></path>
                    <path d="M684.954461,1059.51072 C691.886337,1068.92087 702.893271,1074.45522 714.574767,1074.40363 L923.681342,1073.48124 C940.51518,1073.40574 955.113903,1061.84375 959.041715,1045.47351 L1067.61343,592.888842 C1068.09795,590.865369 1068.41006,588.804145 1068.54472,586.72782 C1069.85358,566.574888 1054.57526,549.16522 1034.4265,547.840147 L569.958052,517.306849 C553.156935,516.201993 537.785486,526.714488 532.721239,542.767623 L469.833463,742.174068 C466.318443,753.313235 468.34087,765.466655 475.272746,774.875552 L684.953202,1059.51072 L684.954461,1059.51072 Z" id="Shape" opacity="0.648"></path>
                    <path d="M703.171402,1059.39117 C710.410355,1068.26903 721.451269,1073.15783 732.884838,1072.545 L937.594177,1061.5883 C954.070598,1060.70744 967.804725,1048.68615 970.860388,1032.4732 L1055.38951,584.075158 C1055.76707,582.07182 1055.97346,580.039538 1056.00618,577.999707 C1056.31578,558.210445 1040.5265,541.901859 1020.73768,541.573422 L564.459619,534.005533 C547.960545,533.733723 533.419713,544.762153 529.236424,560.72091 L477.252383,759.003623 C474.348999,770.077354 476.912586,781.875912 484.151539,790.752514 L703.170144,1059.39117 L703.171402,1059.39117 Z" id="Shape" opacity="0.641"></path>
                    <path d="M720.998205,1058.39705 C728.511514,1066.73759 739.552427,1070.99342 750.711641,1069.84327 L950.63864,1049.26878 C966.724923,1047.61275 979.589418,1035.18752 981.80188,1019.16836 L1043.00073,576.035378 C1043.27383,574.055948 1043.37829,572.056385 1043.31033,570.058079 C1042.6622,550.672757 1026.42112,535.467769 1007.03754,536.098217 L559.883674,550.633748 C543.724398,551.158492 530.019217,562.65378 526.691715,578.475374 L485.328246,775.134778 C483.017621,786.114131 486.095938,797.53895 493.606729,805.882 L720.99443,1058.39705 L720.998205,1058.39705 Z" id="Shape" opacity="0.633"></path>
                    <path d="M738.397115,1056.56485 C746.14954,1064.36932 757.164025,1068.00352 768.03504,1066.34246 L962.81473,1036.57299 C978.478153,1034.1783 990.474277,1021.39695 991.868706,1005.61185 L1030.48736,568.748107 C1030.65978,566.797621 1030.66356,564.83455 1030.50372,562.881546 C1028.93562,543.936657 1012.30818,529.836525 993.362559,531.384331 L556.210082,567.134866 C540.415773,568.428479 527.553795,580.339032 525.058168,595.985712 L494.010711,790.54614 C492.279,801.403431 495.840585,812.439411 503.594269,820.243875 L738.398373,1056.5636 L738.397115,1056.56485 Z" id="Shape" opacity="0.625"></path>
                    <path d="M755.420988,1053.96756 C763.38736,1061.23344 774.343954,1064.2611 784.904116,1062.11179 L974.218095,1023.59911 C989.438522,1020.5035 1000.56627,1007.41385 1001.17162,991.894263 L1017.94756,562.217123 C1018.02307,560.296837 1017.93498,558.376551 1017.68328,556.472624 C1015.23673,538.002144 998.280818,524.996801 979.808399,527.422955 L553.422481,583.443452 C538.022086,585.466925 526.004568,597.744925 524.31313,613.182713 L503.283417,805.211284 C502.110485,815.923861 506.127651,826.555902 514.094024,833.823038 L755.420988,1053.96756 Z" id="Shape" opacity="0.617"></path>
                    <path d="M771.874756,1050.58882 C780.022354,1057.32114 790.890851,1059.75484 801.126318,1057.14497 L984.654923,1010.31063 C999.404668,1006.54808 1009.66908,993.196685 1009.51806,977.977854 L1005.30205,556.412222 C1005.28443,554.530946 1005.10572,552.654704 1004.76718,550.803629 C1001.4875,532.840275 984.266044,520.924688 966.300804,524.188922 L551.466755,599.587191 C536.490479,602.309064 525.314904,614.906692 524.402484,630.100355 L513.031841,819.151602 C512.397551,829.691781 516.840094,839.907298 524.987692,846.637107 L771.874756,1050.5863 L771.874756,1050.58882 Z" id="Shape" opacity="0.609"></path>
                    <path d="M787.852807,1046.45504 C796.150167,1052.6513 806.906658,1054.51244 816.798551,1051.46339 L994.24855,996.783064 C1008.50496,992.391323 1017.90855,978.831035 1017.02759,963.939383 L992.616262,551.371158 C992.506771,549.531408 992.241226,547.702984 991.820883,545.907278 C987.745826,528.483768 970.315453,517.650387 952.890115,521.708658 L550.331579,615.485546 C535.803332,618.870584 525.472218,631.734989 525.308612,646.649292 L523.269825,832.305433 C523.156559,842.65308 527.998049,852.436974 536.29541,858.630713 L787.849031,1046.4563 L787.852807,1046.45504 Z" id="Shape" opacity="0.602"></path>
                    <path d="M803.289698,1041.65181 C811.709134,1047.31703 822.328447,1048.62071 831.862923,1045.16269 L1002.98765,983.081838 C1016.73058,978.094884 1025.28216,964.372265 1023.70273,949.839251 L979.956903,547.032268 C979.761834,545.23782 979.415744,543.46099 978.916115,541.724427 C974.089727,524.86593 956.507075,515.099653 939.646808,519.911693 L549.986747,631.099508 C535.929183,635.111218 526.434979,648.200872 526.991241,662.808131 L533.925634,844.694171 C534.313255,854.83041 539.520972,864.173871 547.941667,869.84035 L803.28844,1041.65055 L803.289698,1041.65181 Z" id="Shape" opacity="0.594"></path>
                    <path d="M818.167811,1036.22065 C826.681635,1041.36112 837.137342,1042.12748 846.304333,1038.28439 L1010.88354,969.253516 C1024.09539,963.712875 1031.80754,949.868194 1029.56488,935.720243 L967.362987,543.38297 C967.083598,541.633824 966.658221,539.913621 966.088116,538.236202 C960.553186,521.967884 942.874888,513.25487 926.602345,518.775377 L550.394504,646.4102 C536.825243,651.013348 528.162914,664.282951 529.410098,678.554222 L544.945153,856.329139 C545.811009,866.232578 551.357265,875.126798 559.871089,880.267275 L818.167811,1036.21813 L818.167811,1036.22065 Z" id="Shape" opacity="0.586"></path>
                    <path d="M832.497213,1030.15401 C841.077738,1034.77603 851.349702,1035.02393 860.134106,1030.82095 L1017.96392,955.324523 C1030.62958,949.267947 1037.51111,935.347763 1034.63416,921.607528 L954.835773,540.448432 C954.480873,538.74962 953.979985,537.086044 953.34192,535.472803 C947.142497,519.816056 929.417633,512.136172 913.757986,518.321103 L551.527164,661.371063 C538.467599,666.527898 530.628336,679.932147 532.536238,693.83723 L556.306987,867.158745 C557.63094,876.807992 563.488049,885.247937 572.068574,889.869961 L832.497213,1030.15401 L832.497213,1030.15401 Z" id="Shape" opacity="0.578"></path>
                    <path d="M846.230081,1023.545 C854.850879,1027.65738 864.916447,1027.40571 873.31323,1022.86925 L1024.23634,941.355263 C1036.33944,934.817986 1042.40546,920.862567 1038.92945,907.551439 L942.44196,538.161958 C942.014066,536.515998 941.442702,534.911566 940.740454,533.362502 C933.919326,518.333686 916.202013,511.668055 901.169104,518.475883 L553.345712,675.965737 C540.810946,681.641025 533.783422,695.137135 536.318063,708.658413 L567.939401,877.22829 C569.701316,886.609503 575.840331,894.588881 584.461128,898.701262 L846.231339,1023.545 L846.230081,1023.545 Z" id="Shape" opacity="0.57"></path>
                    <path d="M859.355088,1016.43642 C867.990988,1020.04797 877.832541,1019.31811 885.834152,1014.47335 L1029.70331,927.388519 C1041.23756,920.408293 1046.50443,906.455391 1042.46083,893.593504 L930.201686,536.49964 C929.702057,534.910307 929.069026,533.366277 928.30511,531.883907 C920.905068,517.503157 903.241871,511.831644 888.854577,519.217068 L555.816168,690.170315 C543.822562,696.327561 537.589159,709.876523 540.72285,722.988828 L579.799605,886.546584 C581.971794,895.644661 588.365028,903.160956 597.003445,906.771244 L859.355088,1016.43642 Z" id="Shape" opacity="0.563"></path>
                    <path d="M871.855874,1008.80435 C880.480448,1011.92136 890.076591,1010.73471 897.676737,1005.60807 L1034.35099,913.419258 C1045.30381,906.032576 1049.78788,892.123717 1045.21194,879.729947 L918.121242,535.487903 C917.554912,533.955198 916.860214,532.474086 916.044699,531.060927 C908.108531,517.340826 890.549791,512.638265 876.823216,520.559758 L558.964962,703.968436 C547.521324,710.572407 542.075749,724.132694 545.770736,736.815892 L591.897668,895.079649 C594.462512,903.880749 601.079761,910.928927 609.705593,914.047189 L871.853357,1008.8031 L871.855874,1008.80435 Z" id="Shape" opacity="0.555"></path>
                    <path d="M883.815501,1000.76961 C892.411128,1003.40717 901.74676,1001.78386 908.940407,996.400517 L1038.35683,899.555701 C1048.72318,891.797797 1052.44334,877.968217 1047.36777,866.057664 L906.318929,535.057538 C905.692191,533.585235 904.939602,532.169559 904.071229,530.825611 C895.642984,517.776225 878.227714,514.018706 865.170666,522.429709 L562.700221,717.314799 C551.814104,724.327743 547.13622,737.864121 551.364816,750.100594 L604.163112,902.865237 C607.097959,911.356776 613.91657,917.938096 622.512197,920.575657 L883.816759,1000.76835 L883.815501,1000.76961 Z" id="Shape" opacity="0.547"></path>
                    <path d="M894.886619,992.26926 C903.423096,994.433671 912.480597,992.397614 919.258936,986.782729 L1041.28413,885.727379 C1051.05269,877.636005 1054.02906,863.922195 1048.49162,852.508701 L894.541787,535.22616 C893.857157,533.816776 893.054227,532.466536 892.138032,531.193057 C883.268049,518.828229 866.049106,515.989327 853.677947,524.850829 L566.97664,730.230797 C556.663146,737.619996 552.734075,751.092197 557.458524,762.864328 L616.470088,909.893281 C619.749766,918.060158 626.735759,924.173361 635.272237,926.340289 L894.887877,992.266743 L894.886619,992.26926 Z" id="Shape" opacity="0.539"></path>
                    <path d="M905.500897,983.458093 C913.960606,985.169488 922.727391,982.740817 929.092938,976.9183 L1043.73067,872.091589 C1052.9027,863.701979 1055.15795,850.135399 1049.18631,839.230291 L883.153524,535.935886 C882.416037,534.586904 881.564025,533.303358 880.608816,532.100348 C871.329817,520.425112 854.337406,518.472108 842.655911,527.741325 L571.770307,742.650993 C562.029435,750.377438 558.832818,763.754002 564.024174,775.049208 L628.890329,916.188949 C632.492187,924.028648 639.625425,929.673734 648.085133,931.385129 L905.500897,983.459351 L905.500897,983.458093 Z" id="Shape" opacity="0.531"></path>
                    <path d="M915.454458,974.290805 C923.816003,975.559251 932.280745,972.7581 938.229725,966.755634 L1045.43344,858.601771 C1054.00767,849.950418 1055.56067,836.565045 1049.19387,826.179647 L872.032066,537.196781 C871.245497,535.913235 870.349437,534.700158 869.356472,533.567617 C859.713764,522.588264 842.990674,521.494733 832.003877,531.126363 L577.1001,754.579164 C567.938142,762.610136 565.452584,775.853312 571.076868,786.657751 L641.382306,921.732107 C645.283689,929.232043 652.536485,934.416563 660.89803,935.682492 L915.454458,974.289547 L915.454458,974.290805 Z" id="Shape" opacity="0.523"></path>
                    <path d="M924.767437,964.870583 C933.013198,965.709922 941.162055,962.561458 946.696984,956.399178 L1046.47171,845.329652 C1054.45066,836.449274 1055.32659,823.272792 1048.59607,813.414654 L861.20384,538.940894 C860.373223,537.722784 859.436891,536.577659 858.409947,535.518104 C848.442543,525.233376 832.022754,524.967858 821.730654,534.92415 L582.870371,766.007758 C574.289846,774.309282 572.492692,787.391385 578.515924,797.697506 L653.862956,926.593223 C658.041211,933.740814 665.390913,938.467284 673.634158,939.306622 L924.769954,964.869325 L924.767437,964.870583 Z" id="Shape" opacity="0.516"></path>
                    <path d="M933.41718,955.172259 C941.527023,955.597591 949.349925,952.126983 954.472063,945.828798 L1046.82157,832.272716 C1054.20022,823.196031 1054.42298,810.258641 1047.36273,800.932797 L850.682691,541.188358 C849.809285,540.035683 848.838973,538.961028 847.783083,537.971942 C837.536289,528.385614 821.452524,528.914133 811.860156,539.154818 L589.103774,776.919159 C581.104681,785.454741 579.974538,798.345571 586.365255,808.142048 L666.337313,930.728255 C670.772304,937.526017 678.189966,941.796953 686.299809,942.222285 L933.415922,955.171001 L933.41718,955.172259 Z" id="Shape" opacity="0.508"></path>
                    <path d="M941.433893,945.239877 C949.391456,945.265045 956.882111,941.489909 961.591458,935.084762 L1046.55854,819.461163 C1053.34569,810.224665 1052.94171,797.552792 1045.58194,788.76931 L840.491272,543.916523 C839.581369,542.830542 838.580853,541.825098 837.499793,540.908998 C827.008848,532.02107 811.292567,533.312167 802.396156,543.790685 L595.704662,787.297007 C588.288259,796.035188 587.801216,808.702026 594.527955,817.983827 L678.734901,934.157337 C683.403976,940.59646 690.869461,944.419414 698.827023,944.44584 L941.433893,945.238619 L941.433893,945.239877 Z" id="Shape" opacity="0.5"></path>
                    <path d="M948.788629,935.166557 C956.57881,934.809177 963.72715,930.754681 968.027481,924.256414 L1045.65493,806.946588 C1051.85184,797.580477 1050.84755,785.196773 1043.22223,776.950618 L830.638393,547.044852 C829.69451,546.025565 828.667565,545.088073 827.567627,544.243701 C816.872803,536.047882 801.554212,538.067579 793.352498,548.75373 L602.698206,797.145078 C595.861976,806.054398 595.995378,818.47837 603.025419,827.237943 L691.060754,936.953454 C695.937483,943.031423 703.428138,946.413944 711.215802,946.057823 L948.789888,935.166557 L948.788629,935.166557 Z" id="Shape" opacity="0.492"></path>
                    <path d="M955.521661,924.929647 C963.128099,924.206079 969.929091,919.893616 973.82544,913.327397 L1044.19758,794.727732 C1049.81431,785.262209 1048.2374,773.191841 1040.378,765.488048 L821.147964,550.599772 C820.176394,549.647179 819.125537,548.780156 818.006721,548.007512 C807.145775,540.500025 792.251301,543.213089 784.737993,554.065346 L609.993792,806.454562 C603.728926,815.502304 604.456345,827.653208 611.755707,835.888037 L703.244396,939.082631 C708.308642,944.79567 715.801815,947.746567 723.408253,947.023 L955.521661,924.929647 Z" id="Shape" opacity="0.484"></path>
                    <path d="M961.604043,914.564383 C969.011636,913.492244 975.460245,908.945722 978.958904,902.332943 L1042.15502,782.829763 C1047.19535,773.298804 1045.07098,761.563165 1037.01022,754.402991 L812.026279,554.554855 C811.029539,553.668957 809.958546,552.868628 808.827145,552.167711 C797.840347,545.344783 783.392645,548.71472 776.561449,559.695332 L617.60904,815.206585 C611.913021,824.361289 613.210545,836.217732 620.750282,843.922784 L715.289601,940.559967 C720.519971,945.908076 727.994266,948.4349 735.403118,947.360245 L961.604043,914.566899 L961.604043,914.564383 Z" id="Shape" opacity="0.477"></path>
                    <path d="M967.087374,904.165142 C974.283537,902.758275 980.377246,897.999087 983.481992,891.358623 L1039.61786,771.287915 C1044.09186,761.717945 1041.44899,750.333394 1033.21456,743.711806 L803.27963,558.820759 C802.260236,558.002813 801.177917,557.272953 800.032673,556.63873 C788.951487,550.489034 774.975726,554.481869 768.817834,565.558118 L625.455854,823.425056 C620.32113,832.659038 622.162331,844.200886 629.910981,851.381194 L727.139737,941.468517 C732.517353,946.451696 739.955151,948.565772 747.152573,947.158905 L967.086115,904.162625 L967.087374,904.165142 Z" id="Shape" opacity="0.469"></path>
                    <path d="M971.937674,893.706758 C978.914856,891.982779 984.648631,887.032318 987.367014,880.384304 L1036.55464,760.112254 C1040.47239,750.53096 1037.3387,739.516372 1028.96205,733.432112 L794.92312,563.439008 C793.887365,562.687756 792.789944,562.024591 791.640924,561.459579 C780.499329,555.973048 767.014388,560.553546 761.520989,571.690196 L633.556887,831.088581 C628.978425,840.372898 631.333098,851.581276 639.262974,858.235582 L738.798579,941.775561 C744.302046,946.39381 751.681953,948.105205 758.657877,946.381227 L971.937674,893.705499 L971.937674,893.706758 Z" id="Shape" opacity="0.461"></path>
                    <path d="M976.198991,883.214397 C982.944608,881.192183 988.318448,876.07184 990.661795,869.435152 L1033.05095,749.297749 C1036.42628,739.734072 1032.82819,729.105806 1024.33828,723.55384 L786.969332,568.371852 C785.918476,567.686036 784.812245,567.090823 783.659449,566.592505 C772.492685,561.760331 759.513664,566.890741 754.672174,578.052559 L641.824043,838.209746 C637.786741,847.516714 640.628458,858.371487 648.710613,864.502308 L750.204461,941.510043 C755.811126,945.763363 763.11678,947.08466 769.862397,945.062446 L976.198991,883.213139 L976.198991,883.214397 Z" id="Shape" opacity="0.453"></path>
                    <path d="M979.853705,872.72707 C986.360205,870.424237 991.372853,865.154148 993.344939,858.54766 L1029.07909,738.882149 C1031.92332,729.359999 1027.89231,719.131898 1019.31556,714.10845 L779.418269,573.597898 C778.358603,572.976259 777.247338,572.446482 776.0958,572.014858 C764.935328,567.824457 752.479849,573.468285 748.277682,584.623811 L650.277459,844.777224 C646.775024,854.076641 650.079873,864.56271 658.281586,870.17382 L761.368709,940.685805 C767.060953,944.579228 774.273477,945.517979 780.778719,943.215146 L979.854964,872.72707 L979.853705,872.72707 Z" id="Shape" opacity="0.445"></path>
                    <path d="M982.935798,862.332863 C989.190596,859.765771 993.84331,854.367327 995.455462,847.806141 L1024.67808,728.895657 C1027.00381,719.438942 1022.5663,709.622331 1013.9304,705.117335 L772.262377,579.030319 C771.19516,578.472857 770.081378,578.008515 768.934875,577.641069 C757.809641,574.073566 745.891545,580.195577 742.317375,591.317127 L658.89574,850.80234 C655.913069,860.072815 659.653363,870.176337 667.950724,875.274028 L772.286289,939.375833 C778.043975,942.914394 785.148267,943.488214 791.403065,940.923639 L982.935798,862.329088 L982.935798,862.332863 Z" id="Shape" opacity="0.438"></path>
                    <path d="M985.470438,851.988991 C991.4685,849.175257 995.762538,843.668592 997.026083,837.169067 L1019.92468,719.311846 C1021.74449,709.944476 1016.92943,700.549421 1008.26081,696.556586 L765.518019,584.705606 C764.448285,584.212322 763.335761,583.812157 762.195551,583.506371 C751.133242,580.549182 739.765116,587.117918 736.798806,598.171515 L667.587014,856.307746 C665.115299,865.524111 669.260833,875.23376 677.627412,879.824325 L782.893016,937.581385 C788.69475,940.7676 795.676967,940.987816 801.676288,938.17534 L985.471697,851.988991 L985.470438,851.988991 Z" id="Shape" opacity="0.43"></path>
                    <path d="M987.443783,841.734464 C993.180074,838.692963 997.117954,833.096954 998.040443,826.675448 L1014.79499,710.159658 C1016.1265,700.904284 1010.96283,691.940853 1002.2854,688.448853 L759.194003,590.592301 C758.121752,590.160677 757.014262,589.822173 755.88412,589.578048 C744.917458,587.21733 734.105593,594.190005 731.735818,605.153 L676.373935,861.265758 C674.398074,870.405362 678.921161,879.708554 687.330529,883.799543 L793.193926,935.29617 C799.028381,938.135072 805.870903,938.014267 811.605936,934.974025 L987.445042,841.733206 L987.443783,841.734464 Z" id="Shape" opacity="0.422"></path>
                    <path d="M988.87471,831.596966 C994.340421,828.345316 997.923401,822.678837 998.519935,816.350451 L1009.31796,701.447904 C1010.17374,692.327176 1004.69041,683.802919 996.033118,680.802945 L753.279003,596.667753 C752.209269,596.296531 751.110589,596.017171 749.99429,595.833448 C739.145928,594.050325 728.901652,601.392964 727.109533,612.235154 L685.226299,865.693992 C683.731188,874.734184 688.6054,883.620853 697.031129,887.219816 L803.173915,932.55668 C809.019697,935.054561 815.708681,934.607837 821.17691,931.356186 L988.875968,831.596966 L988.87471,831.596966 Z" id="Shape" opacity="0.414"></path>
                    <path d="M989.77832,821.601665 C994.970935,818.157483 998.206566,812.440669 998.483438,806.217987 L1003.52503,693.187907 C1003.92524,684.220701 998.147416,676.143169 989.530394,673.622636 L747.786862,602.905535 C746.722162,602.593458 745.632292,602.373241 744.529837,602.247403 C733.832497,601.023001 724.158325,608.700369 722.927502,619.396587 L694.120194,869.594966 C693.09199,878.513095 698.289639,886.973174 706.707817,890.091436 L812.819141,929.385566 C818.65863,931.549977 825.185266,930.789916 830.379139,927.346992 L989.77832,821.601665 L989.77832,821.601665 Z" id="Shape" opacity="0.406"></path>
                    <path d="M990.17601,811.77247 C995.090494,808.152115 997.981293,802.402583 997.953605,796.300706 L997.443908,685.383443 C997.406153,676.589893 991.365302,668.961602 982.811205,666.910445 L742.712548,609.279223 C741.655399,609.023772 740.576855,608.861441 739.49076,608.790972 C728.964577,608.106414 719.87058,616.083276 719.178399,626.609613 L703.024156,872.974971 C702.449017,881.750903 707.941157,889.781875 716.329131,892.429503 L822.115759,925.805478 C827.935112,927.642711 834.283039,926.585673 839.198782,922.966576 L990.177268,811.768695 L990.17601,811.77247 Z" id="Shape" opacity="0.398"></path>
                    <path d="M990.109309,802.110639 C994.745662,798.331729 997.29918,792.565838 996.97826,786.594832 L991.153872,678.006827 C990.691999,669.402035 984.413289,662.230535 975.94603,660.633653 L738.049766,615.767423 C737.005202,615.569857 735.943019,615.461637 734.878319,615.445278 C724.542171,615.281689 716.02583,623.526585 715.854672,633.86039 L711.867711,875.890634 C711.726757,884.506752 717.48696,892.101067 725.822076,894.288129 L831.02098,921.871787 C836.805095,923.39065 842.966763,922.051735 847.603116,918.272824 L990.110567,802.111898 L990.109309,802.110639 Z" id="Shape" opacity="0.391"></path>
                    <path d="M989.576959,792.655183 C993.931405,788.734075 996.152677,782.968185 995.552367,777.141892 L984.628495,671.08952 C983.765156,662.69236 977.276276,655.976394 968.913473,654.818685 L733.801034,622.343709 C732.769055,622.201513 731.724491,622.147402 730.679927,622.18012 C720.557726,622.519882 712.6203,630.997579 712.947513,641.118718 L720.674768,878.313013 C720.949123,886.750441 726.95096,893.904323 735.213083,895.640886 L839.556199,917.589525 C845.287456,918.795051 851.252797,917.18936 855.608502,913.268253 L989.576959,792.655183 Z" id="Shape" opacity="0.383"></path>
                    <path d="M988.59532,783.424976 C992.667861,779.37803 994.564436,773.629757 993.697322,767.956986 L977.903014,664.634038 C976.654571,656.459611 969.983207,650.200436 961.743737,649.470576 L729.955025,628.987948 C728.935632,628.899862 727.912463,628.896087 726.893069,628.980398 C717.004951,629.798344 709.642664,638.476123 710.451886,648.363203 L729.417641,880.257208 C730.092203,888.499587 736.309245,895.21052 744.476979,896.515459 L847.705055,912.981342 C853.373387,913.887375 859.132332,912.027491 863.207389,907.980546 L988.592803,783.426234 L988.59532,783.424976 Z" id="Shape" opacity="0.375"></path>
                    <path d="M987.185788,774.436378 C990.978939,770.281212 992.559629,764.565656 991.437037,759.056475 L971.003859,658.641639 C969.387931,650.701271 962.559252,644.897629 954.461995,644.581776 L726.507965,635.680006 C725.508707,635.642254 724.506933,635.687556 723.512709,635.818427 C713.876293,637.094423 707.089146,645.939566 708.356466,655.574971 L738.07997,881.733286 C739.137119,889.766774 745.542938,896.036016 753.597406,896.91814 L855.468807,908.074924 C861.056595,908.687755 866.606626,906.592554 870.39726,902.437388 L987.187047,774.435119 L987.185788,774.436378 Z" id="Shape" opacity="0.367"></path>
                    <path d="M985.37605,765.708264 C988.887295,761.45872 990.15839,755.789724 988.795423,750.454199 L963.956199,653.111066 C961.992923,645.419856 955.033359,640.06923 947.092157,640.149766 L723.454818,642.395972 C722.47318,642.406039 721.495317,642.500417 720.530039,642.67659 C711.159169,644.387985 704.944644,653.369033 706.648667,662.735145 L746.63155,882.760122 C748.053667,890.56962 754.623092,896.395913 762.545417,896.872838 L862.836129,902.900472 C868.33582,903.22765 873.661837,900.912233 877.170565,896.662689 L985.373533,765.709522 L985.37605,765.708264 Z" id="Shape" opacity="0.359"></path>
                    <path d="M983.183725,757.25196 C986.41558,752.925654 987.38715,747.318319 985.797651,742.161484 L956.788981,648.038542 C954.498492,640.606558 947.429438,635.703915 939.665685,636.163223 L720.788034,649.116972 C719.829049,649.173599 718.875098,649.312021 717.940024,649.532237 C708.853578,651.65638 703.202865,660.74439 705.320938,669.827367 L755.064829,883.349044 C756.826744,890.924483 763.534606,896.307826 771.312202,896.393396 L869.807019,897.473085 C875.203513,897.532229 880.302998,895.00918 883.534853,890.682874 L983.183725,757.25196 L983.183725,757.25196 Z" id="Shape" opacity="0.352"></path>
                    <path d="M980.71201,749.057399 C983.666993,744.668174 984.349105,739.132567 982.54566,734.161971 L949.619246,643.371215 C947.022939,636.208525 939.869564,631.752606 932.294589,632.576844 L718.556695,655.825388 C717.620363,655.926058 716.694099,656.108523 715.787971,656.366491 C706.999791,658.885765 701.906599,668.051794 704.413552,676.84031 L763.374775,883.573035 C765.46642,890.900574 772.288806,895.848518 779.902795,895.556574 L876.415458,891.860716 C881.698686,891.659376 886.571639,888.941278 889.525364,884.553312 L980.71201,749.058657 L980.71201,749.057399 Z" id="Shape" opacity="0.344"></path>
                    <path d="M977.826245,741.182465 C980.506872,736.745423 980.90582,731.296643 978.902271,726.519838 L942.287163,639.200949 C939.40014,632.317618 932.186357,628.300874 924.812743,629.471166 L716.629915,662.501087 C715.717495,662.6458 714.817659,662.868533 713.945512,663.16551 C705.466925,666.050973 700.924961,675.263562 703.801916,683.742517 L771.49972,883.342752 C773.895924,890.411064 780.810181,894.92361 788.246721,894.273028 L882.579643,886.018065 C887.739537,885.565048 892.37589,882.675811 895.055259,878.238768 L977.823728,741.181207 L977.826245,741.182465 Z" id="Shape" opacity="0.336"></path>
                    <path d="M974.625852,733.613318 C977.034642,729.142299 977.164268,723.792932 974.97446,719.214951 L934.908515,635.472373 C931.753429,628.875953 924.500632,625.29209 917.339707,626.789561 L715.058035,669.130225 C714.173302,669.313948 713.30493,669.574433 712.465503,669.907903 C704.306579,673.136902 700.305773,682.369626 703.530078,690.527694 L779.443439,882.727405 C782.1291,889.527682 789.113834,893.612379 796.357822,892.61826 L888.342364,880.005532 C893.368855,879.31594 897.766091,876.264372 900.17488,871.794612 L974.624594,733.61206 L974.625852,733.613318 Z" id="Shape" opacity="0.328"></path>
                    <path d="M971.139778,726.357507 C973.279246,721.868871 973.148361,716.627724 970.784878,712.2536 L927.507214,632.171646 C924.100426,625.867169 916.831269,622.708639 909.896875,624.518188 L713.830987,675.688894 C712.9752,675.912885 712.137032,676.208604 711.330326,676.574793 C703.50239,680.125937 700.032677,689.35111 703.577901,697.179483 L787.195864,881.738319 C790.153364,888.265529 797.184663,891.926152 804.227289,890.606113 L893.70236,873.839477 C898.587899,872.92086 902.744759,869.724579 904.885486,865.237201 L971.137261,726.353732 L971.139778,726.357507 Z" id="Shape" opacity="0.32"></path>
                    <path d="M967.326491,719.399932 C969.206705,714.905004 968.826635,709.783403 966.30458,705.61817 L920.085777,629.291217 C916.448681,623.288752 909.187075,620.548003 902.491799,622.652012 L712.989043,682.198486 C712.162202,682.456454 711.358014,682.787408 710.585288,683.183797 C703.099667,687.034435 700.147201,696.226891 703.99321,703.715502 L794.726792,880.401921 C797.932218,886.645996 804.98617,889.890096 811.812332,888.259237 L898.609293,867.533742 C903.345069,866.401201 907.257778,863.075306 909.136735,858.580378 L967.327749,719.401191 L967.326491,719.399932 Z" id="Shape" opacity="0.313"></path>
                    <path d="M963.270311,712.773311 C964.89379,708.284674 964.274602,703.292687 961.60656,699.338861 L912.684476,626.824795 C908.839726,621.128116 901.602032,618.79634 895.153423,621.174676 L712.471796,688.602375 C711.6739,688.896836 710.903691,689.256732 710.168721,689.684581 C703.027932,693.812062 700.581387,702.947891 704.70301,710.087931 L802.036222,878.729536 C805.471956,884.684183 812.529683,887.518052 819.129313,885.595249 L903.11602,861.122303 C907.694481,859.788422 911.361781,856.345498 912.982743,851.856861 L963.269052,712.774569 L963.270311,712.773311 Z" id="Shape" opacity="0.305"></path>
                    <path d="M958.988858,706.481418 C960.360634,702.011657 959.517432,697.156833 956.715987,693.416931 L905.322189,624.762313 C901.287404,619.372678 894.093757,617.43855 887.898109,620.07737 L712.264141,694.891751 C711.49645,695.21893 710.76148,695.609027 710.061748,696.062043 C703.2746,700.441201 701.320133,709.49901 705.694716,716.287962 L809.114085,876.743815 C812.763766,882.404001 819.802616,884.837706 826.166904,882.63806 L907.227574,854.634103 C911.644946,853.10769 915.068095,849.562837 916.439872,845.093077 L958.990116,706.480159 L958.988858,706.481418 Z" id="Shape" opacity="0.297"></path>
                    <path d="M954.504784,700.52677 C955.63241,696.087211 954.572744,691.378358 951.652999,687.852381 L898.022827,623.093703 C893.815626,618.013629 886.683647,616.467081 880.749769,619.346252 L712.352237,701.061581 C711.618525,701.417702 710.917535,701.835484 710.2543,702.311151 C703.823311,706.924367 702.347078,715.878989 706.957002,722.31182 L815.950315,874.467408 C819.79129,879.830617 826.798677,881.872966 832.918814,879.415352 L910.955283,848.091793 C915.202756,846.38669 918.380495,842.753751 919.509379,838.314191 L954.506043,700.52677 L954.504784,700.52677 Z" id="Shape" opacity="0.289"></path>
                    <path d="M949.842002,694.910627 C950.731769,690.512594 949.468225,685.956005 946.441507,682.646469 L890.800235,621.806382 C886.439495,617.037127 879.385543,615.866835 873.717211,618.969996 L712.723498,707.094248 C712.022507,707.479312 711.356755,707.922261 710.731275,708.419321 C704.661479,713.243944 703.645861,722.076504 708.463439,728.150697 L822.534843,871.920449 C826.553267,876.981648 833.506538,878.643966 839.378749,875.944744 L914.297887,841.515506 C918.371686,839.643039 921.307791,835.934597 922.197558,831.536564 L949.843261,694.914402 L949.842002,694.910627 Z" id="Shape" opacity="0.281"></path>
                    <path d="M944.96024,689.624178 C945.618441,685.277739 944.164861,680.878447 941.046272,677.786611 L883.649377,620.878957 C879.156494,616.424297 872.200706,615.616417 866.805471,618.924695 L713.424488,712.988493 C712.757478,713.397466 712.128222,713.863067 711.540498,714.38026 C705.834411,719.391124 705.265564,728.084003 710.269402,733.793266 L828.855083,869.106715 C833.027046,873.865903 839.907323,875.156999 845.521539,872.233786 L917.213856,834.905244 C921.107688,832.879254 923.8009,829.107893 924.46036,824.762712 L944.961498,689.62292 L944.96024,689.624178 Z" id="Shape" opacity="0.273"></path>
                    <path d="M939.935007,684.711468 C940.37171,680.429206 938.736905,676.197279 935.537771,673.323142 L876.601718,620.370572 C871.991793,616.225473 865.149271,615.771198 860.030908,619.266974 L714.378439,718.731733 C713.745408,719.163357 713.150133,719.65035 712.600164,720.182644 C707.259045,725.358355 707.120608,733.886386 712.29057,739.231979 L834.911036,866.001037 C839.221435,870.458214 846.013617,871.39193 851.364804,868.262343 L919.764857,828.271072 C923.477463,826.09911 925.931559,822.28119 926.367004,818.000186 L939.936265,684.712727 L939.935007,684.711468 Z" id="Shape" opacity="0.266"></path>
                    <path d="M934.793991,680.141037 C935.016747,675.930503 933.213301,671.868457 929.944949,669.210761 L869.683685,620.199432 C864.97308,616.367669 858.256408,616.251899 853.417435,619.917555 L715.572766,724.305092 C714.974973,724.758108 714.414936,725.26146 713.903981,725.810113 C708.92783,731.129279 709.202185,739.478621 714.516875,744.459283 L840.695151,862.681434 C845.125109,866.834083 851.815351,867.419229 856.899734,864.100885 L921.954665,821.655776 C925.483529,819.352943 927.701025,815.502304 927.920006,811.294286 L934.795249,680.139779 L934.793991,680.141037 Z" id="Shape" opacity="0.258"></path>
                    <path d="M929.558587,675.905335 C929.573689,671.777853 927.614188,667.889464 924.287944,665.448209 L862.910381,620.355471 C858.115455,616.834528 851.539737,617.043419 846.980153,620.861339 L717.001175,729.703536 C716.434846,730.175428 715.913822,730.695138 715.438105,731.256375 C710.825664,736.698863 711.495191,744.853156 716.935733,749.468888 L846.199877,859.161749 C850.735549,863.008612 857.310008,863.260288 862.126329,859.770804 L923.797125,815.080747 C927.139729,812.659627 929.123142,808.786338 929.136986,804.657598 L929.558587,675.905335 L929.558587,675.905335 Z" id="Shape" opacity="0.25"></path>
                    <path d="M924.184746,672.006878 C924.001004,667.967483 921.898032,664.259041 918.527741,662.027936 L856.26922,620.823588 C851.411369,617.608431 844.987931,618.130658 840.711512,622.084483 L718.695131,734.918257 C718.166556,735.409025 717.680771,735.941319 717.242809,736.512623 C712.992819,742.059555 714.0399,750.004958 719.583639,754.259536 L851.412628,855.458341 C856.031362,859.006968 862.474936,858.936499 867.018159,855.290977 L925.246929,808.562346 C928.39824,806.033005 930.155121,802.148391 929.966344,798.107737 L924.186005,672.00562 L924.184746,672.006878 Z" id="Shape" opacity="0.242"></path>
                    <path d="M918.754273,668.440633 C918.37672,664.496875 916.142863,660.96964 912.738592,658.948684 L849.791666,621.587424 C844.885991,618.675536 838.628677,619.493482 834.635422,623.568112 L720.589189,739.942963 C720.09837,740.446314 719.647823,740.99245 719.246358,741.572563 C715.355043,747.202549 716.762058,754.92396 722.387601,758.822416 L856.343472,851.592602 C861.033941,854.841735 867.332787,854.464222 871.600397,850.679019 L926.368262,802.114415 C929.329538,799.489437 930.861145,795.604822 930.483592,791.661064 L918.754273,668.440633 Z" id="Shape" opacity="0.234"></path>
                    <path d="M913.286044,665.231768 C912.727265,661.393713 910.371334,658.050202 906.943151,656.238136 L843.50163,622.693539 C838.561976,620.082403 832.479594,621.183484 828.768246,625.361301 L722.670766,744.781428 C722.211409,745.297363 721.797359,745.85105 721.432391,746.437454 C717.895976,752.131617 719.642789,759.617712 725.333774,763.157531 L860.983601,847.531814 C865.728186,850.482712 871.872235,849.809479 875.866748,845.903472 L927.168675,795.72311 C929.941174,793.011304 931.250025,789.138015 930.692505,785.298702 L913.283527,665.231768 L913.286044,665.231768 Z" id="Shape" opacity="0.227"></path>
                    <path d="M907.736012,662.352598 C907.006076,658.624022 904.539395,655.469267 901.101144,653.861059 L837.377717,624.067688 C832.421702,621.749755 826.526838,623.118871 823.098655,627.382257 L724.978874,749.407228 C724.554756,749.93323 724.177203,750.495725 723.848732,751.087163 C720.6647,756.82537 722.732433,764.061046 728.467466,767.252294 L865.325463,843.340155 C870.107803,846.000367 876.085728,845.047775 879.803369,841.034806 L927.614188,789.43625 C930.194134,786.652717 931.289039,782.80082 930.559103,779.073503 L907.736012,662.351339 L907.736012,662.352598 Z" id="Shape" opacity="0.219"></path>
                    <path d="M902.179688,659.789281 C901.286145,656.177734 898.725076,653.207961 895.28305,651.802352 L831.453908,625.690996 C826.495376,623.66249 820.794323,625.28454 817.645529,629.619654 L727.443038,753.827912 C727.0529,754.362723 726.713102,754.93151 726.419869,755.526723 C723.580669,761.292614 725.951703,768.274098 731.714423,771.118033 L869.382901,839.045309 C874.187894,841.414836 879.98837,840.196725 883.431655,836.091895 L927.761433,783.267679 C930.152604,780.419968 931.038595,776.598272 930.146311,772.986726 L902.182205,659.789281 L902.179688,659.789281 Z" id="Shape" opacity="0.211"></path>
                    <path d="M896.635949,657.533008 C895.587609,654.042266 892.938444,651.262507 889.503969,650.050689 L825.735235,627.548363 C820.785513,625.801734 815.285821,627.661617 812.4139,632.055875 L730.046897,758.042222 C729.694514,758.583324 729.38492,759.157145 729.128184,759.753617 C726.627523,765.529574 729.281722,772.245541 735.058286,774.750972 L873.154657,834.654826 C877.969719,836.743735 883.58771,835.271432 886.759157,831.093615 L927.631807,777.222428 C929.831683,774.323124 930.513796,770.542954 929.469232,767.052212 L896.63469,657.533008 L896.635949,657.533008 Z" id="Shape" opacity="0.203"></path>
                    <path d="M891.068298,655.624048 C889.876488,652.26166 887.151812,649.6694 883.734956,648.648855 L820.2217,629.68509 C815.298407,628.216562 810.010145,630.301695 807.412579,634.733705 L732.838273,762.036315 C732.517353,762.582452 732.242998,763.156272 732.020241,763.751485 C729.851827,769.522409 732.771572,775.961533 738.539326,778.134752 L876.618078,830.138506 C881.425589,831.948054 886.847253,830.239176 889.74812,825.99844 L927.17245,771.296723 C929.186067,768.354634 929.671853,764.627317 928.481302,761.262412 L891.068298,655.621531 L891.068298,655.624048 Z" id="Shape" opacity="0.195"></path>
                    <path d="M885.543436,654.007031 C884.216966,650.772998 881.428106,648.369495 878.03642,647.538965 L814.934697,632.025674 C810.046642,630.825181 804.974844,633.116688 802.646599,637.57764 L735.744174,765.815226 C735.454717,766.366396 735.2156,766.941475 735.026823,767.534171 C733.181847,773.281186 736.348259,779.438433 742.09336,781.288249 L879.803369,825.563041 C884.59326,827.103296 889.813562,825.172944 892.447625,820.884389 L926.465167,765.520766 C928.290008,762.545959 928.587016,758.876527 927.260546,755.642494 L885.545953,654.005773 L885.543436,654.007031 Z" id="Shape" opacity="0.188"></path>
                    <path d="M880.073949,652.670633 C878.620369,649.572505 875.776135,647.355242 872.418429,646.702143 L809.865416,634.55124 C805.026443,633.61249 800.174884,636.099046 798.110927,640.575098 L738.746981,769.386505 C738.490244,769.940191 738.283849,770.514012 738.126535,771.102933 C736.598703,776.815972 739.989131,782.686308 745.702769,784.217754 L882.70927,820.947308 C887.470216,822.223304 892.484122,820.082802 894.853898,815.762789 L925.511216,759.903364 C927.15609,756.905906 927.269356,753.300651 925.817035,750.201265 L880.073949,652.670633 Z" id="Shape" opacity="0.18"></path>
                    <path d="M874.63089,651.658897 C873.061527,648.701707 870.173246,646.668167 866.858329,646.1925 L805.030218,637.308347 C800.252912,636.621273 795.629144,639.286519 793.82444,643.76383 L741.89074,772.724983 C741.667984,773.278669 741.493051,773.849973 741.3672,774.432603 C740.146444,780.092789 743.745785,785.669923 749.404049,786.893067 L885.308094,816.253556 C890.024992,817.272843 894.82621,814.938551 896.936733,810.599661 L924.267808,754.440742 C925.732714,751.429442 925.671047,747.89969 924.101685,744.939984 L874.629632,651.661413 L874.63089,651.658897 Z" id="Shape" opacity="0.172"></path>
                    <path d="M869.269635,650.908903 C867.593299,648.090135 864.669779,646.244094 861.403943,645.938308 L800.429104,640.217719 C795.724791,639.777286 791.327555,642.606121 789.779587,647.06959 L745.111269,775.853312 C744.919975,776.404482 744.776505,776.973269 744.680858,777.548348 C743.762145,783.141841 747.547745,788.423256 753.140567,789.346906 L887.642632,811.544704 C892.305413,812.31609 896.890168,809.801849 898.746471,805.456668 L922.815487,749.146743 C924.104202,746.131668 923.872636,742.682453 922.198816,739.863685 L869.269635,650.908903 L869.269635,650.908903 Z" id="Shape" opacity="0.164"></path>
                    <path d="M863.94991,650.443303 C862.175411,647.76799 859.22672,646.101897 856.021294,645.957183 L796.043194,643.279354 C791.420684,643.07298 787.25879,646.047787 785.958748,650.489863 L748.442546,778.741291 C748.281457,779.291202 748.168191,779.852439 748.102749,780.419968 C747.473493,785.931666 751.430251,790.91862 756.943786,791.554102 L889.704072,806.845918 C894.301411,807.374437 898.664668,804.696607 900.270527,800.357718 L921.116497,744.062894 C922.231538,741.052852 921.840141,737.689207 920.064382,735.015152 L863.94991,650.443303 L863.94991,650.443303 Z" id="Shape" opacity="0.156"></path>
                    <path d="M858.751003,650.245738 C856.88589,647.71388 853.924615,646.225218 850.780855,646.240319 L791.925347,646.51087 C787.394709,646.532262 783.465639,649.644233 782.40849,654.048558 L751.822906,781.427929 C751.693279,781.969032 751.608959,782.525235 751.571204,783.083955 C751.218821,788.507567 755.329117,793.188735 760.752039,793.546115 L891.482348,802.111898 C896.002918,802.408875 900.140901,799.58004 901.502609,795.260026 L919.216146,739.136342 C920.160029,736.141401 919.61887,732.869617 917.753757,730.340276 L858.751003,650.244479 L858.751003,650.245738 Z" id="Shape" opacity="0.148"></path>
                    <path d="M853.620055,650.312432 C851.673139,647.926546 848.705571,646.612799 845.632288,646.776388 L788.025223,649.864449 C783.595265,650.103541 779.904054,653.33254 779.082246,657.691564 L755.286327,783.869184 C755.185646,784.410286 755.129013,784.955164 755.120204,785.502559 C755.037142,790.821725 759.28084,795.204658 764.599306,795.292744 L892.998853,797.413112 C897.435103,797.488615 901.342778,794.522617 902.467887,790.232804 L917.10059,734.436298 C917.880866,731.458974 917.19372,728.28786 915.248062,725.901974 L853.618797,650.311173 L853.620055,650.312432 Z" id="Shape" opacity="0.141"></path>
                    <path d="M848.608666,650.599342 C846.591273,648.359428 843.624964,647.214304 840.629709,647.523865 L784.361698,653.312406 C780.04249,653.756614 776.587878,657.093834 775.992603,661.394972 L758.778694,786.109097 C758.703184,786.64265 758.678013,787.178719 758.695633,787.716047 C758.869307,792.923217 763.231305,797.006656 768.436505,796.839292 L894.282534,792.752078 C898.624395,792.609881 902.303022,789.523079 903.196564,785.274792 L914.837788,729.927527 C915.456975,726.979146 914.630134,723.909961 912.612741,721.668789 L848.612441,650.598084 L848.608666,650.599342 Z" id="Shape" opacity="0.133"></path>
                    <path d="M843.78857,651.09766 C841.706994,649.001201 838.749494,648.024699 835.832266,648.470165 L780.990148,656.843416 C776.784206,657.48519 773.564936,660.91553 773.191158,665.15249 L762.337762,788.156479 C762.289939,788.679965 762.287422,789.207226 762.33147,789.729453 C762.753071,794.815819 767.218267,798.601022 772.303908,798.185757 L895.386248,788.14012 C899.627428,787.794066 903.079523,784.597785 903.749051,780.397317 L912.483114,725.617581 C912.946246,722.703176 911.989778,719.740953 909.908202,717.645753 L843.783536,651.095143 L843.78857,651.09766 Z" id="Shape" opacity="0.125"></path>
                    <path d="M839.025107,651.848912 C836.888156,649.898425 833.949534,649.088029 831.116627,649.663108 L777.813667,660.497748 C773.733576,661.325761 770.750906,664.83412 770.589816,668.995578 L765.889279,789.971061 C765.870402,790.483221 765.894313,790.999157 765.961014,791.5088 C766.617957,796.463036 771.166214,799.95252 776.119712,799.301938 L896.169041,783.552072 C900.296956,783.010969 903.518743,779.717793 903.971807,775.578986 L909.88429,721.515267 C910.198918,718.643647 909.120374,715.792161 906.983423,713.842933 L839.023849,651.847653 L839.025107,651.848912 Z" id="Shape" opacity="0.117"></path>
                    <path d="M834.427768,652.80528 C832.245511,651.002023 829.333317,650.351441 826.592281,651.049841 L774.915318,664.237649 C770.963594,665.244352 768.215007,668.821922 768.255279,672.899069 L769.438279,791.598145 C769.443313,792.101496 769.492395,792.604848 769.581749,793.100649 C770.462707,797.912689 775.075148,801.103937 779.888952,800.230622 L896.691323,778.996742 C900.703455,778.266882 903.696193,774.894428 903.940344,770.823573 L907.144512,717.594159 C907.314411,714.767841 906.125119,712.032126 903.941603,710.228869 L834.429027,652.80528 L834.427768,652.80528 Z" id="Shape" opacity="0.109"></path>
                    <path d="M829.944953,653.97683 C827.724941,652.318287 824.845468,651.819969 822.197562,652.636657 L772.229656,668.034177 C768.416369,669.208244 765.899347,672.837408 766.134689,676.821435 L773.008674,792.994945 C773.03762,793.489488 773.109355,793.978997 773.222621,794.458439 C774.311232,799.12199 778.976531,802.021295 783.640572,800.935314 L896.994624,774.530756 C900.883422,773.624724 903.64837,770.1818 903.692418,766.190223 L904.266299,713.912143 C904.296503,711.141194 903.000237,708.522508 900.780224,706.865223 L829.944953,653.975572 L829.944953,653.97683 Z" id="Shape" opacity="0.102"></path>
                    <path d="M825.643364,655.325812 C823.393147,653.810724 820.555205,653.463412 818.004204,654.38832 L769.815832,671.888591 C766.140981,673.222472 763.855526,676.893162 764.275869,680.779035 L776.556415,794.221864 C776.606756,794.702565 776.701144,795.178232 776.833288,795.641315 C778.123261,800.148827 782.823798,802.758704 787.329266,801.471383 L897.056291,770.120139 C900.814204,769.046742 903.353878,765.545933 903.205374,761.638668 L901.269785,710.412592 C901.169104,707.703303 899.775933,705.205422 897.525716,703.690334 L825.643364,655.325812 Z" id="Shape" opacity="0.094"></path>
                    <path d="M821.468884,656.867326 C819.196014,655.495693 816.404637,655.290577 813.955576,656.318673 L767.610922,675.773205 C764.083317,677.253059 762.023135,680.951433 762.620927,684.730344 L780.10164,795.224792 C780.17715,795.690392 780.290416,796.150959 780.441438,796.598941 C781.918929,800.944123 786.639603,803.270865 790.98524,801.796045 L896.92163,765.819001 C900.546141,764.58579 902.859284,761.040938 902.528295,757.229309 L898.168815,707.162201 C897.938507,704.519606 896.45724,702.14127 894.185628,700.769637 L821.47266,656.867326 L821.468884,656.867326 Z" id="Shape" opacity="0.086"></path>
                    <path d="M817.430324,658.597596 C815.139834,657.364385 812.400057,657.297691 810.055451,658.418906 L765.60989,679.679212 C762.230789,681.294971 760.39588,685.008446 761.162313,688.674103 L783.634279,796.013795 C783.729926,796.466812 783.863328,796.909761 784.033227,797.340126 C785.688169,801.517943 790.416393,803.566583 794.594648,801.916849 L896.60071,761.633634 C900.084268,760.258226 902.175912,756.681914 901.667474,752.972214 L894.972198,704.163484 C894.619815,701.5901 893.055486,699.337603 890.766255,698.104392 L817.427807,658.598855 L817.430324,658.597596 Z" id="Shape" opacity="0.078"></path>
                    <path d="M813.619553,660.453705 C811.318996,659.358915 808.635851,659.421834 806.395702,660.632394 L763.876921,683.581444 C760.651358,685.32304 759.03543,689.042807 759.962953,692.591435 L787.175728,796.640468 C787.288994,797.077125 787.442532,797.504974 787.628792,797.917722 C789.449857,801.924399 794.175564,803.702488 798.182662,801.889165 L896.177851,757.556488 C899.519196,756.042658 901.393119,752.447471 900.71604,748.843474 L891.7932,701.361075 C891.323775,698.859419 889.686453,696.732759 887.388412,695.635453 L813.619553,660.453705 Z" id="Shape" opacity="0.07"></path>
                    <path d="M809.859124,662.50612 C807.562342,661.545977 804.943381,661.738509 802.81524,663.029606 L762.321402,687.547854 C759.253153,689.405221 757.853689,693.117437 758.927198,696.538969 L790.515815,797.060766 C790.6467,797.483581 790.817858,797.895071 791.01922,798.288944 C792.98753,802.114415 797.68555,803.624469 801.515198,801.658882 L895.252845,753.525901 C898.44317,751.887492 900.101887,748.282237 899.267494,744.792754 L888.274404,698.752457 C887.695489,696.330078 885.9965,694.330514 883.698459,693.370371 L809.859124,662.50612 L809.859124,662.50612 Z" id="Shape" opacity="0.063"></path>
                    <path d="M806.362981,664.64788 C804.072492,663.819867 801.522749,664.13572 799.504098,665.498544 L761.031428,691.458894 C758.119235,693.424482 756.928684,697.121598 758.143146,700.416033 L793.901209,797.336351 C794.05223,797.744066 794.235973,798.13668 794.454954,798.512935 C796.5617,802.159716 801.225741,803.408028 804.875422,801.30276 L894.349235,749.648837 C897.389796,747.893398 898.838342,744.288144 897.856704,740.918206 L884.878942,696.359021 C884.199347,694.018436 882.439949,692.145969 880.146942,691.317956 L806.36424,664.64788 L806.362981,664.64788 Z" id="Shape" opacity="0.055"></path>
                    <path d="M803.022894,666.934354 C800.741214,666.233437 798.263207,666.665061 796.352788,668.092063 L759.923939,695.354834 C757.171576,697.413542 756.186162,701.084232 757.532769,704.245279 L797.238779,797.419404 C797.404902,797.809501 797.603747,798.187015 797.834055,798.541878 C800.071686,802.006194 804.692938,803.004088 808.160134,800.769208 L893.305929,745.912711 C896.194211,744.05031 897.436361,740.458898 896.31377,737.212281 L881.450759,694.208452 C880.670483,691.955954 878.862003,690.206808 876.580323,689.507149 L803.022894,666.931838 L803.022894,666.934354 Z" id="Shape" opacity="0.047"></path>
                    <path d="M799.914373,669.300106 C797.649054,668.725027 795.245298,669.264871 793.445628,670.753533 L759.060601,699.205473 C756.468069,701.34975 755.678983,704.986464 757.147664,708.014123 L800.557472,797.371586 C800.738697,797.746583 800.952644,798.10522 801.195536,798.441208 C803.548951,801.723059 808.122379,802.476828 811.404575,800.127435 L892.195923,742.304939 C894.931925,740.34816 895.973972,736.775624 894.719237,733.653586 L878.079209,692.245381 C877.20832,690.077195 875.353275,688.457661 873.087956,687.878807 L799.913114,669.298848 L799.914373,669.300106 Z" id="Shape" opacity="0.039"></path>
                    <path d="M796.964424,671.800504 C794.721758,671.347488 792.399806,671.989261 790.712143,673.532033 L758.422536,703.043528 C755.99361,705.265824 755.395818,708.857237 756.977766,711.745215 L803.756606,797.146336 C803.952933,797.503715 804.178207,797.843478 804.432426,798.163106 C806.890297,801.254942 811.39199,801.772136 814.487926,799.318297 L890.791425,738.815455 C893.371372,736.77059 894.21835,733.228254 892.842798,730.238347 L874.565448,690.496235 C873.60898,688.41991 871.721214,686.924956 869.478548,686.47194 L796.963165,671.801763 L796.964424,671.800504 Z" id="Shape" opacity="0.031"></path>
                    <path d="M794.185632,674.352496 C791.970654,674.017767 789.733022,674.758952 788.157366,676.347026 L757.955628,706.814888 C755.686534,709.105137 755.275001,712.644956 756.961405,715.393255 L806.873936,796.802799 C807.082849,797.142561 807.319449,797.463447 807.582478,797.762941 C810.133479,800.669796 814.559661,800.959223 817.468079,798.411006 L889.278695,735.463135 C891.703845,733.338992 892.362046,729.834407 890.873228,726.975371 L871.064271,688.922003 C870.032292,686.938799 868.114322,685.567166 865.900602,685.231179 L794.183115,674.355013 L794.185632,674.352496 Z" id="Shape" opacity="0.023"></path>
                    <path d="M791.598134,677.01145 C789.420911,676.789975 787.268858,677.621764 785.80521,679.251364 L757.705185,710.540947 C755.597179,712.887823 755.364355,716.369757 757.143889,718.9746 L809.915757,796.293155 C810.135996,796.6153 810.381406,796.918569 810.653244,797.199188 C813.286048,799.917286 817.625393,799.986496 820.343776,797.355227 L887.613686,732.254269 C889.879005,730.060916 890.357239,726.60415 888.763965,723.87976 L867.545475,687.570505 C866.44302,685.68042 864.49988,684.432108 862.322656,684.210634 L791.599393,677.012708 L791.598134,677.01145 Z" id="Shape" opacity="0.016"></path>
                    <path d="M789.175501,679.761007 C787.036033,679.647753 784.972076,680.566369 783.619177,682.227429 L757.605762,714.206604 C755.658846,716.602557 755.599696,720.015279 757.463551,722.474151 L812.865706,795.627473 C813.096013,795.929484 813.351491,796.215136 813.629621,796.47562 C816.335419,799.004961 820.579117,798.866539 823.109982,796.163542 L885.855547,729.202701 C887.966069,726.950204 888.264336,723.550065 886.577932,720.965355 L864.050591,686.441739 C862.880176,684.647291 860.923192,683.522301 858.782466,683.409047 L789.174243,679.759749 L789.175501,679.761007 Z" id="Shape" opacity="0.008"></path>
                </g>
            </g>
        </g>
    </g>
</svg>