<?xml version="1.0" encoding="UTF-8" standalone="no"?>
<svg width="1920px" height="640px" viewBox="0 0 1920 640" version="1.1" xmlns="http://www.w3.org/2000/svg" xmlns:xlink="http://www.w3.org/1999/xlink">
    <!-- Generator: Sketch 47 (45396) - http://www.bohemiancoding.com/sketch -->
    <title>Page 1</title>
    <desc>Created with Sketch.</desc>
    <defs>
        <rect id="path-1" x="0" y="0" width="1920" height="640"></rect>
    </defs>
    <g id="Page-1" stroke="none" stroke-width="1" fill="none" fill-rule="evenodd">
        <g id="Artboard">
            <g id="Page-1">
                <mask id="mask-2" fill="white">
                    <use xlink:href="#path-1"></use>
                </mask>
                <g id="Mask"></g>
                <g opacity="0.25" mask="url(#mask-2)">
                    <g transform="translate(0.000000, -294.000000)">
                        <polygon id="Stroke-1" stroke="#FFFFFF" points="514 338.75 440.5 381 367 338.75 367 254.25 440.5 212 514 254.25"></polygon>
                        <path d="M440,296 L367,254" id="Stroke-2" stroke="#FFFFFF"></path>
                        <path d="M441,297 L441,382" id="Stroke-3" stroke="#FFFFFF"></path>
                        <path d="M514,254 L441,296" id="Stroke-4" stroke="#FFFFFF"></path>
                        <polygon id="Stroke-5" stroke="#FFFFFF" points="588 296.75 514.5 339 441 296.75 441 212.25 514.5 170 588 212.25"></polygon>
                        <path d="M514,254 L514,339" id="Stroke-7" stroke="#FFFFFF"></path>
                        <g id="Group-13" stroke="none" fill-rule="evenodd" transform="translate(0.000000, 250.000000)">
                            <polygon id="Stroke-9" stroke="#FFFFFF" points="146.895352 127.598722 73.4756338 169.956056 0.055915493 127.598722 0.055915493 42.8840556 73.4756338 0.526722222 146.895352 42.8840556"></polygon>
                            <path d="M73.4758451,85.2413889 L0.0561267606,42.8840556" id="Stroke-11" stroke="#FFFFFF"></path>
                        </g>
                        <path d="M73,335 L73,420" id="Stroke-14" stroke="#FFFFFF"></path>
                        <path d="M146,292 L73,334" id="Stroke-15" stroke="#FFFFFF"></path>
                        <polygon id="Stroke-27" stroke="#FFFFFF" points="441 296.75 367.5 339 294 296.75 294 212.25 367.5 170 441 212.25"></polygon>
                        <path d="M367,254 L367,339" id="Stroke-29" stroke="#FFFFFF"></path>
                        <polygon id="Stroke-39" stroke="#FFFFFF" points="368 338.75 294.5 381 221 338.75 221 254.25 294.5 212 368 254.25"></polygon>
                        <path d="M294,297 L221,255" id="Stroke-40" stroke="#FFFFFF"></path>
                        <path d="M294,297 L294,382" id="Stroke-41" stroke="#FFFFFF"></path>
                        <path d="M367,255 L294,297" id="Stroke-42" stroke="#FFFFFF"></path>
                        <polygon id="Stroke-43" stroke="#FFFFFF" points="514 508.75 440.5 551 367 508.75 367 424.25 440.5 382 514 424.25"></polygon>
                        <path d="M440,466 L367,424" id="Stroke-44" stroke="#FFFFFF"></path>
                        <path d="M441,466 L441,551" id="Stroke-45" stroke="#FFFFFF"></path>
                        <path d="M514,424 L441,466" id="Stroke-46" stroke="#FFFFFF"></path>
                        <polygon id="Stroke-47" stroke="#FFFFFF" points="588 550.75 514.5 593 441 550.75 441 466.25 514.5 424 588 466.25"></polygon>
                        <path d="M514,508 L441,466" id="Stroke-48" stroke="#FFFFFF"></path>
                        <path d="M514,509 L514,594" id="Stroke-49" stroke="#FFFFFF"></path>
                        <path d="M587,466 L514,508" id="Stroke-50" stroke="#FFFFFF"></path>
                        <polygon id="Stroke-51" stroke="#FFFFFF" points="809 338.75 735.5 381 662 338.75 662 254.25 735.5 212 809 254.25"></polygon>
                        <path d="M735,296 L662,254" id="Stroke-52" stroke="#FFFFFF"></path>
                        <path d="M735,297 L735,382" id="Stroke-53" stroke="#FFFFFF"></path>
                        <path d="M808,254 L735,296" id="Stroke-54" stroke="#FFFFFF"></path>
                        <polygon id="Stroke-55" stroke="#FFFFFF" points="294 633.75 220.5 676 147 633.75 147 549.25 220.5 507 294 549.25"></polygon>
                        <path d="M220,591 L147,549" id="Stroke-56" stroke="#FFFFFF"></path>
                        <path d="M221,592 L221,677" id="Stroke-57" stroke="#FFFFFF"></path>
                        <path d="M294,549 L221,591" id="Stroke-58" stroke="#FFFFFF"></path>
                        <polygon id="Stroke-59" stroke="#FFFFFF" points="368 675.75 294.5 718 221 675.75 221 591.25 294.5 549 368 591.25"></polygon>
                        <path d="M294,634 L221,592" id="Stroke-60" stroke="#FFFFFF"></path>
                        <path d="M294,634 L294,719" id="Stroke-61" stroke="#FFFFFF"></path>
                        <path d="M367,592 L294,634" id="Stroke-62" stroke="#FFFFFF"></path>
                        <polygon id="Stroke-63" stroke="#FFFFFF" points="956 338.75 882.5 381 809 338.75 809 254.25 882.5 212 956 254.25"></polygon>
                        <path d="M882,297 L809,255" id="Stroke-65" stroke="#FFFFFF"></path>
                        <path d="M882,297 L882,382" id="Stroke-66" stroke="#FFFFFF"></path>
                        <g id="Group-73" stroke="none" fill-rule="evenodd" transform="translate(0.000000, 254.000000)">
                            <path d="M955.255343,0.921167702 L881.92403,43.2923478" id="Stroke-67" stroke="#FFFFFF"></path>
                            <polygon id="Stroke-69" stroke="#FFFFFF" points="146.71727 295.733478 73.3859568 338.104658 0.0546440529 295.733478 0.0546440529 210.991118 73.3859568 168.619938 146.71727 210.991118"></polygon>
                            <path d="M73.3861678,253.362298 L0.0548550661,210.991118" id="Stroke-71" stroke="#FFFFFF"></path>
                        </g>
                        <path d="M73,507 L73,592" id="Stroke-74" stroke="#FFFFFF"></path>
                        <path d="M146,465 L73,507" id="Stroke-75" stroke="#FFFFFF"></path>
                        <polygon id="Stroke-76" stroke="#FFFFFF" points="661 508.75 587.5 551 514 508.75 514 424.25 587.5 382 661 424.25"></polygon>
                        <path d="M587,466 L514,424" id="Stroke-77" stroke="#FFFFFF"></path>
                        <path d="M587,466 L587,551" id="Stroke-78" stroke="#FFFFFF"></path>
                        <path d="M660,424 L587,466" id="Stroke-79" stroke="#FFFFFF"></path>
                        <polygon id="Stroke-84" stroke="#FFFFFF" points="734 381.75 660.5 424 587 381.75 587 297.25 660.5 255 734 297.25"></polygon>
                        <path d="M660,339 L587,297" id="Stroke-85" stroke="#FFFFFF"></path>
                        <path d="M661,339 L661,424" id="Stroke-86" stroke="#FFFFFF"></path>
                        <path d="M734,297 L661,339" id="Stroke-87" stroke="#FFFFFF"></path>
                        <polygon id="Stroke-88" stroke="#FFFFFF" points="882 296.75 808.5 339 735 296.75 735 212.25 808.5 170 882 212.25"></polygon>
                        <path d="M809,254 L809,339" id="Stroke-90" stroke="#FFFFFF"></path>
                        <polygon id="Stroke-97" stroke="#FFFFFF" points="220 760.75 146.5 803 73 760.75 73 676.25 146.5 634 220 676.25"></polygon>
                        <path d="M146,718 L73,676" id="Stroke-99" stroke="#FFFFFF"></path>
                        <path d="M147,719 L147,804" id="Stroke-100" stroke="#FFFFFF"></path>
                        <path d="M220,676 L147,718" id="Stroke-102" stroke="#FFFFFF"></path>
                        <polygon id="Stroke-103" stroke="#FFFFFF" points="368 508.75 294.5 551 221 508.75 221 424.25 294.5 382 368 424.25"></polygon>
                        <path d="M294,466 L221,424" id="Stroke-104" stroke="#FFFFFF"></path>
                        <path d="M294,466 L294,551" id="Stroke-105" stroke="#FFFFFF"></path>
                        <path d="M367,424 L294,466" id="Stroke-106" stroke="#FFFFFF"></path>
                        <polygon id="Stroke-107" stroke="#FFFFFF" points="294 381.75 220.5 424 147 381.75 147 297.25 220.5 255 294 297.25"></polygon>
                        <path d="M220,339 L147,297" id="Stroke-108" stroke="#FFFFFF"></path>
                        <path d="M221,339 L221,424" id="Stroke-109" stroke="#FFFFFF"></path>
                        <path d="M294,297 L221,339" id="Stroke-110" stroke="#FFFFFF"></path>
                        <polygon id="Stroke-111" stroke="#FFFFFF" points="441 465.75 367.5 508 294 465.75 294 381.25 367.5 339 441 381.25"></polygon>
                        <path d="M367,424 L294,382" id="Stroke-112" stroke="#FFFFFF"></path>
                        <path d="M367,424 L367,509" id="Stroke-113" stroke="#FFFFFF"></path>
                        <path d="M440,382 L367,424" id="Stroke-114" stroke="#FFFFFF"></path>
                    </g>
                </g>
                <g opacity="0.3" mask="url(#mask-2)">
                    <g transform="translate(1149.000000, 66.000000)">
                        <polygon id="Stroke-1" stroke="#FFFFFF" points="877 467 809.5 506 742 467 742 389 809.5 350 877 389"></polygon>
                        <path d="M809,428 L742,389" id="Stroke-3" stroke="#FFFFFF"></path>
                        <polygon id="Stroke-7" stroke="#FFFFFF" points="539 502 471.5 541 404 502 404 424 471.5 385 539 424"></polygon>
                        <path d="M471,463 L404,424" id="Stroke-8" stroke="#FFFFFF"></path>
                        <path d="M472,463 L472,541" id="Stroke-9" stroke="#FFFFFF"></path>
                        <path d="M539,424 L472,463" id="Stroke-10" stroke="#FFFFFF"></path>
                        <polygon id="Stroke-11" stroke="#FFFFFF" points="539 351 471.5 390 404 351 404 273 471.5 234 539 273"></polygon>
                        <path d="M471,312 L404,273" id="Stroke-12" stroke="#FFFFFF"></path>
                        <path d="M472,311 L472,389" id="Stroke-13" stroke="#FFFFFF"></path>
                        <path d="M539,273 L472,312" id="Stroke-14" stroke="#FFFFFF"></path>
                        <polygon id="Stroke-15" stroke="#FFFFFF" points="675 351 607.5 390 540 351 540 273 607.5 234 675 273"></polygon>
                        <path d="M607,312 L540,273" id="Stroke-16" stroke="#FFFFFF"></path>
                        <path d="M607,311 L607,389" id="Stroke-17" stroke="#FFFFFF"></path>
                        <path d="M674,273 L607,312" id="Stroke-18" stroke="#FFFFFF"></path>
                        <polygon id="Stroke-19" stroke="#FFFFFF" points="809 428 741.5 467 674 428 674 350 741.5 311 809 350"></polygon>
                        <path d="M741,389 L674,350" id="Stroke-20" stroke="#FFFFFF"></path>
                        <path d="M742,389 L742,467" id="Stroke-21" stroke="#FFFFFF"></path>
                        <path d="M809,350 L742,389" id="Stroke-22" stroke="#FFFFFF"></path>
                        <polygon id="Stroke-23" stroke="#FFFFFF" points="742 234 674.5 273 607 234 607 156 674.5 117 742 156"></polygon>
                        <path d="M674,195 L607,156" id="Stroke-24" stroke="#FFFFFF"></path>
                        <path d="M674,195 L674,273" id="Stroke-25" stroke="#FFFFFF"></path>
                        <path d="M741,156 L674,195" id="Stroke-26" stroke="#FFFFFF"></path>
                        <polygon id="Stroke-27" stroke="#FFFFFF" points="809 351 741.5 390 674 351 674 273 741.5 234 809 273"></polygon>
                        <path d="M741,312 L674,273" id="Stroke-28" stroke="#FFFFFF"></path>
                        <path d="M742,311 L742,389" id="Stroke-29" stroke="#FFFFFF"></path>
                        <path d="M809,273 L742,312" id="Stroke-30" stroke="#FFFFFF"></path>
                        <g id="Group-35" stroke="none" fill-rule="evenodd" transform="translate(0.000000, 459.000000)">
                            <polygon id="Stroke-31" stroke="#FFFFFF" points="134.456 117.034968 67.25925 156.01613 0.0625 117.034968 0.0625 39.0726432 67.25925 0.0914810811 134.456 39.0726432"></polygon>
                            <path d="M67.25925,78.0540189 L0.0625,39.0728568" id="Stroke-33" stroke="#FFFFFF"></path>
                        </g>
                        <path d="M67,537 L67,615" id="Stroke-36" stroke="#FFFFFF"></path>
                        <path d="M134,498 L67,537" id="Stroke-37" stroke="#FFFFFF"></path>
                        <polygon id="Stroke-38" stroke="#FFFFFF" points="809 117 741.5 156 674 117 674 39 741.5 0 809 39"></polygon>
                        <path d="M741,78 L674,39" id="Stroke-40" stroke="#FFFFFF"></path>
                        <path d="M742,78 L742,156" id="Stroke-41" stroke="#FFFFFF"></path>
                        <path d="M809,39 L742,78" id="Stroke-42" stroke="#FFFFFF"></path>
                        <polygon id="Stroke-43" stroke="#FFFFFF" points="405 580 337.5 619 270 580 270 502 337.5 463 405 502"></polygon>
                        <path d="M337,541 L270,502" id="Stroke-45" stroke="#FFFFFF"></path>
                        <path d="M337,541 L337,619" id="Stroke-46" stroke="#FFFFFF"></path>
                        <path d="M404,502 L337,541" id="Stroke-48" stroke="#FFFFFF"></path>
                        <polygon id="Stroke-49" stroke="#FFFFFF" points="742 157 674.5 196 607 157 607 79 674.5 40 742 79"></polygon>
                        <path d="M674,118 L607,79" id="Stroke-50" stroke="#FFFFFF"></path>
                        <path d="M674,118 L674,196" id="Stroke-51" stroke="#FFFFFF"></path>
                        <path d="M741,79 L674,118" id="Stroke-52" stroke="#FFFFFF"></path>
                        <polygon id="Stroke-53" stroke="#FFFFFF" points="674 502 606.5 541 539 502 539 424 606.5 385 674 424"></polygon>
                        <path d="M606,463 L539,424" id="Stroke-54" stroke="#FFFFFF"></path>
                        <path d="M606,463 L606,541" id="Stroke-55" stroke="#FFFFFF"></path>
                        <path d="M673,424 L606,463" id="Stroke-56" stroke="#FFFFFF"></path>
                        <polygon id="Stroke-57" stroke="#FFFFFF" points="337 541 269.5 580 202 541 202 463 269.5 424 337 463"></polygon>
                        <path d="M269,502 L202,463" id="Stroke-58" stroke="#FFFFFF"></path>
                        <path d="M270,502 L270,580" id="Stroke-59" stroke="#FFFFFF"></path>
                        <path d="M337,463 L270,502" id="Stroke-60" stroke="#FFFFFF"></path>
                        <polygon id="Stroke-61" stroke="#FFFFFF" points="337 385 269.5 424 202 385 202 307 269.5 268 337 307"></polygon>
                        <path d="M269,346 L202,307" id="Stroke-62" stroke="#FFFFFF"></path>
                        <path d="M270,346 L270,424" id="Stroke-63" stroke="#FFFFFF"></path>
                        <path d="M337,307 L270,346" id="Stroke-64" stroke="#FFFFFF"></path>
                        <polygon id="Stroke-65" stroke="#FFFFFF" points="202 537 134.5 576 67 537 67 459 134.5 420 202 459"></polygon>
                        <path d="M134,498 L67,459" id="Stroke-66" stroke="#FFFFFF"></path>
                        <path d="M135,498 L135,576" id="Stroke-67" stroke="#FFFFFF"></path>
                        <path d="M202,459 L135,498" id="Stroke-68" stroke="#FFFFFF"></path>
                    </g>
                </g>
                <g id="bts_icon_font" mask="url(#mask-2)">
                    <g transform="translate(772.000000, -642.000000)"></g>
                </g>
            </g>
        </g>
    </g>
</svg>