<?xml version="1.0" encoding="UTF-8" standalone="no"?>
<svg width="1400px" height="640px" viewBox="0 0 1400 640" version="1.1" xmlns="http://www.w3.org/2000/svg" xmlns:xlink="http://www.w3.org/1999/xlink">
    <!-- Generator: Sketch 47 (45396) - http://www.bohemiancoding.com/sketch -->
    <title>Group</title>
    <desc>Created with Sketch.</desc>
    <defs>
        <rect id="path-1" x="0" y="0" width="1400" height="640"></rect>
    </defs>
    <g id="Page-1" stroke="none" stroke-width="1" fill="none" fill-rule="evenodd">
        <g id="Artboard" transform="translate(-260.000000, 0.000000)">
            <g id="Group" transform="translate(260.000000, 0.000000)">
                <mask id="mask-2" fill="white">
                    <use xlink:href="#path-1"></use>
                </mask>
                <g id="Mask"></g>
                <g id="darkgradient_BG_clear2" opacity="0.18" mask="url(#mask-2)" stroke-width="0.603773585" stroke="#FFFFFF">
                    <g transform="translate(585.000000, 323.000000)" id="Shape">
                        <polygon points="229.465875 77.2830189 184.780415 51.9245283 140.094955 77.2830189"></polygon>
                        <polygon points="184.79457 0 184.780415 51.6355597 229.465875 77.2830189"></polygon>
                        <polygon points="140.094955 77.2830189 184.667609 51.702027 184.780415 0"></polygon>
                        <polygon points="327.290801 77.2830189 282.59824 51.9245283 237.919881 77.2830189"></polygon>
                        <polygon points="282.633641 0 282.605341 51.6355597 327.290801 77.2830189"></polygon>
                        <polygon points="237.919881 77.2830189 282.49257 51.702027 282.605341 0"></polygon>
                        <polygon points="234.296736 77.2830189 233.852562 26.1915354 188.403561 1.20754717"></polygon>
                        <polygon points="277.774481 0 233.089021 26.0661202 233.816658 77.2830189"></polygon>
                        <polygon points="188.403561 0.575957458 233.259413 26.5660377 277.774481 0"></polygon>
                        <polygon points="332.121662 77.2830189 331.677627 26.1915354 286.228487 1.20754717"></polygon>
                        <polygon points="375.599407 0 330.913947 26.0661202 331.641583 77.2830189"></polygon>
                        <polygon points="286.228487 0.575957458 331.077265 26.5660377 375.599407 0"></polygon>
                        <polygon points="423.908012 77.2830189 379.222552 51.9245283 334.537092 77.2830189"></polygon>
                        <polygon points="379.250861 0 379.222552 51.6355597 423.908012 77.2830189"></polygon>
                        <polygon points="334.537092 77.2830189 379.123846 51.702027 379.222552 0"></polygon>
                        <polygon points="428.738872 77.2830189 428.294837 26.1915354 382.845697 1.20754717"></polygon>
                        <polygon points="472.216617 0 427.531157 26.0661202 428.258794 77.2830189"></polygon>
                        <polygon points="382.845697 0.575957458 427.694476 26.5660377 472.216617 0"></polygon>
                        <polygon points="520.525223 77.2830189 475.839763 51.9245283 431.154303 77.2830189"></polygon>
                        <polygon points="475.853917 0 475.839763 51.6355597 520.525223 77.2830189"></polygon>
                        <polygon points="431.154303 77.2830189 475.741057 51.702027 475.839763 0"></polygon>
                        <polygon points="525.356083 77.2830189 524.912048 26.1915354 479.462908 1.20754717"></polygon>
                        <polygon points="568.833828 0 524.148368 26.0661202 524.890272 77.2830189"></polygon>
                        <polygon points="479.462908 0.575957458 524.318761 26.5660377 568.833828 0"></polygon>
                        <polygon points="617.142433 77.2830189 572.456973 51.9245283 527.771513 77.2830189"></polygon>
                        <polygon points="572.471128 0 572.456973 51.6355597 617.142433 77.2830189"></polygon>
                        <polygon points="527.771513 77.2830189 572.344167 51.702027 572.456973 0"></polygon>
                        <polygon points="621.973294 77.2830189 621.543448 26.1915354 576.080119 1.20754717"></polygon>
                        <polygon points="665.451039 0 620.765579 26.0661202 621.493215 77.2830189"></polygon>
                        <polygon points="576.080119 0.575957458 620.935971 26.5660377 665.451039 0"></polygon>
                        <polygon points="713.759644 77.2830189 669.074184 51.9245283 624.388724 77.2830189"></polygon>
                        <polygon points="669.088338 0 669.074184 51.6355597 713.759644 77.2830189"></polygon>
                        <polygon points="624.388724 77.2830189 668.961378 51.702027 669.074184 0"></polygon>
                        <polygon points="718.590504 77.2830189 718.146469 26.1915354 672.697329 1.20754717"></polygon>
                        <polygon points="762.068249 0 717.382789 26.0661202 718.110426 77.2830189"></polygon>
                        <polygon points="672.697329 0.575957458 717.553182 26.5660377 762.068249 0"></polygon>
                        <polygon points="810.376855 77.2830189 765.691395 51.9245283 721.005935 77.2830189"></polygon>
                        <polygon points="765.705549 0 765.691395 51.6355597 810.376855 77.2830189"></polygon>
                        <polygon points="721.005935 77.2830189 765.578588 51.702027 765.691395 0"></polygon>
                        <polygon points="184.780415 158.188679 140.094955 132.830189 95.4094955 158.188679"></polygon>
                        <polygon points="140.10911 80.9056604 140.094955 132.527027 184.780415 158.188679"></polygon>
                        <polygon points="95.4094955 158.188679 139.982149 132.602982 140.094955 80.9056604"></polygon>
                        <polygon points="283.813056 158.188679 239.127596 132.830189 194.442136 158.188679"></polygon>
                        <polygon points="239.141751 80.9056604 239.127596 132.527027 283.813056 158.188679"></polygon>
                        <polygon points="193.234421 158.188679 237.807075 132.602982 237.919881 80.9056604"></polygon>
                        <polygon points="189.611276 158.188679 189.167102 107.106626 143.718101 82.1132075"></polygon>
                        <polygon points="233.089021 80.9056604 188.403561 106.971781 189.145465 158.188679"></polygon>
                        <polygon points="143.718101 81.4816178 188.573953 107.471698 233.089021 80.9056604"></polygon>
                        <polygon points="287.436202 158.188679 286.992167 107.106626 241.543027 82.1132075"></polygon>
                        <polygon points="332.121662 80.9056604 287.436202 106.971781 288.163839 158.188679"></polygon>
                        <polygon points="241.543027 81.4816178 286.391806 107.471698 330.913947 80.9056604"></polygon>
                        <polygon points="380.430267 158.188679 335.744807 132.830189 291.059347 158.188679"></polygon>
                        <polygon points="335.773116 80.9056604 335.744807 132.527027 380.430267 158.188679"></polygon>
                        <polygon points="289.851632 158.188679 334.424321 132.602982 334.537092 80.9056604"></polygon>
                        <polygon points="384.053412 158.188679 383.609377 107.106626 338.160237 82.1132075"></polygon>
                        <polygon points="428.738872 80.9056604 384.053412 106.971781 384.781049 158.188679"></polygon>
                        <polygon points="338.160237 81.4816178 383.009016 107.471698 427.531157 80.9056604"></polygon>
                        <polygon points="477.047478 158.188679 432.362018 132.830189 387.676558 158.188679"></polygon>
                        <polygon points="432.390327 80.9056604 432.362018 132.527027 477.047478 158.188679"></polygon>
                        <polygon points="386.468843 158.188679 431.055597 132.602982 431.154303 80.9056604"></polygon>
                        <polygon points="480.670623 158.188679 480.226588 107.106626 434.777448 82.1132075"></polygon>
                        <polygon points="524.148368 80.9056604 479.462908 106.971781 480.190545 158.188679"></polygon>
                        <polygon points="434.777448 81.4816178 479.626227 107.471698 524.148368 80.9056604"></polygon>
                        <polygon points="572.456973 158.188679 527.771513 132.830189 483.086053 158.188679"></polygon>
                        <polygon points="528.993383 80.9056604 528.979228 132.527027 573.664688 158.188679"></polygon>
                        <polygon points="483.086053 158.188679 527.672808 132.602982 527.771513 80.9056604"></polygon>
                        <polygon points="577.287834 158.188679 576.843799 107.106626 531.394659 82.1132075"></polygon>
                        <polygon points="620.765579 80.9056604 576.080119 106.971781 576.822023 158.188679"></polygon>
                        <polygon points="531.394659 81.4816178 576.250511 107.471698 620.765579 80.9056604"></polygon>
                        <polygon points="669.074184 158.188679 624.388724 132.830189 579.703264 158.188679"></polygon>
                        <polygon points="624.402878 80.9056604 624.388724 132.527027 669.074184 158.188679"></polygon>
                        <polygon points="579.703264 158.188679 624.275918 132.602982 624.388724 80.9056604"></polygon>
                        <polygon points="673.905045 158.188679 673.460871 107.106626 628.011869 82.1132075"></polygon>
                        <polygon points="717.382789 80.9056604 672.697329 106.971781 673.424966 158.188679"></polygon>
                        <polygon points="628.011869 81.4816178 672.867722 107.471698 717.382789 80.9056604"></polygon>
                        <polygon points="765.691395 158.188679 721.005935 132.830189 676.320475 158.188679"></polygon>
                        <polygon points="721.020089 80.9056604 721.005935 132.527027 765.691395 158.188679"></polygon>
                        <polygon points="676.320475 158.188679 720.893128 132.602982 721.005935 80.9056604"></polygon>
                        <polygon points="770.522255 158.188679 770.07822 107.106626 724.62908 82.1132075"></polygon>
                        <polygon points="814 80.9056604 769.31454 106.971781 770.042177 158.188679"></polygon>
                        <polygon points="724.62908 81.4816178 769.484933 107.471698 814 80.9056604"></polygon>
                        <polygon points="137.679525 239.09434 92.9940653 213.735849 48.3086053 239.09434"></polygon>
                        <polygon points="93.0082197 161.811321 92.9940653 213.437399 137.679525 239.09434"></polygon>
                        <polygon points="47.1008902 239.09434 91.6735437 213.508643 91.7863501 161.811321"></polygon>
                        <polygon points="235.504451 239.09434 190.826092 213.735849 146.133531 239.09434"></polygon>
                        <polygon points="190.833146 161.811321 190.818991 213.437399 235.504451 239.09434"></polygon>
                        <polygon points="144.925816 239.09434 189.49847 213.508643 189.611276 161.811321"></polygon>
                        <polygon points="141.302671 239.09434 140.858497 188.012286 95.4094955 163.018868"></polygon>
                        <polygon points="185.988131 161.811321 141.302671 187.863359 142.044575 239.09434"></polygon>
                        <polygon points="96.6172107 161.179731 141.473063 187.169811 185.988131 160.603774"></polygon>
                        <polygon points="239.127596 239.09434 238.683561 188.012286 193.234421 163.018868"></polygon>
                        <polygon points="283.813056 161.811321 239.127596 187.863359 239.855233 239.09434"></polygon>
                        <polygon points="194.442136 161.179731 239.290915 187.169811 283.813056 160.603774"></polygon>
                        <polygon points="332.121662 239.09434 287.436202 213.735849 242.750742 239.09434"></polygon>
                        <polygon points="287.464511 161.811321 287.436202 213.437399 332.121662 239.09434"></polygon>
                        <polygon points="241.543027 239.09434 286.115716 213.508643 286.228487 161.811321"></polygon>
                        <polygon points="335.744807 239.09434 335.300772 188.012286 289.851632 163.018868"></polygon>
                        <polygon points="380.430267 161.811321 335.744807 187.863359 336.472444 239.09434"></polygon>
                        <polygon points="291.059347 161.179731 335.908126 187.169811 380.430267 160.603774"></polygon>
                        <polygon points="428.738872 239.09434 384.053412 213.735849 339.367953 239.09434"></polygon>
                        <polygon points="384.081721 161.811321 384.053412 213.437399 428.738872 239.09434"></polygon>
                        <polygon points="338.160237 239.09434 382.746992 213.508643 382.845697 161.811321"></polygon>
                        <polygon points="432.362018 239.09434 431.917983 188.012286 386.468843 163.018868"></polygon>
                        <polygon points="477.047478 161.811321 432.362018 187.863359 433.089655 239.09434"></polygon>
                        <polygon points="387.676558 161.179731 432.525337 187.169811 477.047478 160.603774"></polygon>
                        <polygon points="525.356083 239.09434 480.670623 213.735849 435.985163 239.09434"></polygon>
                        <polygon points="480.684778 161.811321 480.670623 213.437399 525.356083 239.09434"></polygon>
                        <polygon points="434.777448 239.09434 479.350102 213.508643 479.462908 161.811321"></polygon>
                        <polygon points="528.979228 239.09434 528.549383 188.012286 483.086053 163.018868"></polygon>
                        <polygon points="573.664688 161.811321 528.979228 187.863359 529.721133 239.09434"></polygon>
                        <polygon points="484.293769 161.179731 529.149621 187.169811 573.664688 160.603774"></polygon>
                        <polygon points="621.973294 239.09434 577.287834 213.735849 532.602374 239.09434"></polygon>
                        <polygon points="577.301988 161.811321 577.287834 213.437399 621.973294 239.09434"></polygon>
                        <polygon points="531.394659 239.09434 575.967312 213.508643 576.080119 161.811321"></polygon>
                        <polygon points="625.596439 239.09434 625.152265 188.012286 579.703264 163.018868"></polygon>
                        <polygon points="670.281899 161.811321 625.596439 187.863359 626.324076 239.09434"></polygon>
                        <polygon points="580.910979 161.179731 625.766832 187.169811 670.281899 160.603774"></polygon>
                        <polygon points="718.590504 239.09434 673.905045 213.735849 629.219585 239.09434"></polygon>
                        <polygon points="673.919199 161.811321 673.905045 213.437399 718.590504 239.09434"></polygon>
                        <polygon points="628.011869 239.09434 672.584523 213.508643 672.697329 161.811321"></polygon>
                        <polygon points="722.21365 239.09434 721.769615 188.012286 676.320475 163.018868"></polygon>
                        <polygon points="766.89911 161.811321 722.21365 187.863359 722.941287 239.09434"></polygon>
                        <polygon points="677.52819 161.179731 722.384042 187.169811 766.89911 160.603774"></polygon>
                        <polygon points="89.3709199 320 44.6854599 294.641509 0 320"></polygon>
                        <polygon points="44.6996143 242.716981 44.6854599 294.343059 89.3709199 320"></polygon>
                        <polygon points="0 318.792453 44.5726535 293.211461 44.6854599 241.509434"></polygon>
                        <polygon points="187.195846 320 142.517487 294.641509 97.8249258 320"></polygon>
                        <polygon points="142.52454 242.716981 142.510386 294.343059 187.195846 320"></polygon>
                        <polygon points="97.8249258 318.792453 142.397579 293.211461 142.510386 241.509434"></polygon>
                        <polygon points="92.9940653 318.792453 92.5500302 267.710399 47.1008902 242.716981"></polygon>
                        <polygon points="137.679525 241.509434 92.9940653 267.561472 93.7359695 318.792453"></polygon>
                        <polygon points="48.3086053 242.085391 93.1644579 268.075472 137.679525 241.509434"></polygon>
                        <polygon points="190.818991 318.792453 190.374956 267.710399 144.925816 242.716981"></polygon>
                        <polygon points="235.504451 241.509434 190.818991 267.561472 191.546628 318.792453"></polygon>
                        <polygon points="146.133531 242.085391 190.98231 268.075472 235.504451 241.509434"></polygon>
                        <polygon points="283.813056 320 239.127596 294.641509 194.442136 320"></polygon>
                        <polygon points="239.155905 242.716981 239.127596 294.343059 283.813056 320"></polygon>
                        <polygon points="194.442136 318.792453 239.028891 293.211461 239.127596 241.509434"></polygon>
                        <polygon points="287.436202 318.792453 286.992167 267.710399 241.543027 242.716981"></polygon>
                        <polygon points="332.121662 241.509434 287.436202 267.561472 288.163839 318.792453"></polygon>
                        <polygon points="242.750742 242.085391 287.599521 268.075472 332.121662 241.509434"></polygon>
                        <polygon points="380.430267 320 335.744807 294.641509 291.059347 320"></polygon>
                        <polygon points="335.773116 242.716981 335.744807 294.343059 380.430267 320"></polygon>
                        <polygon points="291.059347 318.792453 335.646101 293.211461 335.744807 241.509434"></polygon>
                        <polygon points="384.053412 318.792453 383.609377 267.710399 338.160237 242.716981"></polygon>
                        <polygon points="428.738872 241.509434 384.053412 267.561472 384.781282 318.792453"></polygon>
                        <polygon points="339.367953 242.085391 384.216731 268.075472 428.738872 241.509434"></polygon>
                        <polygon points="477.047478 320 432.362018 294.641509 387.676558 320"></polygon>
                        <polygon points="432.376172 242.716981 432.362018 294.343059 477.047478 320"></polygon>
                        <polygon points="387.676558 318.792453 432.263312 293.211461 432.362018 241.509434"></polygon>
                        <polygon points="480.670623 318.792453 480.240778 267.710399 434.777448 242.716981"></polygon>
                        <polygon points="525.356083 241.509434 480.670623 267.561472 481.398492 318.792453"></polygon>
                        <polygon points="435.985163 242.085391 480.841016 268.075472 525.356083 241.509434"></polygon>
                        <polygon points="573.664688 320 528.979228 294.641509 484.293769 320"></polygon>
                        <polygon points="528.993383 242.716981 528.979228 294.343059 573.664688 320"></polygon>
                        <polygon points="484.293769 318.792453 528.866422 293.211461 528.979228 241.509434"></polygon>
                        <polygon points="577.287834 318.792453 576.84366 267.710399 531.394659 242.716981"></polygon>
                        <polygon points="621.973294 241.509434 577.287834 267.561472 578.015471 318.792453"></polygon>
                        <polygon points="532.602374 242.085391 577.458226 268.075472 621.973294 241.509434"></polygon>
                        <polygon points="670.281899 320 625.596439 294.641509 580.910979 320"></polygon>
                        <polygon points="625.610594 242.716981 625.596439 294.343059 670.281899 320"></polygon>
                        <polygon points="580.910979 318.792453 625.483633 293.211461 625.596439 241.509434"></polygon>
                        <polygon points="673.905045 318.792453 673.461009 267.710399 628.011869 242.716981"></polygon>
                        <polygon points="718.590504 241.509434 673.905045 267.561472 674.632681 318.792453"></polygon>
                        <polygon points="629.219585 242.085391 674.075437 268.075472 718.590504 241.509434"></polygon>
                    </g>
                </g>
                <g id="darkgradient_BG_clear2" opacity="0.18" mask="url(#mask-2)" stroke-width="0.5" stroke="#FFFFFF">
                    <g transform="translate(406.500000, 157.000000) scale(-1, 1) translate(-406.500000, -157.000000) translate(0.000000, -3.000000)" id="Shape">
                        <polygon points="229.258294 77.1084337 184.466232 52.0481928 139.674171 77.1084337"></polygon>
                        <polygon points="184.961903 0 184.947867 51.5189131 229.258294 77.1084337"></polygon>
                        <polygon points="139.674171 77.1084337 183.872737 51.5852302 183.984597 0"></polygon>
                        <polygon points="327.511848 77.1084337 282.712669 52.0481928 237.927725 77.1084337"></polygon>
                        <polygon points="282.266214 0 282.238152 51.5189131 326.548578 77.1084337"></polygon>
                        <polygon points="237.927725 77.1084337 282.126327 51.5852302 282.238152 0"></polygon>
                        <polygon points="234.074645 77.1084337 233.627143 25.970539 187.837678 0.963855422"></polygon>
                        <polygon points="277.421801 0 233.111374 26.0072359 233.832904 77.1084337"></polygon>
                        <polygon points="187.837678 0.585104646 232.800538 26.9879518 277.421801 0"></polygon>
                        <polygon points="332.328199 77.1084337 331.880838 25.970539 286.091232 0.963855422"></polygon>
                        <polygon points="374.712085 0 330.401659 26.0072359 331.123189 77.1084337"></polygon>
                        <polygon points="286.091232 0.585104646 331.047002 26.9879518 375.675355 0"></polygon>
                        <polygon points="423.838863 77.1084337 379.046801 52.0481928 334.254739 77.1084337"></polygon>
                        <polygon points="378.593237 0 378.565166 51.5189131 422.875592 77.1084337"></polygon>
                        <polygon points="334.254739 77.1084337 378.467289 51.5852302 378.565166 0"></polygon>
                        <polygon points="428.655213 77.1084337 428.207852 25.970539 382.418246 0.963855422"></polygon>
                        <polygon points="471.0391 0 426.728673 26.0072359 427.450203 77.1084337"></polygon>
                        <polygon points="382.418246 0.585104646 427.374017 26.9879518 472.00237 0"></polygon>
                        <polygon points="520.165877 77.1084337 475.373815 52.0481928 430.581754 77.1084337"></polygon>
                        <polygon points="474.906216 0 474.89218 51.5189131 519.202607 77.1084337"></polygon>
                        <polygon points="430.581754 77.1084337 474.794303 51.5852302 474.89218 0"></polygon>
                        <polygon points="524.982227 77.1084337 524.534866 25.970539 478.745261 0.963855422"></polygon>
                        <polygon points="567.366114 0 523.055687 26.0072359 523.791365 77.1084337"></polygon>
                        <polygon points="478.745261 0.585104646 523.708121 26.9879518 568.329384 0"></polygon>
                        <polygon points="616.492891 77.1084337 571.700829 52.0481928 526.908768 77.1084337"></polygon>
                        <polygon points="572.1965 0 572.182464 51.5189131 616.492891 77.1084337"></polygon>
                        <polygon points="526.908768 77.1084337 571.107335 51.5852302 571.219194 0"></polygon>
                        <polygon points="621.309242 77.1084337 620.876176 25.970539 575.072275 0.963855422"></polygon>
                        <polygon points="664.656398 0 620.345972 26.0072359 621.067501 77.1084337"></polygon>
                        <polygon points="575.072275 0.585104646 620.035136 26.9879518 664.656398 0"></polygon>
                        <polygon points="712.819905 77.1084337 668.027844 52.0481928 623.235782 77.1084337"></polygon>
                        <polygon points="668.523514 0 668.509479 51.5189131 712.819905 77.1084337"></polygon>
                        <polygon points="623.235782 77.1084337 667.434349 51.5852302 667.546209 0"></polygon>
                        <polygon points="717.636256 77.1084337 717.188895 25.970539 671.399289 0.963855422"></polygon>
                        <polygon points="760.983412 0 716.672986 26.0072359 717.394516 77.1084337"></polygon>
                        <polygon points="671.399289 0.585104646 716.36215 26.9879518 760.983412 0"></polygon>
                        <polygon points="810.11019 77.1084337 765.318128 52.0481928 720.526066 77.1084337"></polygon>
                        <polygon points="764.850529 0 764.836493 51.5189131 809.146919 77.1084337"></polygon>
                        <polygon points="720.526066 77.1084337 764.724633 51.5852302 764.836493 0"></polygon>
                        <polygon points="184.947867 158.072289 140.155806 133.012048 95.3637441 158.072289"></polygon>
                        <polygon points="139.688206 80.9638554 139.674171 132.468607 183.984597 158.072289"></polygon>
                        <polygon points="95.3637441 158.072289 139.562311 132.544391 139.674171 80.9638554"></polygon>
                        <polygon points="284.164692 158.072289 239.37263 133.012048 194.580569 158.072289"></polygon>
                        <polygon points="238.905031 80.9638554 238.890995 132.468607 283.201422 158.072289"></polygon>
                        <polygon points="192.654028 158.072289 236.852595 132.544391 236.964455 80.9638554"></polygon>
                        <polygon points="189.764218 158.072289 189.316717 106.943833 143.527251 81.9277108"></polygon>
                        <polygon points="232.148104 80.9638554 187.837678 106.971091 188.573355 158.072289"></polygon>
                        <polygon points="143.527251 81.5489601 188.490112 107.951807 233.111374 80.9638554"></polygon>
                        <polygon points="287.054502 158.072289 286.607141 106.943833 240.817536 81.9277108"></polygon>
                        <polygon points="331.364929 80.9638554 287.054502 106.971091 287.776032 158.072289"></polygon>
                        <polygon points="240.817536 81.5489601 285.773306 107.951807 330.401659 80.9638554"></polygon>
                        <polygon points="380.491706 158.072289 335.699645 133.012048 290.907583 158.072289"></polygon>
                        <polygon points="335.246081 80.9638554 335.218009 132.468607 379.528436 158.072289"></polygon>
                        <polygon points="289.944313 158.072289 334.142915 132.544391 334.254739 80.9638554"></polygon>
                        <polygon points="384.344787 158.072289 383.897425 106.943833 338.10782 81.9277108"></polygon>
                        <polygon points="427.691943 80.9638554 383.381517 106.971091 384.103047 158.072289"></polygon>
                        <polygon points="338.10782 81.5489601 383.06359 107.951807 427.691943 80.9638554"></polygon>
                        <polygon points="476.81872 158.072289 432.026659 133.012048 387.234597 158.072289"></polygon>
                        <polygon points="431.573095 80.9638554 431.545024 132.468607 475.85545 158.072289"></polygon>
                        <polygon points="386.271327 158.072289 430.483876 132.544391 430.581754 80.9638554"></polygon>
                        <polygon points="480.671801 158.072289 480.22444 106.943833 434.434834 81.9277108"></polygon>
                        <polygon points="523.055687 80.9638554 478.745261 106.971091 479.466791 158.072289"></polygon>
                        <polygon points="434.434834 81.5489601 479.390604 107.951807 524.018957 80.9638554"></polygon>
                        <polygon points="572.182464 158.072289 527.390403 133.012048 482.598341 158.072289"></polygon>
                        <polygon points="527.886074 80.9638554 527.872038 132.468607 572.182464 158.072289"></polygon>
                        <polygon points="482.598341 158.072289 526.810891 132.544391 526.908768 80.9638554"></polygon>
                        <polygon points="576.998815 158.072289 576.551454 106.943833 530.761848 81.9277108"></polygon>
                        <polygon points="619.382701 80.9638554 575.072275 106.971091 575.807952 158.072289"></polygon>
                        <polygon points="530.761848 81.5489601 575.724709 107.951807 620.345972 80.9638554"></polygon>
                        <polygon points="668.509479 158.072289 623.717417 133.012048 578.925355 158.072289"></polygon>
                        <polygon points="623.249818 80.9638554 623.235782 132.468607 667.546209 158.072289"></polygon>
                        <polygon points="578.925355 158.072289 623.123922 132.544391 623.235782 80.9638554"></polygon>
                        <polygon points="673.325829 158.072289 672.878328 106.943833 627.088863 81.9277108"></polygon>
                        <polygon points="715.709716 80.9638554 671.399289 106.971091 672.120819 158.072289"></polygon>
                        <polygon points="627.088863 81.5489601 672.051723 107.951807 716.672986 80.9638554"></polygon>
                        <polygon points="764.836493 158.072289 720.044431 133.012048 675.25237 158.072289"></polygon>
                        <polygon points="720.540102 80.9638554 720.526066 132.468607 764.836493 158.072289"></polygon>
                        <polygon points="675.25237 158.072289 719.450937 132.544391 719.562796 80.9638554"></polygon>
                        <polygon points="769.652844 158.072289 769.205482 106.943833 723.415877 81.9277108"></polygon>
                        <polygon points="813 80.9638554 768.689573 106.971091 769.411103 158.072289"></polygon>
                        <polygon points="723.415877 81.5489601 768.378737 107.951807 813 80.9638554"></polygon>
                        <polygon points="137.74763 239.036145 92.9555687 213.975904 48.1635071 239.036145"></polygon>
                        <polygon points="92.4879693 161.927711 92.4739336 213.437164 136.78436 239.036145"></polygon>
                        <polygon points="47.200237 239.036145 91.3988038 213.508247 91.5106635 161.927711"></polygon>
                        <polygon points="236.001185 239.036145 191.216241 213.975904 146.417062 239.036145"></polygon>
                        <polygon points="190.741524 161.927711 190.727488 213.437164 235.037915 239.036145"></polygon>
                        <polygon points="144.490521 239.036145 188.689088 213.508247 188.800948 161.927711"></polygon>
                        <polygon points="141.600711 239.036145 141.15321 187.907688 95.3637441 162.891566"></polygon>
                        <polygon points="185.911137 161.927711 141.600711 187.920896 142.336388 239.036145"></polygon>
                        <polygon points="96.3270142 161.54896 141.289875 187.951807 185.911137 160.963855"></polygon>
                        <polygon points="238.890995 239.036145 238.443634 187.907688 192.654028 162.891566"></polygon>
                        <polygon points="283.201422 161.927711 238.890995 187.920896 239.612525 239.036145"></polygon>
                        <polygon points="194.580569 161.54896 239.536339 187.951807 284.164692 160.963855"></polygon>
                        <polygon points="332.328199 239.036145 287.536137 213.975904 242.744076 239.036145"></polygon>
                        <polygon points="287.082574 161.927711 287.054502 213.437164 331.364929 239.036145"></polygon>
                        <polygon points="240.817536 239.036145 285.016138 213.508247 285.127962 161.927711"></polygon>
                        <polygon points="336.18128 239.036145 335.733918 187.907688 289.944313 162.891566"></polygon>
                        <polygon points="379.528436 161.927711 335.218009 187.920896 335.939539 239.036145"></polygon>
                        <polygon points="290.907583 161.54896 335.863353 187.951807 380.491706 160.963855"></polygon>
                        <polygon points="428.655213 239.036145 383.863152 213.975904 339.07109 239.036145"></polygon>
                        <polygon points="383.409588 161.927711 383.381517 213.437164 427.691943 239.036145"></polygon>
                        <polygon points="338.10782 239.036145 382.320369 213.508247 382.418246 161.927711"></polygon>
                        <polygon points="432.508294 239.036145 432.060932 187.907688 386.271327 162.891566"></polygon>
                        <polygon points="475.85545 161.927711 431.545024 187.920896 432.266554 239.036145"></polygon>
                        <polygon points="387.234597 161.54896 432.190367 187.951807 476.81872 160.963855"></polygon>
                        <polygon points="524.982227 239.036145 480.190166 213.975904 435.398104 239.036145"></polygon>
                        <polygon points="479.722566 161.927711 479.708531 213.437164 524.018957 239.036145"></polygon>
                        <polygon points="434.434834 239.036145 478.633401 213.508247 478.745261 161.927711"></polygon>
                        <polygon points="528.835308 239.036145 528.402242 187.907688 482.598341 162.891566"></polygon>
                        <polygon points="572.182464 161.927711 527.872038 187.920896 528.607715 239.036145"></polygon>
                        <polygon points="483.561611 161.54896 528.524472 187.951807 573.145735 160.963855"></polygon>
                        <polygon points="621.309242 239.036145 576.51718 213.975904 531.725118 239.036145"></polygon>
                        <polygon points="577.012851 161.927711 576.998815 213.437164 621.309242 239.036145"></polygon>
                        <polygon points="530.761848 239.036145 574.960415 213.508247 575.072275 161.927711"></polygon>
                        <polygon points="625.162322 239.036145 624.714821 187.907688 578.925355 162.891566"></polygon>
                        <polygon points="669.472749 161.927711 625.162322 187.920896 625.883852 239.036145"></polygon>
                        <polygon points="579.888626 161.54896 624.851486 187.951807 669.472749 160.963855"></polygon>
                        <polygon points="717.636256 239.036145 672.844194 213.975904 628.052133 239.036145"></polygon>
                        <polygon points="673.339865 161.927711 673.325829 213.437164 717.636256 239.036145"></polygon>
                        <polygon points="627.088863 239.036145 671.287429 213.508247 671.399289 161.927711"></polygon>
                        <polygon points="721.489336 239.036145 721.041975 187.907688 675.25237 162.891566"></polygon>
                        <polygon points="765.799763 161.927711 721.489336 187.920896 722.210866 239.036145"></polygon>
                        <polygon points="676.21564 161.54896 721.178501 187.951807 765.799763 160.963855"></polygon>
                        <polygon points="89.5841232 320 44.7920616 294.939759 0 320"></polygon>
                        <polygon points="44.3244622 242.891566 44.3104265 294.401019 88.6208531 320"></polygon>
                        <polygon points="0 319.036145 44.1985668 293.512941 44.3104265 241.927711"></polygon>
                        <polygon points="186.874408 320 142.089464 294.939759 97.2902844 320"></polygon>
                        <polygon points="142.578017 242.891566 142.563981 294.401019 186.874408 320"></polygon>
                        <polygon points="97.2902844 319.036145 141.488851 293.512941 141.600711 241.927711"></polygon>
                        <polygon points="93.4372038 319.036145 92.9898424 267.907688 47.200237 242.891566"></polygon>
                        <polygon points="136.78436 241.927711 92.4739336 267.920896 93.2096112 319.036145"></polygon>
                        <polygon points="48.1635071 242.512815 93.1263678 268.915663 137.74763 241.927711"></polygon>
                        <polygon points="190.727488 319.036145 190.280127 267.907688 144.490521 242.891566"></polygon>
                        <polygon points="235.037915 241.927711 190.727488 267.920896 191.449018 319.036145"></polygon>
                        <polygon points="146.417062 242.512815 191.372832 268.915663 236.001185 241.927711"></polygon>
                        <polygon points="284.164692 320 239.37263 294.939759 194.580569 320"></polygon>
                        <polygon points="238.919066 242.891566 238.890995 294.401019 283.201422 320"></polygon>
                        <polygon points="194.580569 319.036145 238.793118 293.512941 238.890995 241.927711"></polygon>
                        <polygon points="287.054502 319.036145 286.607141 267.907688 240.817536 242.891566"></polygon>
                        <polygon points="331.364929 241.927711 287.054502 267.920896 287.776032 319.036145"></polygon>
                        <polygon points="242.744076 242.512815 287.699846 268.915663 332.328199 241.927711"></polygon>
                        <polygon points="380.491706 320 335.699645 294.939759 290.907583 320"></polygon>
                        <polygon points="335.246081 242.891566 335.218009 294.401019 379.528436 320"></polygon>
                        <polygon points="290.907583 319.036145 335.120132 293.512941 335.218009 241.927711"></polygon>
                        <polygon points="384.344787 319.036145 383.897425 267.907688 338.10782 242.891566"></polygon>
                        <polygon points="427.691943 241.927711 383.381517 267.920896 384.103277 319.036145"></polygon>
                        <polygon points="339.07109 242.512815 384.02686 268.915663 428.655213 241.927711"></polygon>
                        <polygon points="476.81872 320 432.026659 294.939759 387.234597 320"></polygon>
                        <polygon points="431.559059 242.891566 431.545024 294.401019 475.85545 320"></polygon>
                        <polygon points="387.234597 319.036145 431.447146 293.512941 431.545024 241.927711"></polygon>
                        <polygon points="480.671801 319.036145 480.238735 267.907688 434.434834 242.891566"></polygon>
                        <polygon points="524.018957 241.927711 479.708531 267.920896 480.430291 319.036145"></polygon>
                        <polygon points="435.398104 242.512815 480.360965 268.915663 524.982227 241.927711"></polygon>
                        <polygon points="573.145735 320 528.353673 294.939759 483.561611 320"></polygon>
                        <polygon points="527.886074 242.891566 527.872038 294.401019 572.182464 320"></polygon>
                        <polygon points="483.561611 319.036145 527.760178 293.512941 527.872038 241.927711"></polygon>
                        <polygon points="576.998815 319.036145 576.551314 267.907688 530.761848 242.891566"></polygon>
                        <polygon points="621.309242 241.927711 576.998815 267.920896 577.720345 319.036145"></polygon>
                        <polygon points="531.725118 242.512815 576.687979 268.915663 621.309242 241.927711"></polygon>
                        <polygon points="669.472749 320 624.680687 294.939759 579.888626 320"></polygon>
                        <polygon points="625.176358 242.891566 625.162322 294.401019 669.472749 320"></polygon>
                        <polygon points="579.888626 319.036145 624.087192 293.512941 624.199052 241.927711"></polygon>
                        <polygon points="673.325829 319.036145 672.878468 267.907688 627.088863 242.891566"></polygon>
                        <polygon points="717.636256 241.927711 673.325829 267.920896 674.047359 319.036145"></polygon>
                        <polygon points="628.052133 242.512815 673.014993 268.915663 717.636256 241.927711"></polygon>
                    </g>
                </g>
            </g>
        </g>
    </g>
</svg>