<?xml version="1.0" encoding="UTF-8" standalone="no"?>
<svg width="819px" height="92px" viewBox="0 0 819 92" version="1.1" xmlns="http://www.w3.org/2000/svg" xmlns:xlink="http://www.w3.org/1999/xlink">
    <!-- Generator: Sketch 47.1 (45422) - http://www.bohemiancoding.com/sketch -->
    <title>Group</title>
    <desc>Created with Sketch.</desc>
    <defs></defs>
    <g id="Page-1" stroke="none" stroke-width="1" fill="none" fill-rule="evenodd">
        <g id="Apple-TV-Copy-3" transform="translate(-550.000000, -312.000000)" fill="#FFFFFF">
            <g id="Group-3" transform="translate(461.000000, 234.000000)">
                <g id="Group-6">
                    <g id="Group-9">
                        <g id="Group" transform="translate(89.000000, 78.000000)">
                            <path d="M0.727,4.868 L0.727,21.702 C0.727,25.236 1.715,27.934 3.729,29.834 C5.629,31.62 8.403,32.532 12.013,32.532 C15.585,32.532 18.359,31.62 20.335,29.796 C22.311,27.934 23.299,25.236 23.299,21.702 L23.299,4.868 L18.853,4.868 L18.853,21.778 C18.853,24.134 18.283,25.844 17.219,26.984 C16.117,28.086 14.369,28.656 12.013,28.656 C9.619,28.656 7.871,28.086 6.807,26.984 C5.705,25.844 5.173,24.134 5.173,21.778 L5.173,4.868 L0.727,4.868 Z M38.195,4.336 C35.269,4.336 32.875,4.982 30.975,6.312 C28.923,7.68 27.935,9.58 27.935,11.974 C27.935,14.368 28.961,16.192 31.051,17.446 C31.849,17.902 33.939,18.662 37.283,19.726 C40.285,20.638 42.033,21.246 42.565,21.512 C44.237,22.348 45.111,23.488 45.111,24.932 C45.111,26.072 44.503,26.946 43.363,27.63 C42.223,28.276 40.627,28.618 38.651,28.618 C36.409,28.618 34.775,28.2 33.711,27.44 C32.533,26.566 31.811,25.084 31.507,23.032 L27.099,23.032 C27.289,26.49 28.543,28.998 30.823,30.594 C32.685,31.886 35.307,32.532 38.651,32.532 C42.109,32.532 44.807,31.81 46.707,30.442 C48.607,29.036 49.557,27.098 49.557,24.666 C49.557,22.158 48.379,20.22 46.023,18.814 C44.959,18.206 42.603,17.294 38.917,16.154 C36.409,15.356 34.851,14.786 34.281,14.482 C32.989,13.798 32.381,12.848 32.381,11.708 C32.381,10.416 32.913,9.466 34.053,8.896 C34.965,8.402 36.257,8.174 37.967,8.174 C39.943,8.174 41.463,8.516 42.451,9.276 C43.439,9.998 44.161,11.214 44.541,12.886 L48.949,12.886 C48.683,9.922 47.581,7.718 45.681,6.312 C43.895,4.982 41.387,4.336 38.195,4.336 Z M53.357,4.868 L63.275,4.868 C67.683,4.868 70.989,6.084 73.269,8.516 C75.435,10.796 76.537,14.102 76.537,18.434 C76.537,22.728 75.435,26.034 73.269,28.352 C70.989,30.784 67.683,32 63.275,32 L53.357,32 L53.357,4.868 Z M57.803,8.668 L57.803,28.2 L62.439,28.2 C65.821,28.2 68.291,27.402 69.849,25.844 C71.369,24.248 72.129,21.778 72.129,18.434 C72.129,15.014 71.369,12.506 69.849,10.986 C68.291,9.428 65.821,8.668 62.439,8.668 L57.803,8.668 Z M78.627,4.868 L78.627,8.668 L87.519,8.668 L87.519,32 L91.965,32 L91.965,8.668 L100.857,8.668 L100.857,4.868 L78.627,4.868 Z M103.479,4.906 L103.479,8.668 L137.413,8.668 L137.413,4.906 L122.745,4.906 C122.099,3.31 121.415,1.828 120.731,0.498 L116.285,1.258 C117.045,2.398 117.729,3.614 118.337,4.906 L103.479,4.906 Z M126.811,8.896 C130.991,12.126 134.563,15.356 137.451,18.586 L134.525,21.55 C132.093,18.434 128.597,15.09 124.113,11.48 L126.811,8.896 Z M126.241,16.078 L129.889,17.712 C128.179,20.98 126.089,23.83 123.657,26.262 C127.533,28.884 132.321,30.898 137.945,32.304 L135.475,36.028 C129.623,34.394 124.645,32.038 120.579,28.998 C116.399,32.266 111.421,34.622 105.569,36.142 L103.099,32.494 C108.723,31.126 113.473,29.036 117.349,26.3 C114.841,23.944 112.713,21.246 111.041,18.244 L114.461,16.306 C115.981,19.118 117.957,21.588 120.427,23.754 C122.783,21.512 124.721,18.966 126.241,16.078 Z M113.777,8.934 L116.665,11.442 C113.777,15.242 110.167,18.51 105.911,21.322 L103.365,17.978 C107.469,15.394 110.965,12.392 113.777,8.934 Z M150.979,16.268 L146.495,16.268 L146.495,1.942 L170.549,1.942 L170.549,16.268 L155.615,16.268 C155.083,17.028 154.513,17.788 153.905,18.472 L173.437,18.472 C173.323,22.652 173.095,26.034 172.753,28.618 C172.373,31.164 171.765,32.95 170.967,33.976 C170.169,34.964 168.877,35.496 167.053,35.572 L161.619,35.572 L160.631,31.848 C162.189,31.962 163.709,32.038 165.153,32.038 C166.787,32.038 167.851,31.392 168.383,30.176 C168.915,28.884 169.257,26.148 169.409,21.968 L166.711,21.968 C163.443,28.96 158.275,33.634 151.283,35.914 L149.041,32.57 C155.197,30.67 159.719,27.136 162.607,21.968 L158.921,21.968 C156.261,25.996 152.043,29.188 146.267,31.506 L143.759,28.428 C148.623,26.718 152.233,24.552 154.589,21.968 L150.029,21.968 C148.205,23.26 146.191,24.438 143.949,25.502 L141.783,22.006 C145.849,20.486 148.927,18.548 150.979,16.268 Z M166.635,12.924 L166.635,10.644 L150.409,10.644 L150.409,12.924 L166.635,12.924 Z M150.409,7.528 L166.635,7.528 L166.635,5.286 L150.409,5.286 L150.409,7.528 Z M219.835,31.392 C222.305,31.392 223.559,30.024 223.559,27.288 L223.559,11.784 L211.171,11.784 L211.171,6.654 C216.491,6.122 221.165,5.362 225.193,4.374 L223.179,0.916 C214.743,2.74 204.483,3.69 192.361,3.69 L193.615,7.414 C198.479,7.414 202.963,7.262 207.143,6.996 L207.143,11.784 L194.717,11.784 L194.717,31.468 L198.669,31.468 L198.669,15.584 L207.143,15.584 L207.143,36.028 L211.171,36.028 L211.171,15.584 L219.607,15.584 L219.607,26.414 C219.607,27.174 219.227,27.592 218.505,27.592 L215.199,27.402 L216.225,31.392 L219.835,31.392 Z M257.835,31.392 C260.305,31.392 261.559,30.024 261.559,27.288 L261.559,11.784 L249.171,11.784 L249.171,6.654 C254.491,6.122 259.165,5.362 263.193,4.374 L261.179,0.916 C252.743,2.74 242.483,3.69 230.361,3.69 L231.615,7.414 C236.479,7.414 240.963,7.262 245.143,6.996 L245.143,11.784 L232.717,11.784 L232.717,31.468 L236.669,31.468 L236.669,15.584 L245.143,15.584 L245.143,36.028 L249.171,36.028 L249.171,15.584 L257.607,15.584 L257.607,26.414 C257.607,27.174 257.227,27.592 256.505,27.592 L253.199,27.402 L254.225,31.392 L257.835,31.392 Z M268.133,4.906 L268.133,8.668 L302.067,8.668 L302.067,4.906 L287.399,4.906 C286.753,3.31 286.069,1.828 285.385,0.498 L280.939,1.258 C281.699,2.398 282.383,3.614 282.991,4.906 L268.133,4.906 Z M291.465,8.896 C295.645,12.126 299.217,15.356 302.105,18.586 L299.179,21.55 C296.747,18.434 293.251,15.09 288.767,11.48 L291.465,8.896 Z M290.895,16.078 L294.543,17.712 C292.833,20.98 290.743,23.83 288.311,26.262 C292.187,28.884 296.975,30.898 302.599,32.304 L300.129,36.028 C294.277,34.394 289.299,32.038 285.233,28.998 C281.053,32.266 276.075,34.622 270.223,36.142 L267.753,32.494 C273.377,31.126 278.127,29.036 282.003,26.3 C279.495,23.944 277.367,21.246 275.695,18.244 L279.115,16.306 C280.635,19.118 282.611,21.588 285.081,23.754 C287.437,21.512 289.375,18.966 290.895,16.078 Z M278.431,8.934 L281.319,11.442 C278.431,15.242 274.821,18.51 270.565,21.322 L268.019,17.978 C272.123,15.394 275.619,12.392 278.431,8.934 Z M315.633,16.268 L311.149,16.268 L311.149,1.942 L335.203,1.942 L335.203,16.268 L320.269,16.268 C319.737,17.028 319.167,17.788 318.559,18.472 L338.091,18.472 C337.977,22.652 337.749,26.034 337.407,28.618 C337.027,31.164 336.419,32.95 335.621,33.976 C334.823,34.964 333.531,35.496 331.707,35.572 L326.273,35.572 L325.285,31.848 C326.843,31.962 328.363,32.038 329.807,32.038 C331.441,32.038 332.505,31.392 333.037,30.176 C333.569,28.884 333.911,26.148 334.063,21.968 L331.365,21.968 C328.097,28.96 322.929,33.634 315.937,35.914 L313.695,32.57 C319.851,30.67 324.373,27.136 327.261,21.968 L323.575,21.968 C320.915,25.996 316.697,29.188 310.921,31.506 L308.413,28.428 C313.277,26.718 316.887,24.552 319.243,21.968 L314.683,21.968 C312.859,23.26 310.845,24.438 308.603,25.502 L306.437,22.006 C310.503,20.486 313.581,18.548 315.633,16.268 Z M331.289,12.924 L331.289,10.644 L315.063,10.644 L315.063,12.924 L331.289,12.924 Z M315.063,7.528 L331.289,7.528 L331.289,5.286 L315.063,5.286 L315.063,7.528 Z M369.175,4.336 C364.843,4.336 361.537,5.742 359.257,8.63 C357.243,11.138 356.255,14.444 356.255,18.472 C356.255,22.576 357.205,25.844 359.143,28.276 C361.347,31.088 364.729,32.532 369.251,32.532 C372.177,32.532 374.685,31.696 376.775,30.024 C379.017,28.238 380.423,25.768 381.031,22.576 L376.699,22.576 C376.167,24.628 375.255,26.186 373.963,27.212 C372.747,28.124 371.151,28.618 369.213,28.618 C366.249,28.618 364.045,27.668 362.639,25.844 C361.347,24.134 360.701,21.664 360.701,18.472 C360.701,15.356 361.347,12.924 362.677,11.176 C364.121,9.2 366.249,8.25 369.099,8.25 C370.999,8.25 372.557,8.63 373.773,9.466 C375.027,10.302 375.863,11.594 376.319,13.38 L380.651,13.38 C380.233,10.644 379.055,8.44 377.079,6.844 C375.027,5.172 372.367,4.336 369.175,4.336 Z M394.369,4.336 C391.443,4.336 389.087,5.324 387.301,7.3 C385.553,9.162 384.679,11.594 384.641,14.634 L389.087,14.634 C389.163,12.506 389.619,10.872 390.455,9.808 C391.291,8.668 392.545,8.098 394.217,8.098 C395.775,8.098 396.953,8.44 397.751,9.162 C398.511,9.884 398.929,10.986 398.929,12.468 C398.929,13.988 398.321,15.432 397.143,16.762 C396.383,17.56 395.167,18.586 393.419,19.802 C390.265,21.968 388.175,23.64 387.187,24.78 C385.363,26.832 384.489,29.226 384.489,32 L403.413,32 L403.413,28.086 L390.037,28.086 C390.645,26.718 392.317,25.122 395.091,23.298 C397.751,21.512 399.651,20.068 400.715,18.928 C402.463,16.99 403.375,14.862 403.375,12.506 C403.375,10.074 402.539,8.136 400.867,6.616 C399.157,5.096 396.991,4.336 394.369,4.336 Z M419.791,4.336 C415.459,4.336 412.153,5.742 409.873,8.63 C407.859,11.138 406.871,14.444 406.871,18.472 C406.871,22.576 407.821,25.844 409.759,28.276 C411.963,31.088 415.345,32.532 419.867,32.532 C422.793,32.532 425.301,31.696 427.391,30.024 C429.633,28.238 431.039,25.768 431.647,22.576 L427.315,22.576 C426.783,24.628 425.871,26.186 424.579,27.212 C423.363,28.124 421.767,28.618 419.829,28.618 C416.865,28.618 414.661,27.668 413.255,25.844 C411.963,24.134 411.317,21.664 411.317,18.472 C411.317,15.356 411.963,12.924 413.293,11.176 C414.737,9.2 416.865,8.25 419.715,8.25 C421.615,8.25 423.173,8.63 424.389,9.466 C425.643,10.302 426.479,11.594 426.935,13.38 L431.267,13.38 C430.849,10.644 429.671,8.44 427.695,6.844 C425.643,5.172 422.983,4.336 419.791,4.336 Z M435.219,4.906 L435.219,8.668 L469.153,8.668 L469.153,4.906 L454.485,4.906 C453.839,3.31 453.155,1.828 452.471,0.498 L448.025,1.258 C448.785,2.398 449.469,3.614 450.077,4.906 L435.219,4.906 Z M458.551,8.896 C462.731,12.126 466.303,15.356 469.191,18.586 L466.265,21.55 C463.833,18.434 460.337,15.09 455.853,11.48 L458.551,8.896 Z M457.981,16.078 L461.629,17.712 C459.919,20.98 457.829,23.83 455.397,26.262 C459.273,28.884 464.061,30.898 469.685,32.304 L467.215,36.028 C461.363,34.394 456.385,32.038 452.319,28.998 C448.139,32.266 443.161,34.622 437.309,36.142 L434.839,32.494 C440.463,31.126 445.213,29.036 449.089,26.3 C446.581,23.944 444.453,21.246 442.781,18.244 L446.201,16.306 C447.721,19.118 449.697,21.588 452.167,23.754 C454.523,21.512 456.461,18.966 457.981,16.078 Z M445.517,8.934 L448.405,11.442 C445.517,15.242 441.907,18.51 437.651,21.322 L435.105,17.978 C439.209,15.394 442.705,12.392 445.517,8.934 Z M482.719,16.268 L478.235,16.268 L478.235,1.942 L502.289,1.942 L502.289,16.268 L487.355,16.268 C486.823,17.028 486.253,17.788 485.645,18.472 L505.177,18.472 C505.063,22.652 504.835,26.034 504.493,28.618 C504.113,31.164 503.505,32.95 502.707,33.976 C501.909,34.964 500.617,35.496 498.793,35.572 L493.359,35.572 L492.371,31.848 C493.929,31.962 495.449,32.038 496.893,32.038 C498.527,32.038 499.591,31.392 500.123,30.176 C500.655,28.884 500.997,26.148 501.149,21.968 L498.451,21.968 C495.183,28.96 490.015,33.634 483.023,35.914 L480.781,32.57 C486.937,30.67 491.459,27.136 494.347,21.968 L490.661,21.968 C488.001,25.996 483.783,29.188 478.007,31.506 L475.499,28.428 C480.363,26.718 483.973,24.552 486.329,21.968 L481.769,21.968 C479.945,23.26 477.931,24.438 475.689,25.502 L473.523,22.006 C477.589,20.486 480.667,18.548 482.719,16.268 Z M498.375,12.924 L498.375,10.644 L482.149,10.644 L482.149,12.924 L498.375,12.924 Z M482.149,7.528 L498.375,7.528 L498.375,5.286 L482.149,5.286 L482.149,7.528 Z M532.803,17.408 L532.803,35.838 L528.889,35.838 L528.889,19.156 C527.749,22.196 526.419,24.97 524.823,27.516 L523.075,23.108 C525.659,19.764 527.559,15.926 528.775,11.594 L523.835,11.594 L523.835,7.832 L528.889,7.832 L528.889,0.802 L532.803,0.802 L532.803,7.832 L537.363,7.832 L537.363,11.594 L532.803,11.594 L532.803,13.038 C534.703,15.356 536.603,17.94 538.503,20.828 L536.299,24.21 C534.931,21.398 533.791,19.156 532.803,17.408 Z M545.685,6.502 L537.819,6.502 L537.819,2.74 L557.237,2.74 L557.237,6.502 L549.599,6.502 L549.599,30.898 L558.377,30.898 L558.377,34.698 L536.185,34.698 L536.185,30.898 L545.685,30.898 L545.685,6.502 Z M583.533,5.742 L583.533,15.394 L574.945,15.394 L574.945,19.156 L583.533,19.156 L583.533,35.876 L587.485,35.876 L587.485,19.156 L595.959,19.156 L595.959,15.394 L587.485,15.394 L587.485,5.742 L594.515,5.742 L594.515,1.942 L576.427,1.942 L576.427,5.742 L583.533,5.742 Z M570.271,17.636 C570.955,19.156 571.753,21.056 572.703,23.336 L574.945,19.916 C573.387,17.332 571.829,14.976 570.271,12.886 L570.271,11.632 L574.299,11.632 L574.299,7.794 L570.271,7.794 L570.271,0.802 L566.357,0.802 L566.357,7.794 L561.721,7.794 L561.721,11.632 L566.357,11.632 L566.357,11.86 C565.217,16.04 563.431,19.802 561.037,23.108 L562.747,27.478 C564.115,25.122 565.331,22.576 566.357,19.84 L566.357,35.838 L570.271,35.838 L570.271,17.636 Z M599.873,4.906 L599.873,8.668 L633.807,8.668 L633.807,4.906 L619.139,4.906 C618.493,3.31 617.809,1.828 617.125,0.498 L612.679,1.258 C613.439,2.398 614.123,3.614 614.731,4.906 L599.873,4.906 Z M623.205,8.896 C627.385,12.126 630.957,15.356 633.845,18.586 L630.919,21.55 C628.487,18.434 624.991,15.09 620.507,11.48 L623.205,8.896 Z M622.635,16.078 L626.283,17.712 C624.573,20.98 622.483,23.83 620.051,26.262 C623.927,28.884 628.715,30.898 634.339,32.304 L631.869,36.028 C626.017,34.394 621.039,32.038 616.973,28.998 C612.793,32.266 607.815,34.622 601.963,36.142 L599.493,32.494 C605.117,31.126 609.867,29.036 613.743,26.3 C611.235,23.944 609.107,21.246 607.435,18.244 L610.855,16.306 C612.375,19.118 614.351,21.588 616.821,23.754 C619.177,21.512 621.115,18.966 622.635,16.078 Z M610.171,8.934 L613.059,11.442 C610.171,15.242 606.561,18.51 602.305,21.322 L599.759,17.978 C603.863,15.394 607.359,12.392 610.171,8.934 Z M647.373,16.268 L642.889,16.268 L642.889,1.942 L666.943,1.942 L666.943,16.268 L652.009,16.268 C651.477,17.028 650.907,17.788 650.299,18.472 L669.831,18.472 C669.717,22.652 669.489,26.034 669.147,28.618 C668.767,31.164 668.159,32.95 667.361,33.976 C666.563,34.964 665.271,35.496 663.447,35.572 L658.013,35.572 L657.025,31.848 C658.583,31.962 660.103,32.038 661.547,32.038 C663.181,32.038 664.245,31.392 664.777,30.176 C665.309,28.884 665.651,26.148 665.803,21.968 L663.105,21.968 C659.837,28.96 654.669,33.634 647.677,35.914 L645.435,32.57 C651.591,30.67 656.113,27.136 659.001,21.968 L655.315,21.968 C652.655,25.996 648.437,29.188 642.661,31.506 L640.153,28.428 C645.017,26.718 648.627,24.552 650.983,21.968 L646.423,21.968 C644.599,23.26 642.585,24.438 640.343,25.502 L638.177,22.006 C642.243,20.486 645.321,18.548 647.373,16.268 Z M663.029,12.924 L663.029,10.644 L646.803,10.644 L646.803,12.924 L663.029,12.924 Z M646.803,7.528 L663.029,7.528 L663.029,5.286 L646.803,5.286 L646.803,7.528 Z M696.849,4.868 L701.903,4.868 L712.277,32 L707.527,32 L705.057,25.198 L693.695,25.198 L691.225,32 L686.475,32 L696.849,4.868 Z M695.025,21.55 L703.727,21.55 L699.471,9.656 L699.319,9.656 L695.025,21.55 Z M714.937,4.868 L726.185,4.868 C732.721,4.868 736.027,7.642 736.027,13.19 C736.027,18.776 732.721,21.588 726.109,21.588 L719.383,21.588 L719.383,32 L714.937,32 L714.937,4.868 Z M719.383,8.668 L719.383,17.788 L725.843,17.788 C727.819,17.788 729.263,17.408 730.175,16.724 C731.087,16.002 731.543,14.824 731.543,13.19 C731.543,11.556 731.049,10.416 730.137,9.732 C729.225,9.01 727.781,8.668 725.843,8.668 L719.383,8.668 Z M739.827,4.868 L739.827,32 L744.273,32 L744.273,4.868 L739.827,4.868 Z M748.985,4.906 L748.985,8.668 L782.919,8.668 L782.919,4.906 L768.251,4.906 C767.605,3.31 766.921,1.828 766.237,0.498 L761.791,1.258 C762.551,2.398 763.235,3.614 763.843,4.906 L748.985,4.906 Z M772.317,8.896 C776.497,12.126 780.069,15.356 782.957,18.586 L780.031,21.55 C777.599,18.434 774.103,15.09 769.619,11.48 L772.317,8.896 Z M771.747,16.078 L775.395,17.712 C773.685,20.98 771.595,23.83 769.163,26.262 C773.039,28.884 777.827,30.898 783.451,32.304 L780.981,36.028 C775.129,34.394 770.151,32.038 766.085,28.998 C761.905,32.266 756.927,34.622 751.075,36.142 L748.605,32.494 C754.229,31.126 758.979,29.036 762.855,26.3 C760.347,23.944 758.219,21.246 756.547,18.244 L759.967,16.306 C761.487,19.118 763.463,21.588 765.933,23.754 C768.289,21.512 770.227,18.966 771.747,16.078 Z M759.283,8.934 L762.171,11.442 C759.283,15.242 755.673,18.51 751.417,21.322 L748.871,17.978 C752.975,15.394 756.471,12.392 759.283,8.934 Z M796.485,16.268 L792.001,16.268 L792.001,1.942 L816.055,1.942 L816.055,16.268 L801.121,16.268 C800.589,17.028 800.019,17.788 799.411,18.472 L818.943,18.472 C818.829,22.652 818.601,26.034 818.259,28.618 C817.879,31.164 817.271,32.95 816.473,33.976 C815.675,34.964 814.383,35.496 812.559,35.572 L807.125,35.572 L806.137,31.848 C807.695,31.962 809.215,32.038 810.659,32.038 C812.293,32.038 813.357,31.392 813.889,30.176 C814.421,28.884 814.763,26.148 814.915,21.968 L812.217,21.968 C808.949,28.96 803.781,33.634 796.789,35.914 L794.547,32.57 C800.703,30.67 805.225,27.136 808.113,21.968 L804.427,21.968 C801.767,25.996 797.549,29.188 791.773,31.506 L789.265,28.428 C794.129,26.718 797.739,24.552 800.095,21.968 L795.535,21.968 C793.711,23.26 791.697,24.438 789.455,25.502 L787.289,22.006 C791.355,20.486 794.433,18.548 796.485,16.268 Z M812.141,12.924 L812.141,10.644 L795.915,10.644 L795.915,12.924 L812.141,12.924 Z M795.915,7.528 L812.141,7.528 L812.141,5.286 L795.915,5.286 L795.915,7.528 Z" id="USDT交易-币币交易-C2C交易-杠杆"></path>
                            <path d="M16.14,72.256 C18.095,72.256 19.567,73.107 20.579,74.855 C21.453,76.327 21.89,78.305 21.89,80.789 C21.89,83.273 21.453,85.251 20.579,86.723 C19.567,88.448 18.095,89.322 16.14,89.322 C14.162,89.322 12.69,88.448 11.701,86.723 C10.827,85.251 10.39,83.273 10.39,80.789 C10.39,78.305 10.827,76.327 11.701,74.855 C12.69,73.107 14.162,72.256 16.14,72.256 Z M16.14,73.866 C14.668,73.866 13.61,74.648 12.966,76.235 C12.506,77.339 12.276,78.857 12.276,80.789 C12.276,82.698 12.506,84.216 12.966,85.343 C13.61,86.907 14.668,87.712 16.14,87.712 C17.612,87.712 18.67,86.907 19.314,85.343 C19.774,84.216 20.027,82.698 20.027,80.789 C20.027,78.857 19.774,77.339 19.314,76.235 C18.67,74.648 17.612,73.866 16.14,73.866 Z M55.768,70.416 C51.375,71.474 45.855,72.026 39.185,72.026 L39.691,73.521 C42.543,73.521 45.188,73.406 47.626,73.222 L47.626,76.971 L39.645,76.971 L39.645,78.581 L47.626,78.581 L47.626,82.353 L37.736,82.353 L37.736,83.94 L47.626,83.94 L47.626,88.609 C47.626,89.253 47.258,89.598 46.568,89.598 C45.51,89.598 44.383,89.552 43.21,89.506 L43.578,91.116 L47.143,91.116 C48.569,91.116 49.305,90.403 49.305,89.023 L49.305,83.94 L58.367,83.94 L58.367,82.353 L49.305,82.353 L49.305,78.581 L56.642,78.581 L56.642,76.971 L49.305,76.971 L49.305,73.084 C52.065,72.808 54.48,72.371 56.573,71.819 L55.768,70.416 Z M81.32,86.447 C79.319,87.275 76.996,87.919 74.328,88.402 L74.535,90.012 C77.065,89.506 79.319,88.839 81.32,88.011 L81.32,86.447 Z M77.824,70.209 L79.388,70.83 C78.33,73.682 77.249,75.982 76.145,77.707 C77.088,77.592 78.031,77.431 78.997,77.247 C79.411,76.488 79.825,75.683 80.262,74.832 L81.78,75.407 C79.779,79.087 78.123,81.732 76.835,83.296 C78.215,83.02 79.618,82.629 80.998,82.123 L80.998,83.618 C78.836,84.354 76.789,84.837 74.834,85.113 L74.374,83.595 C74.673,83.503 74.926,83.342 75.133,83.135 C75.961,82.261 76.973,80.812 78.169,78.765 C76.996,78.972 75.8,79.156 74.604,79.34 L74.19,77.822 C74.443,77.73 74.673,77.523 74.88,77.224 C76.007,75.177 76.996,72.831 77.824,70.209 Z M82.953,71.681 L87.576,71.681 L87.576,70.163 L89.186,70.163 L89.186,71.681 L94.131,71.681 L94.131,73.176 L89.186,73.176 L89.186,75.269 L94.453,75.269 L94.453,76.304 C94.131,77.776 93.694,79.225 93.142,80.651 L91.555,80.191 C92.038,79.179 92.429,78.029 92.751,76.787 L82.24,76.787 L82.24,75.269 L87.576,75.269 L87.576,73.176 L82.953,73.176 L82.953,71.681 Z M81.734,83.549 L88.105,83.549 C88.174,83.043 88.22,82.514 88.243,81.985 L88.243,77.73 L89.853,77.73 L89.853,81.985 C89.83,82.537 89.784,83.043 89.738,83.549 L95.097,83.549 L95.097,85.067 L89.439,85.067 C89.324,85.481 89.209,85.849 89.071,86.217 C91.325,87.275 93.395,88.517 95.258,89.943 L94.338,91.369 C92.406,89.759 90.451,88.448 88.473,87.436 C88.335,87.666 88.174,87.873 88.036,88.08 C86.909,89.483 85.092,90.587 82.562,91.392 L81.642,89.943 C84.103,89.207 85.805,88.218 86.771,86.976 C87.185,86.401 87.507,85.757 87.737,85.067 L81.734,85.067 L81.734,83.549 Z M82.631,79.8 C83.896,80.398 85.046,81.157 86.104,82.031 L85.322,83.25 C84.195,82.284 83.045,81.502 81.849,80.927 L82.631,79.8 Z M84.402,77.431 C85.575,77.983 86.656,78.696 87.645,79.524 L86.863,80.697 C85.805,79.777 84.747,79.041 83.666,78.535 L84.402,77.431 Z M114.416,75.499 L114.048,76.948 L117.452,76.948 C117.59,76.488 117.682,76.005 117.705,75.499 L114.416,75.499 Z M119.315,75.499 C119.269,76.005 119.2,76.488 119.108,76.948 L122.673,76.948 L122.673,75.499 L119.315,75.499 Z M124.283,75.499 L124.283,76.948 L130.47,76.948 C130.47,78.65 130.286,79.708 129.941,80.145 C129.596,80.651 128.791,80.904 127.549,80.904 C127.181,80.904 126.813,80.881 126.491,80.881 L126.169,79.708 C126.583,79.731 126.974,79.754 127.342,79.754 C128.055,79.754 128.492,79.639 128.676,79.409 C128.814,79.202 128.883,78.811 128.906,78.213 L124.283,78.213 L124.283,80.835 L122.673,80.835 L122.673,78.213 L118.648,78.213 C118.349,78.788 117.981,79.294 117.567,79.731 C116.831,80.421 115.819,80.996 114.485,81.456 L128.607,81.456 L128.607,87.712 L126.974,87.712 L126.974,82.928 L115.704,82.928 L115.704,87.712 L114.071,87.712 L114.071,81.594 C113.496,81.778 112.898,81.939 112.3,82.077 L111.472,80.766 C113.818,80.26 115.428,79.593 116.325,78.765 C116.486,78.581 116.647,78.397 116.785,78.213 L112.254,78.213 L113.059,74.188 L117.705,74.188 L117.705,72.716 L112.461,72.716 L112.461,71.359 L117.705,71.359 L117.705,70.163 L119.315,70.163 L119.315,71.359 L122.673,71.359 L122.673,70.163 L124.283,70.163 L124.283,71.359 L129.366,71.359 L129.366,75.499 L124.283,75.499 Z M119.315,72.716 L119.315,74.188 L122.673,74.188 L122.673,72.716 L119.315,72.716 Z M124.283,72.716 L124.283,74.188 L127.802,74.188 L127.802,72.716 L124.283,72.716 Z M122.581,87.39 C125.548,88.103 128.262,88.977 130.723,90.035 L129.826,91.415 C127.204,90.219 124.513,89.299 121.753,88.632 L122.581,87.39 Z M120.442,83.733 L122.098,83.894 C121.799,86.516 121.109,88.264 120.028,89.184 C118.832,90.311 116.187,91.024 112.047,91.323 L111.38,89.851 C115.037,89.667 117.452,89.138 118.625,88.218 C119.66,87.321 120.258,85.826 120.442,83.733 Z M176.445,73.728 L180.539,73.728 L180.539,70.255 L182.149,70.255 L182.149,73.728 L187.048,73.728 L187.048,80.674 L188.842,80.674 L188.842,82.284 L182.563,82.284 C183.989,85.412 186.266,87.942 189.371,89.874 L188.244,91.162 C185.116,89.023 182.816,86.332 181.367,83.066 C180.332,86.746 178.285,89.437 175.226,91.185 L174.214,89.828 C177.158,88.264 179.09,85.757 179.964,82.284 L175.502,82.284 L175.502,80.674 L180.286,80.674 C180.447,79.616 180.539,78.466 180.539,77.27 L180.539,75.269 L176.445,75.269 L176.445,73.728 Z M182.149,75.269 L182.149,76.925 C182.149,78.259 182.057,79.501 181.873,80.674 L185.438,80.674 L185.438,75.269 L182.149,75.269 Z M168.947,74.648 C168.878,76.856 168.579,78.949 168.073,80.927 L169.43,81.318 C169.913,79.248 170.189,77.04 170.258,74.74 L168.947,74.648 Z M174.743,74.142 C175.387,75.614 175.939,77.293 176.445,79.202 L175.088,79.524 C174.674,77.799 174.145,76.143 173.501,74.533 L174.743,74.142 Z M171.408,70.278 L171.408,91.208 L173.041,91.208 L173.041,70.278 L171.408,70.278 Z M211.841,72.095 L217.706,72.095 L217.706,70.232 L219.247,70.232 L219.247,72.095 L225.02,72.095 L225.02,73.613 L219.247,73.613 L219.247,75.568 L224.261,75.568 L224.261,81.433 L219.247,81.433 L219.247,88.471 L217.706,88.471 L217.706,82.1 C216.533,84.147 214.716,85.895 212.255,87.344 L211.22,86.033 C213.75,84.745 215.544,83.204 216.625,81.433 L212.692,81.433 L212.692,75.568 L217.706,75.568 L217.706,73.613 L211.841,73.613 L211.841,72.095 Z M222.743,79.961 L222.743,77.017 L219.247,77.017 L219.247,79.961 L222.743,79.961 Z M217.706,79.961 L217.706,77.017 L214.233,77.017 L214.233,79.961 L217.706,79.961 Z M221.064,82.123 C222.697,83.434 224.077,84.745 225.204,86.079 L224.1,87.183 C223.088,85.895 221.731,84.561 219.983,83.135 L221.064,82.123 Z M206.597,70.577 L205.47,71.658 C207.149,72.946 208.46,74.165 209.426,75.315 L210.599,74.165 C209.518,72.969 208.184,71.773 206.597,70.577 Z M220.006,90.886 C218.741,90.886 217.361,90.863 215.889,90.84 C214.417,90.817 213.198,90.679 212.278,90.426 C211.358,90.15 210.553,89.575 209.84,88.747 C209.518,88.356 209.219,88.172 208.943,88.172 C208.391,88.172 207.494,89.23 206.252,91.346 L205.01,90.219 C206.206,88.287 207.287,87.114 208.207,86.7 L208.207,79.708 L204.941,79.708 L204.941,78.19 L209.748,78.19 L209.748,86.792 C209.932,86.93 210.116,87.091 210.323,87.321 C210.875,87.988 211.473,88.471 212.117,88.77 C212.83,89.092 213.865,89.276 215.245,89.322 C216.464,89.345 217.982,89.368 219.776,89.368 C220.88,89.368 221.984,89.345 223.111,89.322 C224.238,89.299 225.112,89.276 225.71,89.23 L225.296,90.886 L220.006,90.886 Z M243.994,91.093 L241.924,91.093 L241.579,89.483 C242.223,89.529 242.821,89.575 243.419,89.575 C243.971,89.575 244.27,89.276 244.27,88.701 L244.27,83.089 C243.396,83.434 242.499,83.756 241.602,84.032 L241.211,82.376 C242.246,82.123 243.258,81.801 244.27,81.41 L244.27,76.212 L241.487,76.212 L241.487,74.625 L244.27,74.625 L244.27,70.278 L245.972,70.278 L245.972,74.625 L248.295,74.625 L248.295,76.212 L245.972,76.212 L245.972,80.697 C246.639,80.375 247.306,80.053 247.95,79.685 L247.95,81.364 C247.306,81.709 246.639,82.031 245.972,82.353 L245.972,89.138 C245.972,90.426 245.305,91.093 243.994,91.093 Z M250.089,71.014 L260.117,71.014 L260.117,78.995 L250.089,78.995 L250.089,71.014 Z M258.507,77.638 L258.507,75.66 L251.699,75.66 L251.699,77.638 L258.507,77.638 Z M251.699,74.372 L258.507,74.372 L258.507,72.371 L251.699,72.371 L251.699,74.372 Z M248.479,80.605 L261.635,80.605 L261.635,82.077 L255.885,82.077 L255.885,84.676 L260.692,84.676 L260.692,86.171 L255.885,86.171 L255.885,89.138 C256.805,89.276 257.886,89.345 259.151,89.345 C260.347,89.345 261.382,89.299 262.233,89.23 L261.773,90.84 C260.853,90.84 260.002,90.817 259.266,90.817 C256.23,90.794 254.16,90.495 253.056,89.943 C252.182,89.483 251.377,88.609 250.687,87.321 C250.135,88.747 249.376,90.058 248.387,91.254 L247.168,90.196 C248.916,88.08 249.882,85.688 250.066,83.066 L251.538,83.227 C251.492,84.055 251.377,84.837 251.193,85.619 C251.929,87.16 252.78,88.149 253.746,88.586 C253.907,88.655 254.091,88.724 254.298,88.793 L254.298,82.077 L248.479,82.077 L248.479,80.605 Z M296.893,71.129 L296.893,83.848 L295.214,83.848 L295.214,72.716 L288.314,72.716 L288.314,83.848 L286.681,83.848 L286.681,71.129 L296.893,71.129 Z M296.387,90.932 L293.995,90.932 C292.73,90.932 292.109,90.288 292.109,89.023 L292.109,83.756 L293.765,83.756 L293.765,88.678 C293.765,89.161 293.995,89.414 294.478,89.414 L296.088,89.414 C296.456,89.414 296.732,89.276 296.893,89.046 C297.077,88.747 297.215,87.873 297.307,86.447 L298.848,86.93 C298.71,88.816 298.434,89.989 298.043,90.403 C297.675,90.748 297.123,90.932 296.387,90.932 Z M290.89,74.349 L292.477,74.349 L292.477,79.961 C292.385,83.043 291.764,85.504 290.614,87.344 C289.51,89.046 287.67,90.403 285.094,91.369 L284.197,89.966 C286.681,89 288.429,87.758 289.418,86.24 C290.338,84.63 290.844,82.537 290.89,79.961 L290.89,74.349 Z M278.148,78.719 L280.793,78.719 L280.793,73.337 L277.849,73.337 L277.849,71.75 L285.393,71.75 L285.393,73.337 L282.495,73.337 L282.495,78.719 L285.071,78.719 L285.071,80.329 L282.495,80.329 L282.495,85.55 C283.507,85.205 284.473,84.837 285.439,84.446 L285.439,86.033 C283.162,86.953 280.724,87.712 278.125,88.333 L277.734,86.746 C278.769,86.562 279.781,86.332 280.793,86.056 L280.793,80.329 L278.148,80.329 L278.148,78.719 Z M340.821,72.578 L343.006,72.578 L349.469,89 L347.422,89 L345.674,84.4 L338.13,84.4 L336.382,89 L334.358,89 L340.821,72.578 Z M338.728,82.813 L345.076,82.813 L341.971,74.602 L341.879,74.602 L338.728,82.813 Z M364.625,72.578 L371.341,72.578 C375.113,72.578 376.999,74.188 376.999,77.408 C376.999,80.651 375.09,82.284 371.318,82.284 L366.511,82.284 L366.511,89 L364.625,89 L364.625,72.578 Z M366.511,74.211 L366.511,80.651 L371.226,80.651 C372.56,80.651 373.526,80.375 374.17,79.846 C374.791,79.317 375.113,78.512 375.113,77.408 C375.113,76.304 374.791,75.499 374.147,75.016 C373.503,74.464 372.537,74.211 371.226,74.211 L366.511,74.211 Z M392.891,72.578 L399.607,72.578 C403.379,72.578 405.265,74.188 405.265,77.408 C405.265,80.651 403.356,82.284 399.584,82.284 L394.777,82.284 L394.777,89 L392.891,89 L392.891,72.578 Z M394.777,74.211 L394.777,80.651 L399.492,80.651 C400.826,80.651 401.792,80.375 402.436,79.846 C403.057,79.317 403.379,78.512 403.379,77.408 C403.379,76.304 403.057,75.499 402.413,75.016 C401.769,74.464 400.803,74.211 399.492,74.211 L394.777,74.211 Z M437.763,84.17 L437.763,91.369 L436.153,91.369 L436.153,90.38 L426.263,90.38 L426.263,91.369 L424.653,91.369 L424.653,84.17 L437.763,84.17 Z M426.263,88.885 L436.153,88.885 L436.153,85.665 L426.263,85.665 L426.263,88.885 Z M428.103,73.912 L429.713,74.257 C429.368,74.786 429.023,75.292 428.655,75.775 L437.142,75.775 L437.142,77.109 C436.199,78.42 434.842,79.57 433.071,80.582 C435.578,81.571 438.384,82.169 441.489,82.399 L441.121,83.894 C437.441,83.618 434.198,82.813 431.346,81.433 C428.632,82.675 425.205,83.641 421.065,84.354 L420.444,82.882 C424.147,82.284 427.229,81.525 429.667,80.559 C428.494,79.869 427.413,79.087 426.424,78.213 C425.527,79.018 424.561,79.731 423.549,80.375 L422.491,79.087 C424.768,77.776 426.631,76.051 428.103,73.912 Z M431.369,79.823 C432.956,79.041 434.221,78.144 435.164,77.178 L427.459,77.178 L427.39,77.247 C428.609,78.259 429.943,79.11 431.369,79.823 Z M440.339,71.934 L440.339,76.281 L438.66,76.281 L438.66,73.429 L423.342,73.429 L423.342,76.281 L421.663,76.281 L421.663,71.934 L430.081,71.934 C429.805,71.336 429.529,70.807 429.23,70.324 L431.047,70.048 C431.323,70.6 431.576,71.244 431.852,71.934 L440.339,71.934 Z M474.378,74.671 L461.245,74.671 L461.245,79.156 L474.378,79.156 L474.378,74.671 Z M461.245,80.766 C461.13,84.883 460.049,88.425 457.979,91.392 L456.76,90.288 C458.623,87.712 459.566,84.354 459.612,80.237 L459.612,73.038 L467.11,73.038 C466.696,72.072 466.259,71.175 465.776,70.347 L467.547,70.071 C467.961,70.945 468.375,71.934 468.789,73.038 L476.057,73.038 L476.057,80.766 L461.245,80.766 Z M493.49,74.05 L493.49,75.614 L500.758,75.614 L500.758,74.05 L498.067,74.05 C497.745,72.716 497.423,71.52 497.101,70.485 L495.445,70.761 C495.836,71.75 496.181,72.854 496.503,74.05 L493.49,74.05 Z M495.376,76.971 C495.859,79.593 496.296,82.629 496.687,86.033 L495.33,86.378 C494.985,83.273 494.548,80.283 494.019,77.408 L495.376,76.971 Z M500.735,86.24 L500.735,87.827 C498.619,88.655 496.319,89.322 493.858,89.874 L493.444,88.241 C494.801,88.011 496.135,87.712 497.423,87.344 C497.975,83.986 498.366,80.444 498.619,76.672 L500.114,76.879 C499.838,80.49 499.401,83.825 498.849,86.907 C499.493,86.677 500.137,86.47 500.735,86.24 Z M511.66,74.671 L508.532,74.671 L508.532,70.255 L506.922,70.255 L506.922,74.671 L503.863,74.671 L503.863,71.152 L502.276,71.152 L502.276,76.12 L513.224,76.12 L513.224,71.152 L511.66,71.152 L511.66,74.671 Z M501.287,78.052 L501.287,79.57 L506.692,79.57 C506.554,80.329 506.324,81.065 506.048,81.778 L501.954,81.778 L501.954,91.208 L503.449,91.208 L503.449,83.25 L505.473,83.25 L505.473,90.863 L506.876,90.863 L506.876,83.25 L508.739,83.25 L508.739,90.84 L510.142,90.84 L510.142,83.25 L512.212,83.25 L512.212,89.161 C512.212,89.575 512.051,89.782 511.752,89.782 L510.809,89.713 L511.2,91.208 L512.258,91.208 C513.224,91.208 513.707,90.633 513.707,89.483 L513.707,81.778 L507.658,81.778 C507.934,81.065 508.164,80.329 508.325,79.57 L514.374,79.57 L514.374,78.052 L501.287,78.052 Z M557.29,72.256 C555.634,72.256 554.277,72.808 553.265,73.912 C552.253,74.993 551.724,76.465 551.724,78.305 L553.61,78.305 C553.633,76.856 553.978,75.752 554.622,75.016 C555.22,74.234 556.094,73.866 557.221,73.866 C558.279,73.866 559.13,74.142 559.728,74.694 C560.326,75.246 560.625,76.005 560.625,77.017 C560.625,78.075 560.188,79.064 559.36,79.961 C558.923,80.421 558.072,81.088 556.784,82.008 C555.036,83.204 553.863,84.193 553.219,84.929 C552.115,86.148 551.586,87.505 551.586,89 L562.534,89 L562.534,87.321 L553.909,87.321 C554.208,86.217 555.404,84.952 557.497,83.549 C559.199,82.399 560.326,81.502 560.901,80.904 C561.959,79.754 562.511,78.466 562.511,77.04 C562.511,75.614 562.005,74.441 561.039,73.567 C560.05,72.693 558.808,72.256 557.29,72.256 Z M586.292,72.578 L588.063,72.578 L588.063,83.733 L590.731,83.733 L590.731,85.274 L588.063,85.274 L588.063,89 L586.269,89 L586.269,85.274 L578.012,85.274 L578.012,83.48 L586.292,72.578 Z M586.2,75.039 L579.599,83.733 L586.269,83.733 L586.269,75.039 L586.2,75.039 Z M615.156,91.047 L611.637,91.047 L611.246,89.322 C612.396,89.414 613.5,89.46 614.535,89.46 C615.386,89.46 615.823,89.023 615.823,88.172 L615.823,70.554 L617.525,70.554 L617.525,88.609 C617.525,90.219 616.72,91.047 615.156,91.047 Z M609.659,75.89 L611.315,76.534 C610.211,81.134 608.762,84.63 606.968,87.022 L605.542,85.757 C607.382,83.319 608.739,80.03 609.659,75.89 Z M622.723,75.338 L621.228,76.281 C622.999,80.26 624.402,83.871 625.437,87.137 L626.909,86.102 C625.943,83.043 624.54,79.455 622.723,75.338 Z M649.77,71.934 L649.77,88.885 L648.16,88.885 L648.16,87.344 L644.756,87.344 L644.756,89.437 L643.146,89.437 L643.146,71.934 L649.77,71.934 Z M644.756,85.803 L648.16,85.803 L648.16,80.26 L644.756,80.26 L644.756,85.803 Z M644.756,78.719 L648.16,78.719 L648.16,73.452 L644.756,73.452 L644.756,78.719 Z M653.082,78.788 C654.508,80.95 655.612,82.836 656.371,84.446 L654.991,85.412 C654.186,83.687 653.105,81.755 651.725,79.639 L653.082,78.788 Z M658.326,91.07 L654.301,91.07 L653.956,89.46 C655.29,89.506 656.555,89.552 657.774,89.552 C658.441,89.552 658.786,89.184 658.786,88.471 L658.786,76.028 L650.828,76.028 L650.828,74.441 L658.786,74.441 L658.786,70.393 L660.465,70.393 L660.465,74.441 L663.294,74.441 L663.294,76.028 L660.465,76.028 L660.465,88.885 C660.465,90.334 659.752,91.07 658.326,91.07 Z M696.022,84.17 L696.022,91.369 L694.412,91.369 L694.412,90.38 L684.522,90.38 L684.522,91.369 L682.912,91.369 L682.912,84.17 L696.022,84.17 Z M684.522,88.885 L694.412,88.885 L694.412,85.665 L684.522,85.665 L684.522,88.885 Z M686.362,73.912 L687.972,74.257 C687.627,74.786 687.282,75.292 686.914,75.775 L695.401,75.775 L695.401,77.109 C694.458,78.42 693.101,79.57 691.33,80.582 C693.837,81.571 696.643,82.169 699.748,82.399 L699.38,83.894 C695.7,83.618 692.457,82.813 689.605,81.433 C686.891,82.675 683.464,83.641 679.324,84.354 L678.703,82.882 C682.406,82.284 685.488,81.525 687.926,80.559 C686.753,79.869 685.672,79.087 684.683,78.213 C683.786,79.018 682.82,79.731 681.808,80.375 L680.75,79.087 C683.027,77.776 684.89,76.051 686.362,73.912 Z M689.628,79.823 C691.215,79.041 692.48,78.144 693.423,77.178 L685.718,77.178 L685.649,77.247 C686.868,78.259 688.202,79.11 689.628,79.823 Z M698.598,71.934 L698.598,76.281 L696.919,76.281 L696.919,73.429 L681.601,73.429 L681.601,76.281 L679.922,76.281 L679.922,71.934 L688.34,71.934 C688.064,71.336 687.788,70.807 687.489,70.324 L689.306,70.048 C689.582,70.6 689.835,71.244 690.111,71.934 L698.598,71.934 Z M718.446,78.075 L718.446,81.916 L722.149,81.916 L722.149,78.075 L718.446,78.075 Z M722.149,76.58 L722.149,72.693 L718.446,72.693 L718.446,76.58 L722.149,76.58 Z M718.423,83.411 C718.285,86.631 717.733,89.276 716.79,91.346 L715.548,90.196 C716.468,88.126 716.928,85.458 716.951,82.238 L716.951,71.198 L723.667,71.198 L723.667,89.138 C723.667,90.518 723.023,91.231 721.735,91.231 L719.895,91.231 L719.504,89.759 C720.148,89.805 720.723,89.851 721.275,89.851 C721.85,89.851 722.149,89.437 722.149,88.609 L722.149,83.411 L718.423,83.411 Z M727.163,81.134 L727.163,91.323 L725.599,91.323 L725.599,71.175 L734.914,71.175 C734.914,74.027 734.776,75.913 734.5,76.833 C734.224,77.776 733.373,78.259 731.924,78.259 L730.061,78.259 L729.624,76.833 C730.015,76.833 730.521,76.856 731.165,76.856 C731.717,76.856 732.108,76.81 732.384,76.741 C732.66,76.649 732.867,76.419 733.005,76.074 C733.166,75.568 733.258,74.441 733.304,72.693 L727.163,72.693 L727.163,79.662 L734.983,79.662 L734.983,81.065 C734.546,83.434 733.787,85.458 732.729,87.114 C733.764,88.126 734.983,89.023 736.386,89.828 L735.558,91.231 C734.086,90.38 732.844,89.437 731.786,88.402 C730.774,89.575 729.601,90.518 728.221,91.254 L727.347,89.92 C728.658,89.207 729.762,88.31 730.682,87.206 C729.21,85.412 728.221,83.388 727.715,81.134 L727.163,81.134 Z M729.141,81.134 C729.624,82.905 730.452,84.492 731.625,85.918 C732.476,84.538 733.097,82.951 733.511,81.134 L729.141,81.134 Z M759.017,80.927 L764.284,80.927 L764.284,76.649 L765.963,76.649 L765.963,80.927 L771.46,80.927 L771.46,82.537 L765.963,82.537 L765.963,88.885 L772.495,88.885 L772.495,90.518 L758.074,90.518 L758.074,88.885 L764.284,88.885 L764.284,82.537 L759.017,82.537 L759.017,80.927 Z M755.314,81.939 C754.463,82.813 753.566,83.664 752.6,84.469 L751.565,83.112 C754.44,80.743 756.671,78.029 758.281,74.97 L752.37,74.97 L752.37,73.337 L759.063,73.337 C759.523,72.279 759.937,71.175 760.259,70.048 L761.984,70.255 C761.662,71.313 761.317,72.348 760.903,73.337 L772.472,73.337 L772.472,74.97 L760.167,74.97 C759.27,76.787 758.189,78.489 756.947,80.053 L756.947,91.369 L755.314,91.369 L755.314,81.939 Z M796.414,86.723 L796.414,88.31 C794.16,89.184 791.584,89.897 788.686,90.426 L788.479,88.816 C791.515,88.31 794.16,87.597 796.414,86.723 Z M792.32,70.094 C791.4,72.831 790.319,75.269 789.077,77.385 C788.87,77.684 788.64,77.891 788.387,77.983 L788.778,79.501 C790.066,79.34 791.354,79.179 792.619,78.995 C791.423,81.134 790.388,82.652 789.537,83.526 C789.33,83.71 789.077,83.871 788.778,84.009 L789.238,85.527 C791.446,85.228 793.746,84.676 796.161,83.894 L796.161,82.399 C794.505,82.951 792.849,83.388 791.193,83.71 C792.527,82.077 794.229,79.317 796.253,75.43 L794.781,74.878 C794.321,75.798 793.861,76.672 793.447,77.5 C792.412,77.661 791.377,77.799 790.342,77.891 C791.538,76.097 792.734,73.705 793.907,70.715 L792.32,70.094 Z M807.569,74.28 L807.799,75.798 L801.888,76.626 C801.934,77.73 802.003,78.765 802.095,79.754 L808.19,78.788 L808.443,80.352 L802.279,81.318 C802.325,81.732 802.394,82.146 802.463,82.514 C802.693,83.71 802.969,84.745 803.291,85.665 C804.533,84.515 805.637,83.227 806.603,81.755 L807.914,82.652 C806.695,84.423 805.384,85.941 803.958,87.183 C804.05,87.321 804.119,87.482 804.211,87.62 C804.97,88.747 805.637,89.322 806.235,89.322 C806.833,89.322 807.362,88.08 807.776,85.619 L809.179,86.539 C808.535,89.575 807.615,91.116 806.419,91.116 C805.315,91.07 804.28,90.38 803.291,89 C803.084,88.724 802.9,88.448 802.762,88.149 C801.06,89.414 799.22,90.357 797.265,90.955 L796.299,89.621 C798.415,88.931 800.324,87.965 802.026,86.7 C801.589,85.688 801.244,84.584 800.968,83.342 C800.83,82.744 800.738,82.169 800.646,81.571 L796.506,82.238 L796.276,80.674 L800.439,80.007 C800.324,79.018 800.255,77.96 800.232,76.856 L796.92,77.339 L796.667,75.821 L800.186,75.315 L800.186,70.209 L801.842,70.209 L801.842,75.085 L807.569,74.28 Z M804.418,70.14 C805.591,71.244 806.488,72.187 807.132,72.992 L805.844,73.889 C805.2,72.992 804.28,72.003 803.13,70.945 L804.418,70.14 Z" id="0手续费-快速提现-APP客户端-24小"></path>
                        </g>
                    </g>
                </g>
            </g>
        </g>
    </g>
</svg>