<svg id="图层_1" data-name="图层 1" xmlns="http://www.w3.org/2000/svg" viewBox="0 0 190 60"><defs><style>.cls-1{fill:#fcfcfc;}.cls-2{fill:#ff7519;}.cls-3{fill:#454c6d;}</style></defs><title>logo</title><circle class="cls-1" cx="11.70494" cy="27.23386" r="10.34071"/><path class="cls-2" d="M11.705,38.07966A10.84564,10.84564,0,1,1,22.55017,27.234,10.858,10.858,0,0,1,11.705,38.07966Zm0-20.68207A9.83643,9.83643,0,1,0,21.54095,27.234,9.84717,9.84717,0,0,0,11.705,17.39759Z"/><path class="cls-2" d="M18.65269,19.67632a6.79242,6.79242,0,0,0-4.83488-2.41905l.03978,7.83288-2.15264.06727L9.5523,25.09015l.03978-7.83288a6.79242,6.79242,0,0,0-4.83488,2.41905V24.987l4.74355,2.114L4.75719,30.19462V34.577s1.753,2.372,4.17638,2.32048c-.01984-2.93808-.05156-7.63092-.05156-7.63092l2.60379-.88342v.00574l.018-.01183.20116-.06828.20116.06828.018.01183v-.00574l2.60379.88342s-.03172,4.69284-.05156,7.63092c2.42333.05156,4.17638-2.32048,4.17638-2.32048V30.19462L13.90914,27.101l4.74355-2.114Z"/><path class="cls-3" d="M33.9192,15.57762l4.26512.02724-1.30372,8.83841,8.59115.05486,1.30372-8.83841,4.26512.02724L47.81528,37.5647l-4.26512-.02724,1.4139-9.59128-8.59213-.05487L34.958,37.48259l-4.26512-.02724Z"/><path class="cls-3" d="M66.99858,35.36576c-.12844.97125-.23436,1.81822-.26725,2.31973L62.74027,37.66l.18746-1.56767-.0609-.00039a6.17425,6.17425,0,0,1-4.34022,1.91743,5.17533,5.17533,0,0,1-5.40671-5.21046,16.953,16.953,0,0,1,.32149-3.512l1.20748-7.83559,4.08242.02607-1.09793,7.6168a17.1079,17.1079,0,0,0-.26765,3.38586,2.29776,2.29776,0,0,0,2.35007,2.27474c2.83294.01809,3.71685-2.70635,4.09967-5.11941l1.22217-8.11771,4.08242.02607Z"/><path class="cls-3" d="M87.55922,28.375c.317,5.68068-3.26015,9.799-8.8052,9.76358-4.44783-.0284-7.2871-2.86968-7.541-7.42009-.30127-5.39837,3.48906-9.51532,8.76006-9.48166C84.2077,21.26383,87.31053,23.91865,87.55922,28.375Zm-4.26337.00413c-.11734-2.10268-.91679-3.86479-3.32341-3.88016-3.22979-.02062-4.63877,3.64117-4.47585,6.56044.11909,2.13405,1.06456,3.803,3.41028,3.818C82.07575,34.89761,83.45,31.14152,83.29585,28.37909Z"/><path class="cls-3" d="M96.18392,15.97522l3.49789,7.55207.0609.00039,5.42921-7.49507,5.02738.0321-8.22207,10.39445,5.57532,11.487-4.662-.02977-3.75068-8.809L99.079,29.107l-6.15086,8.74575-5.30145-.03385,9.17683-11.83179-5.2197-10.04128Z"/><path class="cls-3" d="M112.37538,21.82l4.08242.02607-2.4496,16.14132-4.08242-.02607Zm1.10424-6.95826,4.08242.02607-.62943,4.0117-4.08242-.02607Z"/><path class="cls-3" d="M120.51658,24.1934c.12838-.97226.23337-1.81823.26627-2.31973l3.99106.02549-.18653,1.56666.0609.00039a6.17547,6.17547,0,0,1,4.3393-1.91643,5.1756,5.1756,0,0,1,5.40769,5.21047,16.96358,16.96358,0,0,1-.32149,3.512L132.8663,38.1078l-4.08242-.02607,1.09694-7.6168a17.04351,17.04351,0,0,0,.26858-3.38687,2.29808,2.29808,0,0,0-2.35-2.27372c-2.83392-.0181-3.71685,2.70635-4.10065,5.1194l-1.22217,8.11771-4.08242-.02607Z"/><path class="cls-3" d="M137.69237,40.58548a12.90371,12.90371,0,0,0,5.00513,1.28725c4.326.02762,4.79306-3.07576,5.56257-6.74165l-.0609-.00039a5.42436,5.42436,0,0,1-5.09933,3.04245c-3.80836-.02432-5.63664-3.33051-5.83451-6.87613-.26976-4.83374,2.32218-9.67955,7.41047-9.64706a5.79885,5.79885,0,0,1,4.93515,2.76059l.32542-2.35071,3.93016.0251c-.0973.43838-.23624,1.22142-.39157,2.25622l-1.82017,12.12962c-.71161,5.26647-2.7429,8.70379-8.47066,8.66721A17.75154,17.75154,0,0,1,136.847,44ZM145.406,24.91677c-2.95573-.01887-4.01224,3.95875-3.87733,6.37612.10859,1.94584.96265,3.61322,2.7907,3.62489,3.26024.02082,4.4032-3.51624,4.23153-6.59235C148.44585,26.44233,147.295,24.92883,145.406,24.91677Z"/><path class="cls-3" d="M156.25807,33.86516l4.26512.02724-.63789,4.38793-4.26611-.02724Z"/><path class="cls-3" d="M166.53716,22.16584l4.08242.02607L168.17,38.33324l-4.08242-.02607Zm1.10424-6.95826,4.08242.02607-.62943,4.0117-4.08242-.02607Z"/><path class="cls-3" d="M189.12065,29.02349c.317,5.68068-3.26015,9.799-8.8052,9.76358-4.44783-.0284-7.28612-2.86967-7.54006-7.42009-.30127-5.39837,3.48906-9.51532,8.75907-9.48166C185.77011,21.91237,188.872,24.56718,189.12065,29.02349Zm-4.26337.00413c-.11734-2.10268-.91581-3.86479-3.32341-3.88016-3.2288-.02062-4.63877,3.64117-4.47585,6.56044.11909,2.13405,1.06456,3.803,3.41028,3.818C183.63718,35.54614,185.01144,31.79005,184.85728,29.02763Z"/></svg>